# Alias OBJ Model File
# Exported from SketchUp, (c) 2000-2012 Trimble Navigation Limited
# File units = centimeters

mtllib 三原色骰子.mtl

g Mesh1 Teddy1 Model

usemtl Teddy_BookCover
v -38.6726 94.2216 63.3831
vt -0.230083 37.0951
vn -0.200106 -1.4054e-14 0.979774
v -38.8243 94.1281 63.3521
vt -0.291032 37.0583
v -39.1203 94.0997 63.2916
vt -0.409974 37.0471
v -39.3299 94.1109 63.2488
vt -0.494197 37.0515
v -39.5377 94.1407 63.2064
vt -0.577711 37.0633
v -39.7422 94.189 63.1646
vt -0.659876 37.0823
v -39.9417 94.2555 63.1239
vt -0.740057 37.1084
v -40.1348 94.3395 63.0844
vt -0.81764 37.1415
v -40.3199 94.4404 63.0466
vt -0.892027 37.1813
v -40.4957 94.5575 63.0107
vt -0.962647 37.2274
v -42.0495 95.0456 62.6934
vt -1.58704 37.4195
v -42.3636 94.9521 62.6292
vt -1.71323 37.3827
v -42.6355 94.8444 62.5737
vt -1.8225 37.3403
v -42.7892 94.5523 62.5423
vt -1.88424 37.2253
v -42.3778 94.4593 62.6263
vt -1.71895 37.1887
v -38.2651 93.5289 63.4663
vt -0.066354 36.8224
v -37.6351 93.9035 63.595
vt 0.186816 36.9699
v -34.3746 108.259 64.2609
vt 1.49697 42.6215
v -33.2051 107.69 64.4997
vt 1.96691 42.3978
v -32.0419 107.126 64.7373
vt 2.43432 42.1754
v -31.8924 107.826 64.7678
vt 2.4944 42.4513
v -32.302 108.442 64.6842
vt 2.32978 42.6937
v -35.0515 109.577 64.1226
vt 1.22498 43.1405
v -50.8975 111.473 60.8863
vt -5.14241 43.8871
v -51.5635 111.553 60.7503
vt -5.41001 43.9184
v -51.7896 111.58 60.7041
vt -5.50086 43.9291
v -51.9074 111.568 60.68
vt -5.54822 43.9243
v -52.0092 111.506 60.6592
vt -5.58912 43.8999
v -52.076 111.406 60.6456
vt -5.61593 43.8606
v -52.1539 111.207 60.6297
vt -5.64724 43.7823
v -51.9135 110.531 60.6788
vt -5.55063 43.5161
v -51.5345 109.252 60.7562
vt -5.39837 43.0125
v -50.778 106.698 60.9107
vt -5.09437 42.0069
v -48.1609 101.407 61.4452
vt -4.04277 39.924
v -46.3038 99.4522 61.8245
vt -3.29652 39.1544
v -44.9708 98.3636 62.0967
vt -2.76089 38.7258
v -44.0176 98.0458 62.2914
vt -2.37785 38.6007
v -43.0812 97.6795 62.4827
vt -2.00159 38.4565
v -42.1641 97.2655 62.67
vt -1.63306 38.2935
v -41.2685 96.805 62.8529
vt -1.27321 38.1122
v -40.3968 96.2991 63.0309
vt -0.922929 37.913
v -39.5512 95.749 63.2036
vt -0.583118 37.6965
v -38.7337 95.1562 63.3706
vt -0.254633 37.4631
v -38.6008 95.0366 63.3977
vt -0.201229 37.416
v -38.5104 94.8811 63.4162
vt -0.164896 37.3548
v -38.4712 94.7047 63.4242
vt -0.149155 37.2853
v -38.4871 94.5246 63.4209
vt -0.155532 37.2144
v -38.5564 94.3581 63.4068
vt -0.183409 37.1489
f 1/1/1 2/2/1 3/3/1 4/4/1 5/5/1 6/6/1 7/7/1 8/8/1 9/9/1 10/10/1 11/11/1 12/12/1 13/13/1 14/14/1 15/15/1 16/16/1 17/17/1 18/18/1 19/19/1 20/20/1 21/21/1 22/22/1 23/23/1 24/24/1 25/25/1 26/26/1 27/27/1 28/28/1 29/29/1 30/30/1 31/31/1 32/32/1 33/33/1 34/34/1 35/35/1 36/36/1 37/37/1 38/38/1 39/39/1 40/40/1 41/41/1 42/42/1 43/43/1 44/44/1 45/45/1 46/46/1 47/47/1 48/48/1 

usemtl Teddy_Skin_
v -50.1024 95.4482 61.0487
vt -4.82291 37.578
vn -0.200106 -8.0373e-15 0.979774
v -49.9501 95.2117 61.0798
vt -4.76169 37.4849
v -49.2888 94.1851 61.2148
vt -4.49597 37.0807
v -47.8469 92.0213 61.5093
vt -3.91656 36.2288
v -47.5443 91.6325 61.5711
vt -3.795 36.0758
v -47.189 91.2934 61.6437
vt -3.65221 35.9423
v -46.7886 91.0114 61.7255
vt -3.49132 35.8313
v -46.3519 90.7927 61.8147
vt -3.31583 35.7452
v -45.8883 90.6421 61.9093
vt -3.12957 35.6859
v -45.4081 90.5627 62.0074
vt -2.93661 35.6546
v -44.9217 90.5565 62.1068
vt -2.74116 35.6521
v -44.7054 90.5865 62.1509
vt -2.65423 35.664
v -44.4397 90.6234 62.2052
vt -2.54747 35.6785
v -44.2248 90.6699 62.2491
vt -2.46114 35.6968
v -43.8059 91.1166 62.3346
vt -2.29279 35.8727
v -43.5902 91.0265 62.3787
vt -2.20612 35.8372
v -43.3631 90.9731 62.4251
vt -2.11486 35.8162
v -43.1305 90.9577 62.4726
vt -2.02141 35.8101
v -42.8986 90.9807 62.52
vt -1.9282 35.8192
v -42.6733 91.0416 62.566
vt -1.83767 35.8432
v -42.4605 91.1388 62.6094
vt -1.75218 35.8814
v -42.2659 91.2696 62.6492
vt -1.67398 35.9329
v -42.0945 91.4308 62.6842
vt -1.6051 35.9964
v -40.8021 91.2984 62.9481
vt -1.08576 35.9442
v -39.9282 91.2064 63.1266
vt -0.734622 35.908
v -38.6722 91.7861 63.3831
vt -0.229927 36.1362
v -38.2953 92.5654 63.4601
vt -0.0784943 36.4431
v -39.6095 92.8074 63.1917
vt -0.606543 36.5383
v -41.9032 93.3407 62.7233
vt -1.52822 36.7483
v -42.1933 93.4684 62.664
vt -1.64482 36.7986
v -42.4344 93.7166 62.6148
vt -1.74167 36.8963
v -42.604 93.8913 62.5801
vt -1.80982 36.9651
v -42.7945 94.2933 62.5412
vt -1.88637 37.1233
v -52.1033 109.376 60.64
vt -5.62693 43.0615
v -52.6833 109.423 60.5215
vt -5.85999 43.0798
v -53.2642 109.39 60.4029
vt -6.0934 43.0669
v -53.8356 109.278 60.2862
vt -6.32302 43.023
v -54.3875 109.091 60.1735
vt -6.54478 42.949
v -54.91 108.829 60.0668
vt -6.75472 42.8462
v -55.3938 108.5 59.968
vt -6.94913 42.7164
v -55.8303 108.107 59.8788
vt -7.12454 42.5618
v -56.2119 107.659 59.8009
vt -7.27786 42.3854
v -56.5316 107.163 59.7356
vt -7.40634 42.1901
v -56.7839 106.628 59.6841
vt -7.50771 41.9794
v -56.9642 106.063 59.6472
vt -7.58016 41.7572
v -56.8285 105.89 59.675
vt -7.52563 41.6889
v -54.6219 102.464 60.1256
vt -6.63895 40.3402
v -50.6744 96.3361 60.9318
vt -5.05275 37.9276
v -50.598 96.2175 60.9474
vt -5.02205 37.8809
f 49/49/2 50/50/2 51/51/2 52/52/2 53/53/2 54/54/2 55/55/2 56/56/2 57/57/2 58/58/2 59/59/2 60/60/2 61/61/2 62/62/2 63/63/2 64/64/2 65/65/2 66/66/2 67/67/2 68/68/2 69/69/2 70/70/2 71/71/2 72/72/2 73/73/2 74/74/2 75/75/2 76/76/2 77/77/2 78/78/2 79/79/2 80/80/2 81/81/2 14/14/2 13/13/2 12/12/2 11/11/2 10/10/2 9/9/2 8/8/2 7/7/2 6/6/2 5/5/2 4/4/2 3/3/2 2/2/2 1/1/2 48/48/2 47/47/2 46/46/2 45/45/2 44/44/2 43/43/2 42/42/2 41/41/2 40/40/2 39/39/2 38/38/2 37/37/2 36/36/2 35/35/2 34/34/2 33/33/2 32/32/2 82/82/2 83/83/2 84/84/2 85/85/2 86/86/2 87/87/2 88/88/2 89/89/2 90/90/2 91/91/2 92/92/2 93/93/2 94/94/2 95/95/2 96/96/2 97/97/2 

usemtl Teddy_BookJacket
v -55.2008 96.7176 60.0074
vt -6.87158 38.0778
vn -0.200106 -7.88721e-13 0.979774
v -55.2008 96.5564 60.0074
vt -6.87158 38.0143
v -55.0824 96.405 60.0316
vt -6.824 37.9547
v -53.4762 96.0315 60.3596
vt -6.17861 37.8077
v -54.8548 96.6315 60.0781
vt -6.73253 38.0439
v -55.0945 97.0109 60.0291
vt -6.82888 38.1933
f 98/98/3 99/99/3 100/100/3 101/101/3 50/50/3 49/49/3 102/102/3 103/103/3 

usemtl Teddy_Dress
vn -0.200106 -4.32363e-16 0.979774
f 101/101/4 51/51/4 50/50/4

v -53.282 92.6552 60.3993
vt -6.10057 36.4784
f 104/104/4 51/51/4 101/101/4

f 104/104/4 52/52/4 51/51/4

v -53.3115 91.902 60.3933
vt -6.11239 36.1819
f 105/105/4 52/52/4 104/104/4

f 105/105/4 53/53/4 52/52/4

f 105/105/4 54/54/4 53/53/4

v -53.3329 91.0693 60.3889
vt -6.12099 35.8541
f 106/106/4 54/54/4 105/105/4

f 106/106/4 55/55/4 54/54/4

f 106/106/4 56/56/4 55/55/4

f 106/106/4 57/57/4 56/56/4

f 106/106/4 58/58/4 57/57/4

v -53.3454 90.2364 60.3863
vt -6.12602 35.5262
f 107/107/4 58/58/4 106/106/4

f 58/58/4 107/107/4 59/59/4

v -44.4436 90.1319 62.2044
vt -2.54904 35.485
f 107/107/4 108/108/4 59/59/4

v -16.596 89.803 67.8919
vt 8.6409 35.3555
f 107/107/4 109/109/4 108/108/4

v -53.349 89.4035 60.3856
vt -6.12747 35.1982
f 110/110/4 109/109/4 107/107/4

v -16.6455 89.3203 67.8818
vt 8.62101 35.1655
f 110/110/4 111/111/4 109/109/4

v -16.6968 88.6731 67.8713
vt 8.60042 34.9107
f 110/110/4 112/112/4 111/111/4

v -53.3437 88.5705 60.3867
vt -6.12534 34.8703
f 113/113/4 112/112/4 110/110/4

v -16.7703 88.0104 67.8563
vt 8.57086 34.6498
f 113/113/4 114/114/4 112/112/4

v -53.3335 87.9692 60.3888
vt -6.12123 34.6336
f 115/115/4 114/114/4 113/113/4

v -53.3295 87.7377 60.3896
vt -6.11964 34.5424
f 116/116/4 114/114/4 115/115/4

v -16.8173 87.3614 67.8467
vt 8.552 34.3943
f 116/116/4 117/117/4 114/114/4

v -53.3064 86.9051 60.3943
vt -6.11037 34.2146
f 118/118/4 117/117/4 116/116/4

v -16.8637 86.7516 67.8372
vt 8.53336 34.1542
f 118/118/4 119/119/4 117/117/4

v -16.9147 86.1979 67.8268
vt 8.51286 33.9362
f 118/118/4 120/120/4 119/119/4

v -53.2744 86.0727 60.4008
vt -6.09752 33.8869
f 121/121/4 120/120/4 118/118/4

v -16.9681 85.6468 67.8159
vt 8.49138 33.7192
f 121/121/4 122/122/4 120/120/4

v -53.2336 85.2408 60.4092
vt -6.0811 33.5594
f 123/123/4 122/122/4 121/121/4

v -17.0045 85.0939 67.8085
vt 8.47675 33.5016
f 123/123/4 124/124/4 122/122/4

v -17.0993 84.5445 67.7891
vt 8.43868 33.2852
f 123/123/4 125/125/4 124/124/4

v -53.1838 84.4094 60.4193
vt -6.0611 33.232
f 126/126/4 125/125/4 123/123/4

v -17.1944 84.0207 67.7697
vt 8.40047 33.079
f 126/126/4 127/127/4 125/125/4

v -53.1252 83.5786 60.4313
vt -6.03754 32.905
f 128/128/4 127/127/4 126/126/4

v -17.2739 83.4473 67.7535
vt 8.36851 32.8533
f 128/128/4 129/129/4 127/127/4

v -17.4073 82.9061 67.7262
vt 8.31492 32.6402
f 128/128/4 130/130/4 129/129/4

v -53.0577 82.7485 60.4451
vt -6.01042 32.5781
f 131/131/4 130/130/4 128/128/4

v -17.5216 82.4108 67.7029
vt 8.26896 32.4452
f 131/131/4 132/132/4 130/130/4

v -52.9813 81.9191 60.4607
vt -5.97973 32.2516
f 133/133/4 132/132/4 131/131/4

v -17.6638 81.8642 67.6738
vt 8.21183 32.23
f 133/133/4 134/134/4 132/132/4

v -17.8104 81.3213 67.6439
vt 8.15292 32.0163
f 133/133/4 135/135/4 134/134/4

v -52.8961 81.0907 60.4781
vt -5.94549 31.9255
f 136/136/4 135/135/4 133/133/4

v -17.979 80.782 67.6094
vt 8.08517 31.8039
f 136/136/4 137/137/4 135/135/4

v -18.1229 80.2729 67.5801
vt 8.02735 31.6035
f 136/136/4 138/138/4 137/137/4

v -52.802 80.2633 60.4973
vt -5.90769 31.5997
f 139/139/4 138/138/4 136/136/4

v -18.2915 79.7641 67.5456
vt 7.95962 31.4032
f 139/139/4 140/140/4 138/138/4

v -52.6991 79.437 60.5183
vt -5.86634 31.2744
f 141/141/4 140/140/4 139/139/4

v -18.433 79.2301 67.5167
vt 7.90276 31.193
f 141/141/4 142/142/4 140/140/4

v -18.5771 78.7448 67.4873
vt 7.84485 31.0019
f 141/141/4 143/143/4 142/142/4

v -52.5874 78.6119 60.5411
vt -5.82145 30.9496
f 144/144/4 143/143/4 141/141/4

v -18.7472 78.265 67.4526
vt 7.77651 30.813
f 144/144/4 145/145/4 143/143/4

v -52.4669 77.788 60.5658
vt -5.77301 30.6252
f 146/146/4 145/145/4 144/144/4

v -18.8877 77.708 67.4239
vt 7.72005 30.5937
f 146/146/4 147/147/4 145/145/4

v -19.2478 77.4963 67.3503
vt 7.57533 30.5103
f 146/146/4 148/148/4 147/147/4

v -52.3376 76.9656 60.5922
vt -5.72105 30.3014
f 149/149/4 148/148/4 146/146/4

v -52.1994 76.1446 60.6204
vt -5.66555 29.9782
f 150/150/4 148/148/4 149/149/4

v -52.0526 75.3253 60.6504
vt -5.60654 29.6556
f 151/151/4 148/148/4 150/150/4

v -51.897 74.5076 60.6821
vt -5.54401 29.3337
f 152/152/4 148/148/4 151/151/4

v -51.7326 73.6917 60.7157
vt -5.47798 29.0125
f 153/153/4 148/148/4 152/152/4

v -51.5596 72.8776 60.7511
vt -5.40844 28.692
f 154/154/4 148/148/4 153/153/4

v -24.2159 69.3666 66.3356
vt 5.57902 27.3097
f 154/154/4 155/155/4 148/148/4

v -22.5613 68.79 66.6736
vt 6.24387 27.0827
f 154/154/4 156/156/4 155/155/4

v -25.8271 65.1821 66.0066
vt 4.93161 25.6622
f 154/154/4 157/157/4 156/156/4

v -28.3011 62.4489 65.5013
vt 3.93748 24.5862
f 154/154/4 158/158/4 157/157/4

v -28.1939 60.9644 65.5232
vt 3.98057 24.0017
f 154/154/4 159/159/4 158/158/4

v -48.9093 60.7302 61.2923
vt -4.34349 23.9095
f 160/160/4 159/159/4 154/154/4

v -26.8277 59.6228 65.8022
vt 4.52953 23.4736
f 160/160/4 161/161/4 159/159/4

v -21.6803 58.8922 66.8535
vt 6.5979 23.1859
f 160/160/4 162/162/4 161/161/4

v -21.7483 58.5636 66.8396
vt 6.57057 23.0565
f 160/160/4 163/163/4 162/162/4

v -48.5781 57.8539 61.36
vt -4.21041 22.7771
f 164/164/4 163/163/4 160/160/4

v -21.839 57.314 66.8211
vt 6.53412 22.5646
f 164/164/4 165/165/4 163/163/4

v -21.7937 56.157 66.8304
vt 6.55235 22.109
f 164/164/4 166/166/4 165/165/4

v -21.7456 55.1114 66.8402
vt 6.57166 21.6974
f 164/164/4 167/167/4 166/166/4

v -21.8653 54.8982 66.8157
vt 6.52356 21.6135
f 164/164/4 168/168/4 167/167/4

v -26.8606 54.1582 65.7955
vt 4.5163 21.3221
f 164/164/4 169/169/4 168/168/4

v -48.828 53.8845 61.3089
vt -4.31083 21.2144
f 170/170/4 169/169/4 164/164/4

v -49.2239 53.2418 61.2281
vt -4.46991 20.9613
f 171/171/4 169/169/4 170/170/4

v -33.9606 53.1065 64.3454
vt 1.66333 20.9081
f 171/171/4 172/172/4 169/169/4

v -35.1725 52.9269 64.0979
vt 1.17633 20.8374
f 171/171/4 173/173/4 172/172/4

v -35.4031 52.9039 64.0508
vt 1.08369 20.8283
f 171/171/4 174/174/4 173/173/4

v -48.5729 52.2449 61.361
vt -4.2083 20.5689
f 175/175/4 174/174/4 171/171/4

v -46.7941 52.1798 61.7243
vt -3.49354 20.5432
f 176/176/4 174/174/4 175/175/4

v -43.7539 52.0685 62.3453
vt -2.2719 20.4994
f 174/174/4 176/176/4 177/177/4

usemtl Teddy_Skin_
v -49.0616 44.6902 61.2612
vt -4.40468 17.5946
vn -0.200106 -1.74896e-15 0.979774
v -49.0436 44.1284 61.2649
vt -4.39744 17.3734
v -48.9982 43.5683 61.2742
vt -4.37921 17.1529
v -48.9257 43.0111 61.289
vt -4.35006 16.9335
v -48.8261 42.4582 61.3093
vt -4.31004 16.7158
v -48.6997 41.9112 61.3351
vt -4.25926 16.5005
v -48.5468 41.3711 61.3664
vt -4.19784 16.2879
v -48.131 39.5682 61.4513
vt -4.03076 15.578
v -46.9467 33.2113 61.6932
vt -3.55485 13.0753
v -45.7623 26.8543 61.9351
vt -3.07894 10.5726
v -45.7518 20.4428 61.9372
vt -3.07471 8.04835
v -46.3935 13.4359 61.8062
vt -3.33257 5.28973
v -46.5579 9.94191 61.7726
vt -3.39861 3.91414
v -46.598 9.08877 61.7644
vt -3.41473 3.57826
v -46.6098 7.78602 61.762
vt -3.41948 3.06536
v -46.5344 7.29284 61.7774
vt -3.38916 2.8712
v -46.3875 6.81493 61.8074
vt -3.33016 2.68304
v -46.1723 6.36187 61.8513
vt -3.24367 2.50467
v -45.8929 5.94277 61.9084
vt -3.13143 2.33967
v -45.5551 5.56604 61.9774
vt -2.99568 2.19135
v -45.1818 5.205 62.0536
vt -2.84568 2.04921
v -43.8904 4.62118 62.3174
vt -2.32676 1.81936
v -42.4704 4.49834 62.6074
vt -1.75616 1.771
v -41.0923 4.85123 62.8889
vt -1.20238 1.90993
v -39.9215 5.63749 63.128
vt -0.731911 2.21948
v -39.3421 6.42972 63.2463
vt -0.499092 2.53139
v -39.0985 6.76272 63.2961
vt -0.401234 2.66249
v -38.9817 7.03636 63.3199
vt -0.354297 2.77022
v -39.2958 9.25085 63.2558
vt -0.480509 3.64207
v -39.2724 14.1032 63.2605
vt -0.471122 5.55244
v -39.8331 18.7238 63.146
vt -0.696428 7.37156
v -40.3615 23.0776 63.0381
vt -0.90873 9.08568
v -40.4979 27.8157 63.0103
vt -0.963561 10.9511
v -39.8899 31.2652 63.1344
vt -0.719231 12.3091
v -37.9942 36.356 63.5216
vt 0.0425127 14.3134
v -37.8432 36.8258 63.5525
vt 0.103201 14.4984
v -37.7027 37.299 63.5812
vt 0.159663 14.6847
v -37.5727 37.7754 63.6077
vt 0.211871 14.8722
v -37.4535 38.2546 63.632
vt 0.259798 15.0609
v -37.3449 38.7365 63.6542
vt 0.303418 15.2506
v -37.2471 39.2208 63.6742
vt 0.342709 15.4413
v -37.1602 39.7072 63.6919
vt 0.37765 15.6328
v -37.0841 40.1956 63.7075
vt 0.408225 15.825
v -37.0189 40.6855 63.7208
vt 0.434416 16.0179
v -36.9647 41.1769 63.7319
vt 0.45621 16.2114
v -36.9214 41.6694 63.7407
vt 0.473596 16.4053
v -36.8891 42.1627 63.7473
vt 0.486565 16.5995
v -36.5594 48.2425 63.8146
vt 0.619039 18.9931
v -35.836 52.0404 63.9624
vt 0.909728 20.4883
v -35.6799 52.3518 63.9943
vt 0.972459 20.6109
v -48.3872 48.3331 61.399
vt -4.1337 19.0288
v -48.9517 46.3713 61.2837
vt -4.3605 18.2564
v -49.0156 45.8131 61.2706
vt -4.38619 18.0366
v -49.0523 45.2522 61.2631
vt -4.40093 17.8158
f 178/178/5 179/179/5 180/180/5 181/181/5 182/182/5 183/183/5 184/184/5 185/185/5 186/186/5 187/187/5 188/188/5 189/189/5 190/190/5 191/191/5 192/192/5 193/193/5 194/194/5 195/195/5 196/196/5 197/197/5 198/198/5 199/199/5 200/200/5 201/201/5 202/202/5 203/203/5 204/204/5 205/205/5 206/206/5 207/207/5 208/208/5 209/209/5 210/210/5 211/211/5 212/212/5 213/213/5 214/214/5 215/215/5 216/216/5 217/217/5 218/218/5 219/219/5 220/220/5 221/221/5 222/222/5 223/223/5 224/224/5 225/225/5 226/226/5 227/227/5 174/174/5 177/177/5 176/176/5 228/228/5 229/229/5 230/230/5 231/231/5 

usemtl Teddy_Shoes
v -47.3244 9.88061 61.616
vt -3.70662 3.89
vn -0.200106 -3.57574e-14 0.979774
v -47.3784 9.13378 61.605
vt -3.72831 3.59598
v -47.3939 8.38528 61.6018
vt -3.73454 3.30129
v -47.3477 6.97827 61.6113
vt -3.71597 2.74735
v -47.2233 5.5757 61.6367
vt -3.666 2.19516
v -47.0894 4.70433 61.664
vt -3.61218 1.8521
v -47.0472 4.48361 61.6726
vt -3.59524 1.7652
v -47.0245 4.36483 61.6773
vt -3.58612 1.71844
v -46.8989 4.0661 61.7029
vt -3.53566 1.60083
v -46.6183 3.39845 61.7603
vt -3.42288 1.33797
v -46.4901 3.09353 61.7864
vt -3.37137 1.21793
v -45.701 1.95277 61.9476
vt -3.05429 0.768807
v -44.6898 0.989562 62.1541
vt -2.64795 0.389591
v -44.0939 0.616588 62.2758
vt -2.40853 0.242751
v -43.5945 0.351051 62.3778
vt -2.20783 0.138209
v -43.0608 0.157374 62.4868
vt -1.99338 0.0619581
v -42.5039 0.0395472 62.6006
vt -1.76962 0.0155697
v -41.9354 0 62.7167
vt -1.54115 -2.847e-27
v -41.3668 0.0395472 62.8328
vt -1.31268 0.0155697
v -40.8099 0.157374 62.9465
vt -1.08892 0.0619581
v -40.4158 0.300419 63.027
vt -0.93054 0.118275
v -40.2763 0.351051 63.0555
vt -0.874479 0.138209
v -39.7768 0.616588 63.1575
vt -0.673777 0.242751
v -39.4357 0.955262 63.2272
vt -0.536708 0.376087
v -38.832 1.86165 63.3505
vt -0.294119 0.732934
v -38.638 2.34208 63.3901
vt -0.216188 0.92208
v -38.4266 2.86589 63.4333
vt -0.131221 1.1283
v -38.2357 3.92795 63.4723
vt -0.0545093 1.54644
v -38.248 4.35386 63.4698
vt -0.0594622 1.71412
v -38.3565 4.65511 63.4476
vt -0.10305 1.83272
v -38.5068 5.24414 63.4169
vt -0.163464 2.06462
v -38.5999 5.84412 63.3979
vt -0.200866 2.30083
v -38.8102 6.43445 63.355
vt -0.285362 2.53325
v -46.7278 12.8145 61.7379
vt -3.46691 5.04507
v -46.9334 12.0927 61.6959
vt -3.54952 4.7609
v -47.1017 11.3619 61.6615
vt -3.61712 4.47318
v -47.2321 10.6239 61.6349
vt -3.66953 4.18265
f 232/232/6 233/233/6 234/234/6 235/235/6 236/236/6 237/237/6 238/238/6 239/239/6 240/240/6 241/241/6 242/242/6 243/243/6 244/244/6 245/245/6 246/246/6 247/247/6 248/248/6 249/249/6 250/250/6 251/251/6 252/252/6 253/253/6 254/254/6 255/255/6 256/256/6 257/257/6 258/258/6 259/259/6 260/260/6 261/261/6 262/262/6 263/263/6 264/264/6 205/205/6 204/204/6 203/203/6 202/202/6 201/201/6 200/200/6 199/199/6 198/198/6 197/197/6 196/196/6 195/195/6 194/194/6 193/193/6 192/192/6 191/191/6 190/190/6 189/189/6 265/265/6 266/266/6 267/267/6 268/268/6 

v -30.619 6.90916 65.0279
vt 3.00606 2.72014
vn -0.200106 -5.46912e-15 0.979774
v -30.7886 7.26471 64.9933
vt 2.93793 2.86012
v -31.1672 6.68665 64.9159
vt 2.78581 2.63254
v -32.3139 5.94207 64.6817
vt 2.32501 2.3394
v -33.6132 5.48812 64.4164
vt 1.80292 2.16068
v -34.9877 5.35184 64.1357
vt 1.25062 2.10702
v -36.3555 5.54133 63.8563
vt 0.700998 2.18163
v -37.6352 6.04532 63.5949
vt 0.186765 2.38005
v -37.9053 6.23623 63.5398
vt 0.0782395 2.45521
v -38.7585 6.83517 63.3655
vt -0.264599 2.69101
v -37.9561 1.84278 63.5294
vt 0.0578164 0.725504
v -37.2112 1.44831 63.6815
vt 0.357152 0.570201
v -36.4186 1.16681 63.8434
vt 0.675646 0.459376
v -35.5946 1.00409 64.0117
vt 1.00673 0.395312
v -34.7563 0.963505 64.1829
vt 1.34358 0.379333
v -33.921 1.04589 64.3535
vt 1.67924 0.411766
v -33.1058 1.24954 64.52
vt 2.00679 0.491943
v -32.3277 1.57026 64.6789
vt 2.31949 0.618211
v -31.6025 2.00143 64.827
vt 2.61087 0.787966
v -30.9454 2.53418 64.9612
vt 2.87493 0.997707
v -30.3697 3.1575 65.0788
vt 3.10623 1.24311
v -30.1286 3.50802 65.128
vt 3.20311 1.38111
v -29.8491 4.21684 65.1851
vt 3.31543 1.66017
v -29.9271 4.66328 65.1692
vt 3.28409 1.83594
v -30.0027 5.04791 65.1538
vt 3.25374 1.98737
v -30.0298 5.16068 65.1482
vt 3.24284 2.03176
v -30.0944 5.42925 65.135
vt 3.21689 2.1375
v -30.202 5.80667 65.1131
vt 3.17363 2.28609
v -30.3255 6.17953 65.0878
vt 3.12401 2.43289
v -30.4646 6.54724 65.0594
vt 3.06813 2.57765
f 269/269/7 270/270/7 271/271/7 272/272/7 273/273/7 274/274/7 275/275/7 276/276/7 277/277/7 278/278/7 205/205/7 264/264/7 263/263/7 262/262/7 261/261/7 260/260/7 259/259/7 258/258/7 257/257/7 279/279/7 280/280/7 281/281/7 282/282/7 283/283/7 284/284/7 285/285/7 286/286/7 287/287/7 288/288/7 289/289/7 290/290/7 291/291/7 292/292/7 293/293/7 294/294/7 295/295/7 296/296/7 297/297/7 298/298/7 

usemtl Teddy_Skin_
vn -0.200106 -1.02626e-14 0.979774
v -35.2752 52.2987 64.0769
vt 1.13508 20.59
v -35.8588 48.9275 63.9577
vt 0.900588 19.2628
v -36.1343 45.8144 63.9015
vt 0.789871 18.0372
v -36.5026 42.7113 63.8262
vt 0.64187 16.8155
v -37.823 33.5109 63.5566
vt 0.111286 13.1932
v -37.8985 32.375 63.5411
vt 0.0809494 12.7461
v -38.2117 27.6644 63.4772
vt -0.0448714 10.8915
v -39.7239 20.2311 63.1683
vt -0.652515 7.96499
v -30.973 7.61329 64.9556
vt 2.86383 2.99736
v -31.1719 7.95433 64.915
vt 2.7839 3.13163
v -31.385 8.28726 64.8714
vt 2.69826 3.2627
v -31.612 8.61153 64.8251
vt 2.60706 3.39037
v -31.8524 8.9266 64.776
vt 2.51044 3.51441
v -33.2368 13.3556 64.4933
vt 1.95418 5.2581
v -33.5459 19.4979 64.4301
vt 1.82997 7.67634
v -32.4695 24.4501 64.65
vt 2.26249 9.62602
v -29.1594 34.1496 65.326
vt 3.5926 13.4447
v -27.5188 40.6733 65.6611
vt 4.25182 16.0131
v -26.7576 45.8913 65.8165
vt 4.55771 18.0674
v -26.6301 48.3331 65.8426
vt 4.60891 19.0288
v -26.8499 53.7487 65.7977
vt 4.52059 21.1609
f 172/172/8 173/173/8 299/299/8 300/300/8 301/301/8 302/302/8 218/218/8 217/217/8 216/216/8 215/215/8 214/214/8 213/213/8 212/212/8 303/303/8 304/304/8 305/305/8 306/306/8 208/208/8 207/207/8 206/206/8 205/205/8 278/278/8 277/277/8 276/276/8 275/275/8 274/274/8 273/273/8 272/272/8 271/271/8 270/270/8 307/307/8 308/308/8 309/309/8 310/310/8 311/311/8 312/312/8 313/313/8 314/314/8 315/315/8 316/316/8 317/317/8 318/318/8 319/319/8 169/169/8 

usemtl Teddy_SkinShadow_
vn -0.200106 -1.01631e-15 0.979774
f 219/219/9 218/218/9 302/302/9 301/301/9 300/300/9 299/299/9 173/173/9 174/174/9 227/227/9 226/226/9 225/225/9 224/224/9 223/223/9 222/222/9 221/221/9 220/220/9 

usemtl Teddy_Dress
v -21.4078 61.564 66.9092
vt 6.70741 24.2378
f 320/320/4 161/161/4 162/162/4

v -25.4659 61.3701 66.0803
vt 5.07672 24.1615
f 161/161/4 320/320/4 321/321/4

v -24.089 63.9944 66.3616
vt 5.63 25.1947
f 321/321/4 320/320/4 322/322/4

v -21.3578 62.0777 66.9194
vt 6.72747 24.44
f 322/322/4 320/320/4 323/323/4

v -21.3353 62.5932 66.924
vt 6.73654 24.643
f 322/322/4 323/323/4 324/324/4

v -21.2933 63.1588 66.9325
vt 6.75339 24.8657
f 322/322/4 324/324/4 325/325/4

v -21.2505 63.6803 66.9413
vt 6.77061 25.071
f 322/322/4 325/325/4 326/326/4

v -21.2083 64.2537 66.9499
vt 6.78758 25.2967
f 322/322/4 326/326/4 327/327/4

v -22.8976 66.0421 66.6049
vt 6.10876 26.0008
f 322/322/4 327/327/4 328/328/4

v -21.1641 64.8103 66.9589
vt 6.80531 25.5159
f 328/328/4 327/327/4 329/329/4

v -21.1196 65.3643 66.968
vt 6.82321 25.734
f 328/328/4 329/329/4 330/330/4

v -21.0748 65.8936 66.9772
vt 6.84119 25.9424
f 328/328/4 330/330/4 331/331/4

v -21.0298 66.5548 66.9864
vt 6.85928 26.2027
f 328/328/4 331/331/4 332/332/4

v -21.5363 67.9763 66.8829
vt 6.65578 26.7623
f 328/328/4 332/332/4 333/333/4

v -20.9575 67.1008 67.0011
vt 6.88835 26.4176
f 333/333/4 332/332/4 334/334/4

v -20.9068 67.6345 67.0115
vt 6.90871 26.6278
f 333/333/4 334/334/4 335/335/4

v -20.8577 68.1952 67.0215
vt 6.92843 26.8485
f 333/333/4 335/335/4 336/336/4

v -20.7287 69.4241 67.0479
vt 6.98027 27.3323
f 333/333/4 336/336/4 337/337/4

v -20.7812 68.8041 67.0371
vt 6.95918 27.0882
f 337/337/4 336/336/4 338/338/4

v -20.4845 71.1838 67.0977
vt 7.07841 28.0251
f 333/333/4 337/337/4 339/339/4

v -20.6513 69.9427 67.0637
vt 7.0114 27.5365
f 339/339/4 337/337/4 340/340/4

v -20.5684 70.5581 67.0806
vt 7.04467 27.7788
f 339/339/4 340/340/4 341/341/4

v -20.3972 71.7278 67.1156
vt 7.11347 28.2393
f 333/333/4 339/339/4 342/342/4

v -20.3087 72.2661 67.1336
vt 7.14904 28.4512
f 333/333/4 342/342/4 343/343/4

usemtl Teddy_DressDepth
vn -0.200106 2.02092e-14 0.979774
f 333/333/10 343/343/10 156/156/10 157/157/10 158/158/10 159/159/10 161/161/10 321/321/10 322/322/10 328/328/10 

usemtl Teddy_Dress
f 343/343/4 155/155/4 156/156/4

v -20.9103 73.0018 67.0108
vt 6.9073 28.7409
f 155/155/4 343/343/4 344/344/4

v -20.1922 72.7684 67.1574
vt 7.19584 28.649
f 344/344/4 343/343/4 345/345/4

v -20.0698 73.2826 67.1824
vt 7.24506 28.8514
f 344/344/4 345/345/4 346/346/4

f 344/344/4 346/346/4 148/148/4

v -19.9159 73.8227 67.2139
vt 7.30687 29.0641
f 148/148/4 346/346/4 347/347/4

v -19.7797 74.3934 67.2417
vt 7.36163 29.2887
f 148/148/4 347/347/4 348/348/4

v -19.6159 74.9462 67.2751
vt 7.42741 29.5064
f 148/148/4 348/348/4 349/349/4

v -19.4726 75.501 67.3044
vt 7.48502 29.7248
f 148/148/4 349/349/4 350/350/4

v -19.3323 76.0298 67.3331
vt 7.5414 29.933
f 148/148/4 350/350/4 351/351/4

v -19.2191 76.524 67.3562
vt 7.58688 30.1276
f 148/148/4 351/351/4 352/352/4

v -19.0321 77.1477 67.3944
vt 7.66203 30.3731
f 148/148/4 352/352/4 353/353/4

f 148/148/4 353/353/4 147/147/4

usemtl Teddy_DressDepth
vn -0.200106 3.75026e-14 0.979774
f 148/148/11 155/155/11 344/344/11

usemtl Teddy_Dress
v -16.5736 90.3638 67.8965
vt 8.64989 35.5763
f 354/354/4 108/108/4 109/109/4

v -42.6948 90.1974 62.5616
vt -1.8463 35.5108
f 108/108/4 354/354/4 355/355/4

v -42.3178 90.6517 62.6386
vt -1.69482 35.6897
f 355/355/4 354/354/4 356/356/4

v -16.5591 90.9222 67.8994
vt 8.65574 35.7961
f 356/356/4 354/354/4 357/357/4

v -41.443 90.6727 62.8172
vt -1.34332 35.6979
f 356/356/4 357/357/4 358/358/4

f 358/358/4 357/357/4 73/73/4

v -16.549 91.527 67.9015
vt 8.6598 36.0342
f 359/359/4 73/73/4 357/357/4

f 73/73/4 359/359/4 74/74/4

v -16.5433 92.1208 67.9027
vt 8.66209 36.268
f 74/74/4 359/359/4 360/360/4

v -36.2159 92.2037 63.8848
vt 0.757084 36.3007
f 74/74/4 360/360/4 361/361/4

v -16.5397 92.6891 67.9034
vt 8.66354 36.4918
f 362/362/4 361/361/4 360/360/4

v -35.2399 92.5024 64.0841
vt 1.14926 36.4183
f 361/361/4 362/362/4 363/363/4

f 363/363/4 362/362/4 20/20/4

v -16.5646 93.2836 67.8983
vt 8.65354 36.7258
f 20/20/4 362/362/4 364/364/4

v -16.5686 93.852 67.8975
vt 8.65191 36.9496
f 20/20/4 364/364/4 365/365/4

v -16.5988 94.3874 67.8913
vt 8.6398 37.1604
f 20/20/4 365/365/4 366/366/4

v -16.6349 95.0273 67.884
vt 8.62528 37.4123
f 20/20/4 366/366/4 367/367/4

v -16.6728 95.5711 67.8762
vt 8.61007 37.6264
f 20/20/4 367/367/4 368/368/4

v -16.687 96.1028 67.8733
vt 8.60436 37.8358
f 20/20/4 368/368/4 369/369/4

v -16.6972 96.7441 67.8712
vt 8.60025 38.0882
f 20/20/4 369/369/4 370/370/4

v -16.7044 97.2576 67.8698
vt 8.59733 38.2904
f 20/20/4 370/370/4 371/371/4

v -16.7083 97.783 67.869
vt 8.59577 38.4972
f 20/20/4 371/371/4 372/372/4

v -16.7381 98.3646 67.8629
vt 8.58382 38.7262
f 20/20/4 372/372/4 373/373/4

v -16.7451 98.9458 67.8615
vt 8.58098 38.955
f 20/20/4 373/373/4 374/374/4

v -17.2705 102.132 67.7542
vt 8.3699 40.2096
f 20/20/4 374/374/4 375/375/4

v -17.3449 102.521 67.739
vt 8.33996 40.3628
f 20/20/4 375/375/4 376/376/4

v -17.8924 105.337 67.6271
vt 8.11996 41.4711
f 20/20/4 376/376/4 377/377/4

v -17.9957 105.392 67.606
vt 8.07848 41.4929
f 20/20/4 377/377/4 378/378/4

usemtl Teddy_Skin_
v -20.3279 111.36 67.1297
vt 7.14133 43.8424
vn -0.200106 -1.07191e-15 0.979774
v -20.2081 111.22 67.1542
vt 7.18945 43.7872
v -19.9487 109.734 67.2072
vt 7.29369 43.2025
v -19.9183 109.573 67.2134
vt 7.3059 43.1391
v -20.0327 109.487 67.19
vt 7.25996 43.1052
v -20.5037 109.495 67.0938
vt 7.0707 43.1081
v -21.5635 109.493 66.8774
vt 6.64482 43.1077
v -22.8589 109.5 66.6128
vt 6.12431 43.1104
v -23.0921 109.467 66.5652
vt 6.03059 43.0973
v -23.3683 109.242 66.5088
vt 5.91962 43.0088
v -23.323 108.885 66.518
vt 5.93781 42.868
v -23.091 108.613 66.5654
vt 6.03102 42.7609
v -22.6713 108.395 66.6511
vt 6.1997 42.675
v -22.3201 108.355 66.7228
vt 6.34082 42.6596
v -21.9689 108.316 66.7946
vt 6.48193 42.6441
v -20.9093 108.291 67.011
vt 6.90769 42.6341
v -20.214 108.163 67.153
vt 7.1871 42.5837
v -19.7118 107.655 67.2555
vt 7.38888 42.3839
v -19.3639 107.331 67.3266
vt 7.52867 42.2563
v -19.0293 106.696 67.3949
vt 7.66313 42.0063
v -18.7778 106.153 67.4463
vt 7.76421 41.7923
v -18.3 105.575 67.5439
vt 7.9562 41.565
v -17.683 105.224 67.6699
vt 8.20414 41.4268
v -17.4596 105.148 67.7155
vt 8.2939 41.3968
v -16.989 105.127 67.8117
vt 8.483 41.3886
v -16.5207 105.179 67.9073
vt 8.67117 41.4091
v -15.85 105.406 68.0443
vt 8.94069 41.4984
v -16.528 108.359 67.9058
vt 8.66824 42.6609
v -16.7087 108.765 67.8689
vt 8.59563 42.821
v -17.1356 109.369 67.7817
vt 8.42408 43.0585
v -17.7891 110.66 67.6482
vt 8.16149 43.5669
v -18.7107 112.152 67.46
vt 7.79115 44.1544
v -19.246 112.908 67.3507
vt 7.57606 44.4522
v -19.7916 113.631 67.2393
vt 7.35685 44.7365
v -20.0411 113.967 67.1883
vt 7.25656 44.8687
v -20.1868 114.125 67.1585
vt 7.19804 44.9309
v -20.7596 114.504 67.0416
vt 6.96786 45.0803
v -21.5518 114.841 66.8798
vt 6.64954 45.2128
v -22.0182 114.908 66.7845
vt 6.46212 45.2393
v -23.0664 115.068 66.5704
vt 6.04093 45.3023
v -23.4145 115.007 66.4993
vt 5.90103 45.2782
v -23.735 114.654 66.4339
vt 5.77227 45.1394
v -23.7289 114.231 66.4351
vt 5.77472 44.9729
v -23.5703 114.052 66.4675
vt 5.83844 44.9023
v -23.274 113.855 66.528
vt 5.95749 44.825
v -22.694 113.752 66.6465
vt 6.19054 44.7841
v -21.7806 113.587 66.833
vt 6.55758 44.7191
v -21.4341 113.501 66.9038
vt 6.69681 44.6855
v -20.6335 113.258 67.0673
vt 7.01852 44.5898
v -20.2778 112.902 67.1399
vt 7.16145 44.4497
f 379/379/12 380/380/12 381/381/12 382/382/12 383/383/12 384/384/12 385/385/12 386/386/12 387/387/12 388/388/12 389/389/12 390/390/12 391/391/12 392/392/12 393/393/12 394/394/12 395/395/12 396/396/12 397/397/12 398/398/12 399/399/12 400/400/12 378/378/12 377/377/12 401/401/12 402/402/12 403/403/12 404/404/12 405/405/12 406/406/12 407/407/12 408/408/12 409/409/12 410/410/12 411/411/12 412/412/12 413/413/12 414/414/12 415/415/12 416/416/12 417/417/12 418/418/12 419/419/12 420/420/12 421/421/12 422/422/12 423/423/12 424/424/12 425/425/12 426/426/12 427/427/12 428/428/12 

usemtl Teddy_SkinShadow_
vn -0.200106 1.34684e-13 0.979774
vn -0.200106 6.81939e-14 0.979774
v -20.7365 111.599 67.0463
vt 6.97714 43.9366
v -21.4165 111.795 66.9074
vt 6.70389 44.0137
v -21.8818 111.87 66.8124
vt 6.51692 44.0432
v -22.5882 111.887 66.6681
vt 6.23308 44.0499
v -21.8692 111.763 66.8149
vt 6.52199 44.0011
v -21.2988 111.638 66.9314
vt 6.75119 43.952
v -20.8802 111.508 67.0169
vt 6.91939 43.9009
f 380/380/13 379/379/14 429/429/14 430/430/14 431/431/14 432/432/14 433/433/13 434/434/13 435/435/13 

usemtl Teddy_Skin_
vn -0.200106 1.70371e-15 0.979774
v -20.5736 113.122 67.0795
vt 7.04259 44.5364
v -21.1652 113.266 66.9587
vt 6.80486 44.5929
v -22.1045 113.269 66.7669
vt 6.42746 44.5942
v -22.9522 113.271 66.5937
vt 6.08682 44.5951
v -23.9806 113.204 66.3837
vt 5.67355 44.5685
v -24.6856 113.155 66.2397
vt 5.39029 44.5491
v -25.1366 113.016 66.1476
vt 5.20908 44.4945
v -25.3134 112.704 66.1115
vt 5.13803 44.3716
v -25.2954 112.344 66.1152
vt 5.14525 44.2298
v -25.041 112.093 66.1671
vt 5.24747 44.1313
v -24.7046 111.983 66.2358
vt 5.38266 44.088
v -24.2924 111.979 66.32
vt 5.54827 44.0861
v -23.7345 111.974 66.434
vt 5.77247 44.0842
v -23.2919 111.952 66.5244
vt 5.95032 44.0755
f 429/429/14 379/379/14 428/428/15 436/436/15 437/437/15 438/438/15 439/439/15 440/440/15 441/441/15 442/442/15 443/443/15 444/444/15 445/445/15 446/446/15 447/447/15 448/448/15 449/449/15 432/432/14 431/431/14 430/430/14 

usemtl Teddy_SkinShadow_
vn -0.200106 -1.05863e-13 0.979774
f 437/437/16 436/436/16 428/428/16 427/427/16 426/426/16 

usemtl Teddy_Dress
f 426/426/4 438/438/4 437/437/4

f 438/438/4 426/426/4 439/439/4

v -51.3847 114.977 60.7868
vt -5.33816 45.2667
f 450/450/4 439/439/4 426/426/4

f 450/450/4 440/440/4 439/439/4

f 450/450/4 441/441/4 440/440/4

f 450/450/4 442/442/4 441/441/4

f 450/450/4 443/443/4 442/442/4

f 450/450/4 444/444/4 443/443/4

f 450/450/4 445/445/4 444/444/4

f 450/450/4 446/446/4 445/445/4

v -24.7577 111.903 66.225
vt 5.36132 44.0564
f 450/450/4 451/451/4 446/446/4

v -24.9468 111.76 66.1864
vt 5.28534 44
f 450/450/4 452/452/4 451/451/4

f 25/25/4 452/452/4 450/450/4

f 24/24/4 452/452/4 25/25/4

v -25.0077 111.405 66.1739
vt 5.26085 43.8602
f 24/24/4 453/453/4 452/452/4

v -24.8803 111.069 66.2
vt 5.31205 43.7278
f 24/24/4 454/454/4 453/453/4

v -24.407 110.753 66.2966
vt 5.50224 43.6036
f 24/24/4 455/455/4 454/454/4

v -23.7238 110.636 66.4362
vt 5.77677 43.5575
f 24/24/4 456/456/4 455/455/4

v -22.586 110.463 66.6685
vt 6.23395 43.4894
f 24/24/4 457/457/4 456/456/4

v -21.7061 110.315 66.8482
vt 6.58752 43.431
f 24/24/4 458/458/4 457/457/4

v -21.1747 110.154 66.9568
vt 6.80107 43.3677
f 24/24/4 459/459/4 458/458/4

v -20.5055 109.948 67.0934
vt 7.06995 43.2868
f 24/24/4 460/460/4 459/459/4

v -20.3379 109.891 67.1277
vt 7.1373 43.2644
f 24/24/4 461/461/4 460/460/4

v -20.3832 109.663 67.1184
vt 7.11911 43.1744
f 24/24/4 462/462/4 461/461/4

f 23/23/4 462/462/4 24/24/4

f 386/386/4 462/462/4 23/23/4

f 386/386/4 384/384/4 462/462/4

f 384/384/4 386/386/4 385/385/4

usemtl Teddy_DressShadow
vn -0.200106 6.31873e-14 0.979774
f 462/462/17 384/384/17 383/383/17 382/382/17 381/381/17 461/461/17 

usemtl Teddy_Skin_
vn -0.200106 -8.09068e-15 0.979774
f 380/380/18 435/435/18 434/434/18 433/433/18 432/432/18 449/449/18 448/448/18 447/447/18 451/451/18 452/452/18 453/453/18 454/454/18 455/455/18 456/456/18 457/457/18 458/458/18 459/459/18 460/460/18 461/461/18 381/381/18 

usemtl Teddy_Dress
f 446/446/4 451/451/4 447/447/4

f 23/23/4 387/387/4 386/386/4

f 23/23/4 388/388/4 387/387/4

f 23/23/4 389/389/4 388/388/4

f 23/23/4 390/390/4 389/389/4

f 22/22/4 390/390/4 23/23/4

f 22/22/4 391/391/4 390/390/4

f 22/22/4 392/392/4 391/391/4

v -21.868 108.235 66.8152
vt 6.52246 42.6123
f 22/22/4 463/463/4 392/392/4

v -21.0516 108.119 66.9819
vt 6.85052 42.5665
f 22/22/4 464/464/4 463/463/4

f 21/21/4 464/464/4 22/22/4

v -20.3506 107.731 67.1251
vt 7.13221 42.4138
f 21/21/4 465/465/4 464/464/4

v -20.025 107.384 67.1916
vt 7.26305 42.277
f 21/21/4 466/466/4 465/465/4

f 20/20/4 466/466/4 21/21/4

v -19.6793 107.057 67.2622
vt 7.40197 42.1485
f 20/20/4 467/467/4 466/466/4

v -19.2368 106.506 67.3526
vt 7.57975 41.9314
f 20/20/4 468/468/4 467/467/4

v -18.9357 106.136 67.4141
vt 7.70076 41.7859
f 20/20/4 469/469/4 468/468/4

v -18.6929 105.874 67.4637
vt 7.79834 41.6828
f 20/20/4 470/470/4 469/469/4

f 20/20/4 400/400/4 470/470/4

f 20/20/4 378/378/4 400/400/4

usemtl Teddy_DressShadow
vn -0.200106 2.3386e-14 0.979774
f 392/392/19 463/463/19 464/464/19 465/465/19 466/466/19 467/467/19 468/468/19 469/469/19 470/470/19 400/400/19 399/399/19 398/398/19 397/397/19 396/396/19 395/395/19 394/394/19 393/393/19 

usemtl Teddy_Dress
f 450/450/4 426/426/4 425/425/4

f 450/450/4 425/425/4 424/424/4

f 450/450/4 424/424/4 423/423/4

f 450/450/4 423/423/4 422/422/4

f 450/450/4 422/422/4 421/421/4

f 450/450/4 421/421/4 420/420/4

f 450/450/4 420/420/4 419/419/4

v -51.3371 115.889 60.7965
vt -5.31904 45.6254
f 450/450/4 419/419/4 471/471/4

f 471/471/4 419/419/4 418/418/4

v -20.2398 117.086 67.1477
vt 7.17672 46.0968
f 418/418/4 472/472/4 471/471/4

f 417/417/4 472/472/4 418/418/4

f 416/416/4 472/472/4 417/417/4

f 415/415/4 472/472/4 416/416/4

f 472/472/4 415/415/4 414/414/4

v -51.0734 120.938 60.8503
vt -5.21309 47.6135
f 471/471/4 472/472/4 473/473/4

v -19.4716 121.845 67.3046
vt 7.4854 47.9705
f 473/473/4 472/472/4 474/474/4

v -51.3491 124.31 60.794
vt -5.32385 48.9408
f 473/473/4 474/474/4 475/475/4

v -18.9031 122.891 67.4207
vt 7.71384 48.3823
f 475/475/4 474/474/4 476/476/4

usemtl FrontColor
vn -0.200106 6.9458e-12 0.979774
v -19.2222 122.264 67.3556
vt 7.58564 48.1353
v -18.9943 122.695 67.4021
vt 7.67722 48.3051
f 474/474/20 477/477/20 478/478/20 476/476/20 

usemtl Teddy_Dress
v -18.7885 123.138 67.4441
vt 7.7599 48.4794
f 475/475/4 476/476/4 479/479/4

v -18.6055 123.591 67.4815
vt 7.83344 48.6577
f 475/475/4 479/479/4 480/480/4

v -18.4457 124.053 67.5141
vt 7.89766 48.8396
f 475/475/4 480/480/4 481/481/4

v -18.3095 124.522 67.542
vt 7.95238 49.0246
f 475/475/4 481/481/4 482/482/4

v -50.3932 127.763 60.9893
vt -4.93974 50.3004
f 475/475/4 482/482/4 483/483/4

v -18.1973 124.999 67.5649
vt 7.99745 49.2121
f 483/483/4 482/482/4 484/484/4

v -18.1095 125.48 67.5828
vt 8.03276 49.4018
f 483/483/4 484/484/4 485/485/4

v -18.0461 125.966 67.5957
vt 8.05821 49.593
f 483/483/4 485/485/4 486/486/4

v -18.0075 126.455 67.6036
vt 8.07373 49.7853
f 483/483/4 486/486/4 487/487/4

v -17.9937 126.944 67.6065
vt 8.07928 49.9781
f 483/483/4 487/487/4 488/488/4

v -18.0047 127.434 67.6042
vt 8.07485 50.1709
f 483/483/4 488/488/4 489/489/4

v -17.9034 127.893 67.6249
vt 8.11555 50.3516
f 483/483/4 489/489/4 490/490/4

v -50.1021 130.068 61.0487
vt -4.82278 51.2077
f 483/483/4 490/490/4 491/491/4

v -17.6842 128.886 67.6697
vt 8.20363 50.7426
f 491/491/4 490/490/4 492/492/4

usemtl Teddy_DressShadow
vn -0.200106 2.14589e-13 0.979774
v -15.6907 125.184 68.0768
vt 9.00469 49.2849
v -16.598 127.378 67.8915
vt 8.64012 50.1487
v -17.1113 130.255 67.7867
vt 8.43385 51.2815
f 492/492/21 490/490/21 493/493/21 494/494/21 495/495/21 

usemtl Teddy_Dress
v -4.88615 125.851 70.2835
vt 13.3463 49.5477
f 493/493/4 496/496/4 494/494/4

v -14.2026 123.793 68.3807
vt 9.60267 48.7375
f 497/497/4 496/496/4 493/493/4

v -12.465 122.004 68.7356
vt 10.3009 48.033
f 498/498/4 496/496/4 497/497/4

v -9.82608 120.176 69.2746
vt 11.3613 47.3135
f 498/498/4 499/499/4 496/496/4

v -11.0728 118.928 69.02
vt 10.8603 46.822
f 499/499/4 498/498/4 500/500/4

v -2.96933 121.5 70.675
vt 14.1165 47.8346
f 500/500/4 501/501/4 499/499/4

v -10.9557 118.174 69.0439
vt 10.9073 46.5251
f 502/502/4 501/501/4 500/500/4

v -3.60545 117.932 70.5451
vt 13.8609 46.4301
f 502/502/4 503/503/4 501/501/4

v -10.8751 117.655 69.0603
vt 10.9397 46.3208
f 504/504/4 503/503/4 502/502/4

v -11.6682 116.145 68.8984
vt 10.621 45.7266
f 505/505/4 503/503/4 504/504/4

v -12.4155 114.902 68.7457
vt 10.3207 45.2369
f 506/506/4 503/503/4 505/505/4

v -12.7702 114.251 68.6733
vt 10.1782 44.9809
f 507/507/4 503/503/4 506/506/4

v -12.2372 114.04 68.7821
vt 10.3924 44.8976
f 508/508/4 503/503/4 507/507/4

v -11.5354 114.01 68.9255
vt 10.6744 44.8857
f 509/509/4 503/503/4 508/508/4

v -10.8302 113.874 69.0695
vt 10.9578 44.8323
f 510/510/4 503/503/4 509/509/4

v -5.46246 113.651 70.1658
vt 13.1147 44.7445
f 510/510/4 511/511/4 503/503/4

v -10.1515 113.636 69.2081
vt 11.2305 44.7387
f 512/512/4 511/511/4 510/510/4

v -9.5132 113.302 69.3385
vt 11.487 44.607
f 513/513/4 511/511/4 512/512/4

v -8.92865 112.877 69.4579
vt 11.7219 44.4398
f 514/514/4 511/511/4 513/513/4

v -8.40994 112.371 69.5638
vt 11.9303 44.2405
f 515/515/4 511/511/4 514/514/4

v -5.98846 112.299 70.0584
vt 12.9033 44.2122
f 515/515/4 516/516/4 511/511/4

v -7.96782 111.794 69.6541
vt 12.108 44.0134
f 517/517/4 516/516/4 515/515/4

v -7.83654 111.56 69.6809
vt 12.1607 43.9212
f 518/518/4 516/516/4 517/517/4

v -7.70526 111.326 69.7077
vt 12.2135 43.829
f 519/519/4 516/516/4 518/518/4

v -7.61147 111.158 69.7269
vt 12.2511 43.7632
f 520/520/4 516/516/4 519/519/4

v -7.34828 110.477 69.7806
vt 12.3569 43.4949
f 521/521/4 516/516/4 520/520/4

v -7.1837 109.764 69.8143
vt 12.423 43.2143
f 522/522/4 516/516/4 521/521/4

v -7.12115 109.035 69.827
vt 12.4482 42.927
f 516/516/4 522/522/4 523/523/4

usemtl Teddy_DressShadow
v -8.56989 110.634 69.5311
vt 11.866 43.5566
vn -0.200106 -1.2992e-14 0.979774
v -9.16444 109.933 69.4097
vt 11.6271 43.2808
v -7.75275 108.96 69.698
vt 12.1944 42.8978
f 524/524/22 525/525/22 526/526/22 523/523/22 522/522/22 521/521/22 520/520/22 519/519/22 518/518/22 

usemtl Teddy_Skin_
vn -0.200106 5.08915e-15 0.979774
v -13.0046 112.602 68.6254
vt 10.084 44.3315
v -13.8207 111.467 68.4587
vt 9.7561 43.8845
v -13.568 111.476 68.5104
vt 9.85766 43.8882
v -13.0556 111.435 68.615
vt 10.0635 43.8719
v -12.5512 111.333 68.718
vt 10.2662 43.8321
v -12.0615 111.174 68.818
vt 10.463 43.7694
v -11.5929 110.959 68.9137
vt 10.6513 43.6845
v -11.1516 110.69 69.0039
vt 10.8286 43.5787
v -10.7433 110.371 69.0873
vt 10.9927 43.4532
v -10.3734 110.007 69.1628
vt 11.1413 43.3098
v -10.0468 109.602 69.2295
vt 11.2726 43.1504
v -9.86233 109.311 69.2672
vt 11.3467 43.0357
f 509/509/23 508/508/23 527/527/23 528/528/23 529/529/23 530/530/23 531/531/23 532/532/23 533/533/23 534/534/23 535/535/23 536/536/23 537/537/23 538/538/23 525/525/23 524/524/23 518/518/23 517/517/23 515/515/23 514/514/23 513/513/23 512/512/23 510/510/23 

usemtl Teddy_Bracelet
v -11.726 107.648 68.8866
vt 10.5978 42.3813
vn -0.200106 -5.74085e-16 0.979774
v -11.5058 107.466 68.9315
vt 10.6863 42.3094
v -10.7779 107.509 69.0802
vt 10.9788 42.3264
v -10.2392 107.737 69.1902
vt 11.1953 42.4163
v -9.94261 108.066 69.2508
vt 11.3144 42.5456
v -9.7727 108.46 69.2855
vt 11.3827 42.7007
v -9.69484 108.876 69.3014
vt 11.414 42.8644
v -9.76779 109.161 69.2865
vt 11.3847 42.9769
v -14.0816 111.457 68.4054
vt 9.65127 43.8808
v -14.2565 111.415 68.3697
vt 9.58101 43.8643
v -14.781 111.14 68.2626
vt 9.37023 43.756
v -15.1048 110.885 68.1965
vt 9.24011 43.6556
v -15.9674 110.083 68.0203
vt 8.89351 43.3399
v -16.241 109.692 67.9644
vt 8.78354 43.1857
v -16.1599 109.459 67.981
vt 8.81614 43.0942
v -15.965 109.238 68.0208
vt 8.89447 43.007
v -15.688 109.207 68.0774
vt 9.00576 42.9948
v -14.2974 108.919 68.3614
vt 9.56454 42.8815
v -13.1708 108.519 68.5915
vt 10.0173 42.7242
v -12.7171 108.307 68.6841
vt 10.1995 42.6405
v -12.2635 108.094 68.7768
vt 10.3818 42.5568
f 539/539/24 540/540/24 541/541/24 542/542/24 543/543/24 544/544/24 545/545/24 546/546/24 538/538/24 537/537/24 536/536/24 535/535/24 534/534/24 533/533/24 532/532/24 531/531/24 530/530/24 529/529/24 528/528/24 547/547/24 548/548/24 549/549/24 550/550/24 551/551/24 552/552/24 553/553/24 554/554/24 555/555/24 556/556/24 557/557/24 558/558/24 559/559/24 

usemtl Teddy_Skin_
v -16.489 109.201 67.9138
vt 8.6839 42.9924
vn -0.200106 -5.43733e-15 0.979774
v -15.4031 105.558 68.1356
vt 9.12026 41.5582
v -14.7324 105.785 68.2725
vt 9.38976 41.6476
v -14.3979 105.901 68.3408
vt 9.52417 41.6933
v -12.6473 106.984 68.6984
vt 10.2276 42.1197
v -12.1622 107.334 68.7975
vt 10.4226 42.2574
v -12.7051 107.763 68.6866
vt 10.2044 42.4265
f 560/560/25 408/408/25 407/407/25 406/406/25 405/405/25 561/561/25 562/562/25 563/563/25 564/564/25 565/565/25 566/566/25 557/557/25 556/556/25 555/555/25 554/554/25 

usemtl Teddy_BraceletShadow_
vn -0.200106 4.83803e-15 0.979774
f 559/559/26 558/558/26 557/557/26 566/566/26 565/565/26 539/539/26 

usemtl Teddy_Dress
v -12.6092 114.003 68.7062
vt 10.2429 44.8832
f 507/507/4 567/567/4 508/508/4

v -6.30746 121.151 69.9932
vt 12.7751 47.6971
f 499/499/4 501/501/4 568/568/4

v -4.14908 121.514 70.434
vt 13.6424 47.8401
f 568/568/4 501/501/4 569/569/4

usemtl Teddy_DressDepth
vn -0.200106 2.84277e-14 0.979774
f 501/501/27 496/496/27 499/499/27 568/568/27 569/569/27 

usemtl Teddy_Dress
v -10.8014 134.064 69.0754
vt 10.9694 52.781
f 494/494/4 496/496/4 570/570/4

f 494/494/4 570/570/4 495/495/4

v -31.7288 133.082 64.8012
vt 2.56015 52.3943
f 495/495/4 570/570/4 571/571/4

v -31.5885 133.122 64.8299
vt 2.61649 52.4103
f 571/571/4 570/570/4 572/572/4

v -31.476 133.19 64.8529
vt 2.6617 52.4369
f 572/572/4 570/570/4 573/573/4

v -31.3611 133.303 64.8763
vt 2.70788 52.4814
f 573/573/4 570/570/4 574/574/4

v -31.1774 133.56 64.9139
vt 2.7817 52.5828
f 574/574/4 570/570/4 575/575/4

v -28.8731 133.935 65.3845
vt 3.70764 52.7303
f 575/575/4 570/570/4 576/576/4

v -25.4376 134.618 66.0861
vt 5.08811 52.9991
f 576/576/4 570/570/4 577/577/4

v -10.9579 134.281 69.0434
vt 10.9065 52.8666
f 577/577/4 570/570/4 578/578/4

v -12.9898 137.102 68.6284
vt 10.09 53.9773
f 577/577/4 578/578/4 579/579/4

v -22.3402 135.472 66.7187
vt 6.33272 53.3353
f 577/577/4 579/579/4 580/580/4

v -19.3143 136.56 67.3367
vt 7.54862 53.7638
f 580/580/4 579/579/4 581/581/4

v -17.0508 137.917 67.799
vt 8.45817 54.298
f 581/581/4 579/579/4 582/582/4

v -13.6642 138.039 68.4907
vt 9.81898 54.3459
f 582/582/4 579/579/4 583/583/4

v -15.4383 139.195 68.1284
vt 9.1061 54.8013
f 582/582/4 583/583/4 584/584/4

v -14.3386 138.975 68.353
vt 9.54799 54.7145
f 584/584/4 583/583/4 585/585/4

v -14.5229 139.178 68.3153
vt 9.47396 54.7947
f 584/584/4 585/585/4 586/586/4

v -15.0927 139.808 68.1989
vt 9.24496 55.0425
f 584/584/4 586/586/4 587/587/4

usemtl Teddy_DressDepth
v -30.3324 141.181 65.0864
vt 3.12124 55.5831
vn -0.200106 -1.39788e-14 0.979774
v -30.3492 141.036 65.083
vt 3.11448 55.5258
v -30.366 140.89 65.0796
vt 3.10773 55.4685
v -30.5519 140.419 65.0416
vt 3.03303 55.2832
v -30.6875 140.34 65.0139
vt 2.97856 55.2522
v -30.7913 140.355 64.9927
vt 2.93685 55.2578
v -30.8494 140.142 64.9808
vt 2.91351 55.1739
v -30.872 139.941 64.9762
vt 2.90442 55.0949
v -30.8399 139.044 64.9828
vt 2.91729 54.7417
v -30.7368 135.187 65.0038
vt 2.95874 53.2231
v -30.7372 135.035 65.0037
vt 2.95856 53.1634
v -30.7469 134.844 65.0018
vt 2.95468 53.0884
v -30.797 134.506 64.9915
vt 2.93455 52.9551
v -30.8864 134.176 64.9733
vt 2.89862 52.8252
v -31.0138 133.859 64.9473
vt 2.84743 52.7005
v -17.9063 142.916 67.6243
vt 8.1144 56.2662
v -18.7507 143.431 67.4518
vt 7.7751 56.4688
v -19.0143 143.592 67.398
vt 7.66918 56.5321
v -19.8364 144.093 67.2301
vt 7.33882 56.7294
v -21.4675 144.477 66.897
vt 6.68341 56.8808
v -21.768 144.548 66.8356
vt 6.56265 56.9087
v -23.12 143.629 66.5595
vt 6.0194 56.547
v -23.8052 143.058 66.4195
vt 5.74405 56.3221
v -24.5451 142.563 66.2684
vt 5.44675 56.1271
v -25.3315 142.149 66.1078
vt 5.13073 55.9642
v -26.156 141.821 65.9394
vt 4.79945 55.8351
v -27.0094 141.583 65.7651
vt 4.4565 55.7413
v -27.8826 141.437 65.5868
vt 4.10565 55.6837
v -28.7659 141.384 65.4064
vt 3.7507 55.6631
v -29.6498 141.426 65.2258
vt 3.39553 55.6795
v -29.9016 141.427 65.1744
vt 3.29434 55.68
v -30.0583 141.389 65.1424
vt 3.23139 55.6649
v -30.1998 141.31 65.1135
vt 3.17453 55.6339
f 588/588/28 589/589/28 590/590/28 591/591/28 592/592/28 593/593/28 594/594/28 595/595/28 596/596/28 597/597/28 598/598/28 599/599/28 600/600/28 601/601/28 602/602/28 575/575/28 576/576/28 577/577/28 580/580/28 581/581/28 582/582/28 584/584/28 587/587/28 603/603/28 604/604/28 605/605/28 606/606/28 607/607/28 608/608/28 609/609/28 610/610/28 611/611/28 612/612/28 613/613/28 614/614/28 615/615/28 616/616/28 617/617/28 618/618/28 619/619/28 620/620/28 

usemtl Teddy_Bracelet
v -34.1142 140.897 64.3141
vt 1.60162 55.4714
vn -0.200106 -1.17372e-13 0.979774
v -34.1021 140.792 64.3165
vt 1.60648 55.4298
v -33.925 140.686 64.3527
vt 1.67763 55.3883
v -33.8239 140.68 64.3733
vt 1.71828 55.3858
v -33.1676 140.638 64.5074
vt 1.98196 55.3692
v -32.2355 140.545 64.6978
vt 2.35653 55.3327
v -31.3062 140.426 64.8875
vt 2.72993 55.2858
v -30.6601 141.252 65.0195
vt 2.98955 55.6111
v -31.3956 141.372 64.8693
vt 2.69402 55.6582
v -32.9479 141.539 64.5523
vt 2.07027 55.7242
v -33.8431 141.504 64.3694
vt 1.71052 55.7102
v -34.0292 141.463 64.3314
vt 1.63576 55.694
v -34.0863 141.278 64.3198
vt 1.61283 55.6212
v -34.1211 141.016 64.3126
vt 1.59881 55.518
f 621/621/29 622/622/29 623/623/29 624/624/29 625/625/29 626/626/29 627/627/29 593/593/29 592/592/29 591/591/29 590/590/29 589/589/29 588/588/29 628/628/29 629/629/29 630/630/29 631/631/29 632/632/29 633/633/29 634/634/29 

usemtl Teddy_DressDepth
vn -0.200106 1.46795e-14 0.979774
v -34.1659 141.62 64.3035
vt 1.58083 55.7558
v -34.2985 141.732 64.2764
vt 1.52755 55.7999
v -34.4465 141.821 64.2462
vt 1.46809 55.8352
v -34.6062 141.887 64.2136
vt 1.40389 55.8609
v -35.3043 142.109 64.071
vt 1.12338 55.9485
v -36.0856 142.381 63.9114
vt 0.809424 56.0556
v -36.8519 142.695 63.7549
vt 0.501513 56.1791
v -37.601 143.049 63.6019
vt 0.200495 56.3186
v -38.3309 143.443 63.4528
vt -0.0928015 56.4736
v -39.0396 143.875 63.3081
vt -0.377571 56.6438
v -39.1266 143.935 63.2903
vt -0.412506 56.6672
v -39.7252 144.345 63.1681
vt -0.653032 56.8287
v -40.3856 144.85 63.0332
vt -0.918426 57.0277
v -41.0192 145.391 62.9038
vt -1.17302 57.2404
v -41.4906 145.753 62.8075
vt -1.36245 57.3832
v -43.9713 147.17 62.3009
vt -2.35927 57.941
v -44.7586 147.527 62.1401
vt -2.67559 58.0817
v -46.9872 147.754 61.6849
vt -3.57113 58.1709
v -48.6257 147.832 61.3503
vt -4.22951 58.2017
v -50.1855 147.442 61.0317
vt -4.85629 58.0481
v -51.7453 147.052 60.7131
vt -5.48307 57.8944
v -53.5727 145.634 60.3399
vt -6.21738 57.3362
v -55.431 142.775 59.9604
vt -6.9641 56.2106
v -52.6543 140.363 60.5275
vt -5.84833 55.2612
v -49.2162 138.115 61.2297
vt -4.46679 54.376
v -45.6915 136.323 61.9495
vt -3.05049 53.6706
v -40.6053 134.485 62.9883
vt -1.00669 52.9467
v -36.7589 133.625 63.7739
vt 0.538888 52.6082
v -33.2653 133.409 64.4874
vt 1.94273 52.5232
v -32.1472 133.439 64.7158
vt 2.39201 52.5351
v -33.7258 136.867 64.3934
vt 1.75769 53.8845
f 623/623/30 622/622/30 621/621/30 634/634/30 633/633/30 632/632/30 635/635/30 636/636/30 637/637/30 638/638/30 639/639/30 640/640/30 641/641/30 642/642/30 643/643/30 644/644/30 645/645/30 646/646/30 647/647/30 648/648/30 649/649/30 650/650/30 651/651/30 652/652/30 653/653/30 654/654/30 655/655/30 656/656/30 657/657/30 658/658/30 659/659/30 660/660/30 661/661/30 662/662/30 663/663/30 664/664/30 665/665/30 624/624/30 

usemtl Teddy_Skin_
v -40.2127 145.624 63.0685
vt -0.848941 57.3322
vn -0.200106 2.03204e-14 0.979774
v -25.6825 142.822 66.0361
vt 4.98971 56.229
v -26.4136 142.5 65.8868
vt 4.69592 56.1025
v -27.188 142.312 65.7286
vt 4.38477 56.0284
v -27.9825 142.263 65.5664
vt 4.06551 56.009
v -28.7735 142.354 65.4048
vt 3.74766 56.0447
v -29.5374 142.582 65.2488
vt 3.44069 56.1346
v -30.2515 142.941 65.103
vt 3.15374 56.2759
v -30.8945 143.42 64.9716
vt 2.89537 56.4644
v -31.174 143.715 64.9146
vt 2.78308 56.5808
v -31.2772 143.811 64.8935
vt 2.74159 56.6185
v -31.4472 144.004 64.8587
vt 2.67327 56.6946
v -31.5972 144.214 64.8281
vt 2.61299 56.7772
v -31.7257 144.438 64.8019
vt 2.56136 56.8654
v -31.8314 144.674 64.7803
vt 2.5189 56.9584
v -31.9131 144.92 64.7636
vt 2.48605 57.0552
v -31.9701 145.173 64.7519
vt 2.46316 57.1549
v -32.0018 145.431 64.7455
vt 2.45044 57.2563
v -32.0065 145.749 64.7445
vt 2.44856 57.3813
v -32.0033 145.9 64.7452
vt 2.44982 57.4409
v -31.9802 146.142 64.7499
vt 2.45912 57.5361
v -31.939 146.381 64.7583
vt 2.47567 57.6303
v -31.88 146.616 64.7703
vt 2.49935 57.723
v -31.8037 146.846 64.7859
vt 2.53004 57.8135
v -31.7103 147.07 64.805
vt 2.56754 57.9015
v -31.6006 147.285 64.8274
vt 2.61165 57.9864
v -31.4816 147.499 64.8517
vt 2.65945 58.0703
v -30.8959 148.549 64.9714
vt 2.89482 58.4837
v -30.7548 148.816 65.0002
vt 2.95152 58.5891
v -30.6264 149.091 65.0264
vt 3.00309 58.6971
v -30.5112 149.371 65.0499
vt 3.04941 58.8075
v -30.4092 149.657 65.0707
vt 3.09038 58.9199
v -30.3208 149.947 65.0888
vt 3.12591 59.0342
v -30.2461 150.241 65.1041
vt 3.15591 59.15
v -30.1854 150.539 65.1165
vt 3.18031 59.2672
v -30.1388 150.839 65.126
vt 3.19905 59.3854
v -30.1185 150.993 65.1301
vt 3.20717 59.446
v -30.6631 150.63 65.0189
vt 2.98835 59.3033
v -31.5666 150.357 64.8344
vt 2.62528 59.1956
v -32.058 150.291 64.734
vt 2.42783 59.1698
v -32.5519 150.25 64.6331
vt 2.22938 59.1534
v -33.0472 150.232 64.532
vt 2.03037 59.1465
v -33.5427 150.239 64.4308
vt 1.83126 59.149
v -34.0373 150.269 64.3297
vt 1.63249 59.1611
v -34.53 150.324 64.2291
vt 1.43452 59.1825
v -35.0196 150.402 64.1291
vt 1.2378 59.2133
vn -0.200106 3.60524e-14 0.979774
v -35.1761 150.445 64.0972
vt 1.17492 59.2304
v -35.3301 150.497 64.0657
vt 1.11304 59.2508
v -35.4812 150.557 64.0349
vt 1.05232 59.2744
v -35.629 150.625 64.0047
vt 0.992936 59.3012
v -35.773 150.701 63.9753
vt 0.93505 59.3312
v -35.9129 150.785 63.9467
vt 0.878827 59.3641
v -36.0483 150.876 63.919
vt 0.824422 59.3999
v -36.1788 150.974 63.8924
vt 0.771989 59.4386
v -36.304 151.079 63.8668
vt 0.721672 59.48
v -36.4236 151.191 63.8424
vt 0.673614 59.524
v -36.5373 151.309 63.8192
vt 0.627948 59.5705
v -36.6446 151.433 63.7972
vt 0.584803 59.6193
v -37.6752 152.511 63.5868
vt 0.170681 60.0437
v -38.8952 153.499 63.3376
vt -0.319545 60.4327
v -39.0214 153.635 63.3118
vt -0.370237 60.4862
v -39.0869 153.721 63.2984
vt -0.39655 60.52
v -39.1466 153.811 63.2863
vt -0.420536 60.5554
v -39.2002 153.905 63.2753
vt -0.442085 60.5924
v -39.2475 154.002 63.2656
vt -0.461101 60.6307
v -39.2883 154.102 63.2573
vt -0.477498 60.6702
v -39.3224 154.205 63.2503
vt -0.491201 60.7107
v -39.4714 154.71 63.2199
vt -0.551051 60.9096
v -39.5131 154.473 63.2114
vt -0.567838 60.8163
v -39.5695 154.083 63.1999
vt -0.5905 60.6627
v -39.6018 153.69 63.1933
vt -0.603468 60.508
v -39.6098 153.296 63.1916
vt -0.606693 60.3528
v -39.5936 152.902 63.195
vt -0.600161 60.1977
v -39.5531 152.51 63.2032
vt -0.583897 60.0433
v -39.4886 152.121 63.2164
vt -0.557967 59.8903
v -39.4002 151.738 63.2344
vt -0.522472 59.7392
v -39.2885 151.36 63.2573
vt -0.477553 59.5906
v -38.9573 150.357 63.3249
vt -0.344497 59.1957
v -38.8743 150.086 63.3419
vt -0.311121 59.0891
v -38.8028 149.812 63.3565
vt -0.282408 58.9811
v -38.7431 149.535 63.3687
vt -0.258411 58.8719
v -38.6952 149.255 63.3784
vt -0.239175 58.7618
v -38.6593 148.974 63.3858
vt -0.224736 58.651
v -38.6354 148.691 63.3907
vt -0.215123 58.5397
v -38.6235 148.407 63.3931
vt -0.210352 58.428
v -38.6237 148.123 63.393
vt -0.210434 58.3163
v -38.6311 147.889 63.3915
vt -0.213402 58.2239
v -38.6542 147.655 63.3868
vt -0.222677 58.1319
v -38.6928 147.424 63.3789
vt -0.238215 58.0408
v -38.7469 147.195 63.3679
vt -0.259944 57.951
v -38.8161 146.972 63.3537
vt -0.287761 57.8628
v -38.9002 146.753 63.3366
vt -0.321538 57.7768
v -38.9987 146.541 63.3165
vt -0.361116 57.6932
v -39.0978 146.37 63.2962
vt -0.400932 57.6258
v -39.2153 146.211 63.2722
vt -0.448148 57.5634
v -39.3497 146.067 63.2448
vt -0.502155 57.5067
v -39.4992 145.94 63.2142
vt -0.562251 57.4565
v -39.662 145.83 63.181
vt -0.627658 57.4135
v -39.8359 145.741 63.1455
vt -0.69753 57.3782
v -40.0739 145.661 63.0969
vt -0.793165 57.3468
f 666/666/31 648/648/31 647/647/31 646/646/31 645/645/31 644/644/31 643/643/31 642/642/31 641/641/31 640/640/31 639/639/31 638/638/31 637/637/31 636/636/31 635/635/31 632/632/31 631/631/31 630/630/31 629/629/31 628/628/31 588/588/31 620/620/31 619/619/31 618/618/31 617/617/31 616/616/31 615/615/31 614/614/31 613/613/31 612/612/31 611/611/31 610/610/31 609/609/31 667/667/31 668/668/31 669/669/31 670/670/31 671/671/31 672/672/31 673/673/31 674/674/31 675/675/31 676/676/31 677/677/31 678/678/31 679/679/31 680/680/31 681/681/31 682/682/31 683/683/31 684/684/31 685/685/31 686/686/31 687/687/31 688/688/31 689/689/31 690/690/31 691/691/31 692/692/31 693/693/31 694/694/31 695/695/31 696/696/31 697/697/31 698/698/31 699/699/31 700/700/31 701/701/31 702/702/31 703/703/31 704/704/31 705/705/31 706/706/31 707/707/31 708/708/31 709/709/31 710/710/31 711/711/32 712/712/32 713/713/32 714/714/32 715/715/32 716/716/32 717/717/32 718/718/32 719/719/32 720/720/32 721/721/32 722/722/32 723/723/32 724/724/31 725/725/31 726/726/32 727/727/32 728/728/32 729/729/32 730/730/32 731/731/32 732/732/32 733/733/31 734/734/31 735/735/31 736/736/31 737/737/31 738/738/31 739/739/31 740/740/31 741/741/31 742/742/31 743/743/31 744/744/31 745/745/31 746/746/31 747/747/31 748/748/31 749/749/31 750/750/31 751/751/31 752/752/31 753/753/31 754/754/31 755/755/31 756/756/31 757/757/31 758/758/31 759/759/31 760/760/31 761/761/31 762/762/31 763/763/31 764/764/31 765/765/31 

usemtl Teddy_Hair
vn -0.200106 -2.02591e-14 0.979774
v -39.4301 154.913 63.2283
vt -0.534464 60.9892
v -39.5856 155.151 63.1966
vt -0.596957 61.083
v -39.7256 155.449 63.168
vt -0.653213 61.2003
v -39.9027 155.869 63.1318
vt -0.724371 61.3658
v -40.0886 156.395 63.0939
vt -0.799082 61.5729
v -40.2434 156.931 63.0622
vt -0.861286 61.784
v -40.3665 157.476 63.0371
vt -0.910762 61.9985
v -40.4576 158.028 63.0185
vt -0.947333 62.2156
v -40.5161 158.584 63.0065
vt -0.970869 62.4345
v -40.5421 159.142 63.0012
vt -0.981285 62.6544
v -40.5352 159.701 63.0026
vt -0.978544 62.8745
v -40.4957 160.259 63.0107
vt -0.962656 63.0941
v -40.4236 160.813 63.0254
vt -0.933678 63.3123
v -40.3191 161.362 63.0468
vt -0.891712 63.5284
v -40.2844 162.16 63.0539
vt -0.877734 63.8427
v -42.127 159.957 62.6775
vt -1.61818 62.9752
v -42.2579 156.983 62.6508
vt -1.67077 61.8044
v -42.2599 155.048 62.6504
vt -1.67155 61.0426
v -41.6664 151.679 62.7716
vt -1.43309 59.716
v -42.9966 149.681 62.4999
vt -1.96761 58.9296
v -45.2949 148.797 62.0305
vt -2.8911 58.5815
vn -0.200106 -1.18979e-14 0.979774
f 765/765/33 764/764/33 763/763/33 762/762/33 761/761/33 760/760/33 759/759/33 758/758/33 757/757/33 756/756/33 755/755/33 754/754/33 753/753/33 752/752/33 751/751/33 750/750/33 749/749/33 748/748/33 747/747/33 746/746/33 745/745/33 744/744/33 743/743/33 742/742/33 741/741/33 740/740/33 739/739/33 738/738/33 737/737/33 736/736/33 735/735/33 734/734/33 733/733/33 766/766/33 767/767/33 768/768/33 769/769/33 770/770/33 771/771/33 772/772/33 773/773/33 774/774/33 775/775/33 776/776/33 777/777/33 778/778/33 779/779/33 780/780/33 781/781/33 782/782/33 783/783/33 784/784/33 785/785/33 786/786/34 652/652/34 651/651/33 650/650/33 649/649/33 648/648/33 666/666/33 

usemtl Teddy_SkinShadow_
vn -0.200106 5.17843e-14 0.979774
v -30.0102 151.502 65.1522
vt 3.2507 59.6466
v -29.9645 151.717 65.1616
vt 3.26909 59.7313
v -30.2842 151.446 65.0963
vt 3.14062 59.6245
v -30.8496 151.156 64.9808
vt 2.91342 59.5104
v -31.4646 151.005 64.8552
vt 2.66629 59.4508
v -31.9607 150.915 64.7539
vt 2.46695 59.4152
v -32.9677 150.875 64.5482
vt 2.06228 59.3994
v -33.9707 150.976 64.3434
vt 1.65929 59.4394
v -34.1745 151.002 64.3017
vt 1.57738 59.4495
v -34.3765 151.04 64.2605
vt 1.49621 59.4644
v -34.5759 151.09 64.2197
vt 1.41606 59.4841
v -34.7722 151.151 64.1797
vt 1.33722 59.5084
v -34.9644 151.225 64.1404
vt 1.25996 59.5374
v -35.1521 151.31 64.1021
vt 1.18455 59.571
v -35.3345 151.407 64.0648
vt 1.11125 59.6089
v -35.511 151.514 64.0288
vt 1.04032 59.651
v -35.681 151.631 63.994
vt 0.972005 59.6973
v -35.8439 151.759 63.9608
vt 0.906552 59.7476
v -36.7471 152.513 63.7763
vt 0.543617 60.0443
v -37.4174 153.087 63.6394
vt 0.274284 60.2704
v -38.2143 153.738 63.4767
vt -0.0459141 60.5268
v -39.01 154.391 63.3141
vt -0.36566 60.7837
f 705/705/35 704/704/35 703/703/35 702/702/35 787/787/35 788/788/35 789/789/35 790/790/35 791/791/35 792/792/35 793/793/35 794/794/35 795/795/35 796/796/35 797/797/35 798/798/35 799/799/35 800/800/35 801/801/35 802/802/35 803/803/35 804/804/35 805/805/35 806/806/35 807/807/35 808/808/35 766/766/35 733/733/35 732/732/32 731/731/32 730/730/32 729/729/32 728/728/32 727/727/32 726/726/32 725/725/35 724/724/35 723/723/32 722/722/32 721/721/32 720/720/32 719/719/32 718/718/32 717/717/32 716/716/32 715/715/32 714/714/32 713/713/32 712/712/32 711/711/32 710/710/35 709/709/35 708/708/35 707/707/35 706/706/35 

usemtl Teddy_Hair
v -21.8 145.573 66.8291
vt 6.5498 57.3122
vn -0.200106 2.14059e-14 0.979774
v -23.5707 148.459 66.4674
vt 5.83827 58.4486
v -23.9618 149.447 66.3876
vt 5.68114 58.8375
v -24.1224 150.012 66.3547
vt 5.6166 59.0597
v -24.0813 150.327 66.3631
vt 5.63313 59.184
v -23.8021 150.901 66.4202
vt 5.74531 59.4099
v -23.0756 152.146 66.5685
vt 6.03721 59.9001
v -22.6212 152.925 66.6613
vt 6.21982 60.2069
v -22.4957 153.141 66.687
vt 6.27025 60.2916
v -22.2897 153.494 66.7291
vt 6.35303 60.4306
v -21.6113 155.608 66.8676
vt 6.62561 61.2631
v -21.5029 158.203 66.8898
vt 6.6692 62.2848
v -21.9591 159.909 66.7966
vt 6.48587 62.9563
v -22.9404 161.572 66.5961
vt 6.09153 63.6109
v -24.4861 164.191 66.2805
vt 5.47045 64.642
v -24.6212 164.42 66.2529
vt 5.41616 64.7322
v -24.9041 160.282 66.1951
vt 5.30247 63.103
v -26.8028 157.741 65.8073
vt 4.53955 62.1028
v -26.5739 154.615 65.8541
vt 4.63153 60.8719
v -25.669 152.641 66.0389
vt 4.99511 60.095
v -25.2966 152.407 66.1149
vt 5.14477 60.0028
v -24.7187 150.564 66.233
vt 5.37698 59.2772
v -24.7187 149.993 66.233
vt 5.37698 59.0525
v -25.6139 148.635 66.0501
vt 5.01727 58.5176
v -26.6835 147.858 65.8317
vt 4.58748 58.212
v -27.5349 148.672 65.6578
vt 4.24537 58.5325
v -27.9341 150.564 65.5763
vt 4.08495 59.2772
v -27.9341 152.499 65.5763
vt 4.08495 60.039
v -28.0769 155.314 65.5471
vt 4.02755 61.1471
v -28.124 155.175 65.5375
vt 4.00865 61.0925
v -28.2484 154.833 65.5121
vt 3.95865 60.9579
v -28.3803 154.494 65.4851
vt 3.90565 60.8244
v -28.5196 154.158 65.4567
vt 3.84968 60.6921
v -28.6662 153.825 65.4267
vt 3.79077 60.5611
v -28.8201 153.496 65.3953
vt 3.72894 60.4315
v -28.9811 153.17 65.3624
vt 3.66423 60.3033
v -29.1493 152.848 65.3281
vt 3.59666 60.1766
v -29.3244 152.53 65.2923
vt 3.52628 60.0514
v -29.4154 152.374 65.2737
vt 3.4897 59.9896
v -29.7977 151.859 65.1956
vt 3.3361 59.787
v -21.768 144.683 66.8356
vt 6.56265 56.962
v -21.6807 145.05 66.8534
vt 6.59775 57.1064
f 809/809/36 810/810/36 811/811/36 812/812/36 813/813/36 814/814/36 815/815/36 816/816/36 817/817/36 818/818/36 819/819/36 820/820/36 821/821/36 822/822/36 823/823/36 824/824/36 825/825/36 826/826/36 827/827/36 828/828/36 829/829/36 830/830/36 831/831/36 832/832/36 833/833/36 834/834/36 835/835/36 836/836/36 837/837/36 838/838/36 839/839/36 840/840/36 841/841/36 842/842/36 843/843/36 844/844/36 845/845/36 846/846/36 847/847/36 848/848/36 788/788/36 787/787/36 702/702/36 701/701/36 700/700/36 699/699/36 698/698/36 697/697/36 696/696/36 695/695/36 694/694/36 693/693/36 692/692/36 691/691/36 690/690/36 689/689/36 688/688/36 687/687/36 686/686/36 685/685/36 684/684/36 683/683/36 682/682/36 681/681/36 680/680/36 679/679/36 678/678/36 677/677/36 676/676/36 675/675/36 674/674/36 673/673/36 672/672/36 671/671/36 670/670/36 669/669/36 668/668/36 667/667/36 609/609/36 608/608/36 849/849/36 850/850/36 

usemtl Teddy_Brim
v -17.0155 162.426 67.8062
vt 8.47234 63.9473
vn -0.200106 6.30015e-15 0.979774
v -17.1189 163.55 67.7851
vt 8.43081 64.3899
v -19.0505 164.257 67.3906
vt 7.65463 64.6681
v -21.5183 164.499 66.8866
vt 6.66298 64.7633
v -24.8962 164.886 66.1967
vt 5.30564 64.9156
v -22.5679 152.459 66.6722
vt 6.24121 60.0232
v -21.9608 152.853 66.7962
vt 6.48519 60.1782
v -21.372 153.274 66.9165
vt 6.72179 60.3442
v -20.8028 153.723 67.0327
vt 6.95051 60.5209
v -20.2544 154.198 67.1447
vt 7.17086 60.7079
v -19.728 154.698 67.2522
vt 7.38237 60.9049
v -19.2247 155.223 67.355
vt 7.58461 61.1114
v -18.355 156.531 67.5327
vt 7.93408 61.6263
v -18.153 156.96 67.5739
vt 8.01526 61.7952
v -17.7109 157.995 67.6642
vt 8.19293 62.2027
v -17.3731 159.07 67.7332
vt 8.32863 62.626
v -17.1433 160.175 67.7801
vt 8.42099 63.0608
v -17.0237 161.297 67.8046
vt 8.46905 63.5028
f 851/851/37 852/852/37 853/853/37 854/854/37 855/855/37 824/824/37 823/823/37 822/822/37 821/821/37 820/820/37 819/819/37 818/818/37 817/817/37 816/816/37 815/815/37 856/856/37 857/857/37 858/858/37 859/859/37 860/860/37 861/861/37 862/862/37 863/863/37 864/864/37 865/865/37 866/866/37 867/867/37 868/868/37 

usemtl Teddy_Brim2
v -17.2478 164.317 67.7588
vt 8.37898 64.6916
vn -0.200106 -1.33163e-13 0.979774
v -17.3056 164.454 67.747
vt 8.35578 64.7456
v -17.3796 164.582 67.7319
vt 8.32603 64.7962
v -17.6374 164.972 67.6792
vt 8.22244 64.9498
v -18.153 165.752 67.5739
vt 8.01526 65.2568
v -18.2594 165.899 67.5522
vt 7.9725 65.3147
v -18.3788 166.036 67.5278
vt 7.92453 65.3684
v -18.5101 166.16 67.501
vt 7.87176 65.4174
v -18.6522 166.271 67.472
vt 7.81466 65.4612
v -18.8039 166.369 67.441
vt 7.75371 65.4995
v -18.9638 166.451 67.4083
vt 7.68946 65.532
v -19.4636 166.68 67.3062
vt 7.48862 65.6219
v -20.0513 166.984 67.1862
vt 7.25249 65.7418
v -20.4421 167.213 67.1064
vt 7.09544 65.8318
v -22.2564 166.799 66.7358
vt 6.36641 65.6688
v -26.7683 167.089 65.8144
vt 4.5534 65.7831
v -25.599 165.817 66.0532
vt 5.02324 65.2823
v -25.1713 165.352 66.1405
vt 5.19513 65.0991
v -17.1843 164.011 67.7718
vt 8.40453 64.5711
v -17.2073 164.173 67.7671
vt 8.39526 64.6351
f 869/869/38 870/870/38 871/871/38 872/872/38 873/873/38 874/874/38 875/875/38 876/876/38 877/877/38 878/878/38 879/879/38 880/880/38 881/881/38 882/882/38 883/883/38 884/884/38 885/885/38 886/886/38 855/855/38 854/854/38 853/853/38 852/852/38 887/887/38 888/888/38 

usemtl Teddy_Brim
vn -0.200106 -7.74815e-14 0.979774
v -21.0491 167.599 66.9824
vt 6.85154 65.9839
v -21.3599 167.797 66.919
vt 6.72666 66.0618
v -22.2476 168.452 66.7376
vt 6.36994 66.3197
v -23.0895 169.167 66.5657
vt 6.03163 66.6012
v -23.8817 169.939 66.4039
vt 5.71331 66.9052
v -24.3629 170.401 66.3056
vt 5.51994 67.0869
v -24.8806 170.819 66.1999
vt 5.31194 67.2517
v -25.4309 171.192 66.0875
vt 5.09078 67.3983
v -25.9713 169.917 65.9771
vt 4.87365 66.8963
v -28.5135 168.173 65.4579
vt 3.85214 66.21
v -27.1617 167.517 65.734
vt 4.39532 65.9516
f 882/882/39 889/889/39 890/890/39 891/891/39 892/892/39 893/893/39 894/894/39 895/895/39 896/896/39 897/897/39 898/898/39 899/899/39 884/884/39 883/883/39 

usemtl Teddy_Brim2
vn -0.200106 -4.52646e-14 0.979774
v -26.0101 171.515 65.9692
vt 4.85805 67.5257
v -26.614 171.788 65.8459
vt 4.6154 67.6331
v -27.2382 172.008 65.7184
vt 4.36456 67.7196
v -27.8826 172.204 65.5868
vt 4.10562 67.7969
v -30.1984 172.02 65.1138
vt 3.17507 67.7245
v -30.9189 171.941 64.9666
vt 2.88555 67.6933
v -31.6335 171.818 64.8207
vt 2.59843 67.6447
v -32.3395 171.651 64.6765
vt 2.31472 67.5791
v -33.0345 171.441 64.5346
vt 2.03544 67.4966
v -33.716 171.19 64.3954
vt 1.76161 67.3975
v -34.3815 170.897 64.2594
vt 1.49419 67.2823
v -34.9087 170.662 64.1518
vt 1.28234 67.1899
v -35.4471 170.456 64.0418
vt 1.06603 67.1086
v -35.9951 170.278 63.9299
vt 0.845819 67.0384
v -36.5513 170.128 63.8163
vt 0.622295 66.9797
v -37.1144 170.009 63.7013
vt 0.396048 66.9325
v -37.6827 169.919 63.5852
vt 0.167677 66.8971
v -38.3897 169.825 63.4408
vt -0.1164 66.8604
v -40.816 169.671 62.9453
vt -1.09135 66.7998
v -41.4606 169.629 62.8136
vt -1.35039 66.7832
v -43.6214 169.316 62.3723
vt -2.21867 66.6598
v -44.1969 169.313 62.2548
vt -2.44991 66.6587
v -44.7707 169.268 62.1376
vt -2.68048 66.641
v -45.2003 169.203 62.0499
vt -2.85309 66.6152
v -45.3399 169.181 62.0214
vt -2.90918 66.6068
v -45.8047 169.075 61.9264
vt -3.09595 66.5649
v -43.6276 166.834 62.3711
vt -2.22114 65.6826
v -41.4815 166.266 62.8094
vt -1.3588 65.459
v -39.5718 167.418 63.1994
vt -0.591393 65.9124
v -38.0085 168.106 63.5187
vt 0.0367854 66.1834
v -36.4452 168.794 63.838
vt 0.664963 66.4544
v -33.7276 169.289 64.393
vt 1.75696 66.6491
v -30.4712 169.124 65.0581
vt 3.06547 66.5843
v -29.2749 168.543 65.3024
vt 3.54617 66.3556
f 898/898/40 897/897/40 896/896/40 900/900/40 901/901/40 902/902/40 903/903/40 904/904/40 905/905/40 906/906/40 907/907/40 908/908/40 909/909/40 910/910/40 911/911/40 912/912/40 913/913/40 914/914/40 915/915/40 916/916/40 917/917/40 918/918/40 919/919/40 920/920/40 921/921/40 922/922/40 923/923/40 924/924/40 925/925/40 926/926/40 927/927/40 928/928/40 929/929/40 930/930/40 931/931/40 932/932/40 933/933/40 

usemtl Teddy_Hat
vn -0.200106 8.70971e-14 0.979774
v -28.2095 173.227 65.52
vt 3.97427 68.1998
v -28.7589 174.146 65.4078
vt 3.75352 68.5615
v -29.5011 174.911 65.2562
vt 3.45528 68.8625
v -30.3961 175.48 65.0734
vt 3.09564 69.0866
v -31.3431 175.722 64.88
vt 2.71511 69.1821
v -32.3103 175.859 64.6825
vt 2.32648 69.2357
v -33.2862 175.887 64.4832
vt 1.93432 69.2469
v -34.2594 175.807 64.2844
vt 1.54326 69.2155
v -35.2184 175.62 64.0885
vt 1.15791 69.1418
v -36.2627 175.274 63.8752
vt 0.73827 69.0055
v -37.2521 174.788 63.6732
vt 0.340723 68.8142
v -38.1685 174.171 63.486
vt -0.0275385 68.5712
v -38.9955 173.434 63.3171
vt -0.359848 68.2809
v -39.3568 173.012 63.2433
vt -0.505019 68.1148
v -39.7323 172.526 63.1666
vt -0.655914 67.9237
v -40.0587 172.005 63.1
vt -0.78706 67.7186
v -40.3327 171.454 63.044
vt -0.897158 67.5014
v -40.5516 170.877 62.9993
vt -0.985117 67.2744
v -40.7132 170.281 62.9663
vt -1.05006 67.0397
f 911/911/41 910/910/41 909/909/41 908/908/41 907/907/41 906/906/41 905/905/41 904/904/41 903/903/41 934/934/41 935/935/41 936/936/41 937/937/41 938/938/41 939/939/41 940/940/41 941/941/41 942/942/41 943/943/41 944/944/41 945/945/41 946/946/41 947/947/41 948/948/41 949/949/41 950/950/41 951/951/41 952/952/41 918/918/41 917/917/41 916/916/41 915/915/41 914/914/41 913/913/41 912/912/41 

usemtl Teddy_Brim
vn -0.200106 -2.36142e-14 0.979774
v -46.3454 168.91 61.816
vt -3.31322 66.4998
v -46.873 168.705 61.7082
vt -3.52524 66.4193
v -48.0084 167.844 61.4763
vt -3.98149 66.0802
v -49.4962 165.756 61.1725
vt -4.5793 65.2581
v -49.9392 164.776 61.082
vt -4.75734 64.8725
v -50.2772 163.754 61.013
vt -4.89316 64.4701
v -50.32 163.558 61.0042
vt -4.91032 64.3927
v -50.5063 162.701 60.9662
vt -4.9852 64.0554
v -50.5999 161.847 60.9471
vt -5.02282 63.7192
v -50.6238 161.629 60.9422
vt -5.03243 63.6333
v -50.6284 160.55 60.9412
vt -5.03428 63.2086
v -50.5743 160.013 60.9523
vt -5.01252 62.9973
v -50.463 159.322 60.975
vt -4.96781 62.7253
v -50.3353 158.529 61.0011
vt -4.91648 62.4131
v -49.9233 157.085 61.0853
vt -4.75092 61.8446
v -49.3442 155.702 61.2035
vt -4.51824 61.3001
v -48.7081 154.58 61.3334
vt -4.26261 60.8581
v -48.6065 154.4 61.3542
vt -4.2218 60.7875
v -48.3029 153.988 61.4162
vt -4.09982 60.6253
v -47.7208 153.198 61.5351
vt -3.86591 60.3143
v -46.7 152.114 61.7436
vt -3.45573 59.8873
v -46.3948 151.812 61.8059
vt -3.33309 59.7684
v -46.0727 151.529 61.8717
vt -3.20364 59.657
v -45.7347 151.266 61.9407
vt -3.06784 59.5534
v -45.3821 151.023 62.0127
vt -2.92616 59.458
v -45.0161 150.803 62.0875
vt -2.7791 59.3712
v -45.4003 155.111 62.009
vt -2.93348 61.0674
v -44.2687 161.034 62.2401
vt -2.47874 63.3991
v -42.9622 164.67 62.507
vt -1.95375 64.8306
f 926/926/42 925/925/42 953/953/42 954/954/42 955/955/42 956/956/42 957/957/42 958/958/42 959/959/42 960/960/42 961/961/42 962/962/42 963/963/42 964/964/42 965/965/42 966/966/42 967/967/42 968/968/42 969/969/42 970/970/42 971/971/42 972/972/42 973/973/42 974/974/42 975/975/42 976/976/42 977/977/42 978/978/42 979/979/42 980/980/42 981/981/42 927/927/42 

usemtl Teddy_HairLight
vn -0.200106 -3.53666e-15 0.979774
v -45.0918 150.335 62.072
vt -2.80952 59.187
v -45.2218 149.88 62.0455
vt -2.86176 59.0077
v -45.4043 149.443 62.0082
vt -2.93506 58.836
v -45.6365 149.033 61.9608
vt -3.02838 58.6742
v -45.9152 148.653 61.9038
vt -3.14038 58.5248
v -46.2364 148.31 61.8382
vt -3.26944 58.3899
v -46.5955 148.009 61.7649
vt -3.41371 58.2714
v -40.2584 162.757 63.0592
vt -0.867289 64.0775
v -40.2496 162.959 63.061
vt -0.863755 64.1569
v -40.2016 164.059 63.0708
vt -0.844483 64.5902
v -40.1925 164.269 63.0726
vt -0.840811 64.6727
v -40.1781 164.599 63.0756
vt -0.83502 64.8029
v -40.1354 165.579 63.0843
vt -0.817867 65.1885
v -39.8199 166.516 63.1487
vt -0.691111 65.5575
f 979/979/43 978/978/43 982/982/43 983/983/43 984/984/43 985/985/43 986/986/43 987/987/43 988/988/43 652/652/34 786/786/34 785/785/43 784/784/43 783/783/43 782/782/43 781/781/43 780/780/43 989/989/43 990/990/43 991/991/43 992/992/43 993/993/43 994/994/43 995/995/43 929/929/43 928/928/43 927/927/43 981/981/43 980/980/43 

usemtl Teddy_Skin_
vn -0.200106 -2.17089e-14 0.979774
v -28.0071 155.52 65.5614
vt 4.05563 61.2282
v -27.8977 155.867 65.5837
vt 4.09956 61.365
v -27.796 156.217 65.6044
vt 4.14042 61.5027
v -27.7526 156.373 65.6133
vt 4.15789 61.564
v -27.6977 156.561 65.6245
vt 4.17993 61.6383
v -27.6505 156.724 65.6342
vt 4.1989 61.7022
v -27.5688 157.08 65.6509
vt 4.23174 61.8426
v -27.5077 157.441 65.6633
vt 4.2563 61.9847
v -27.4674 157.805 65.6716
vt 4.27249 62.128
v -27.1332 161.893 65.7398
vt 4.40676 63.7373
v -27.1167 162.208 65.7432
vt 4.4134 63.8614
v -28.2744 161.32 65.5068
vt 3.94821 63.5117
v -28.59 161.32 65.4423
vt 3.82138 63.5117
v -30.2783 161.32 65.0975
vt 3.14297 63.5117
v -31.5362 162.285 64.8406
vt 2.63751 63.8917
v -31.7822 162.474 64.7903
vt 2.53865 63.966
v -31.7822 162.796 64.7903
vt 2.53865 64.093
v -31.7822 163.201 64.7903
vt 2.53865 64.2522
v -32.2591 163.376 64.6929
vt 2.34703 64.3213
v -33.1341 163.376 64.5142
vt 1.99543 64.3213
v -33.6877 163.188 64.4012
vt 1.77301 64.2474
v -33.6877 162.2 64.4012
vt 1.77301 63.8583
v -35.283 161.034 64.0753
vt 1.13193 63.3993
v -37.6543 160.962 63.591
vt 0.179104 63.3708
v -39.0084 162.413 63.3145
vt -0.365033 63.9421
v -39.0084 162.869 63.3145
vt -0.365033 64.1217
f 768/768/44 767/767/44 766/766/44 808/808/44 807/807/44 806/806/44 805/805/44 804/804/44 803/803/44 802/802/44 801/801/44 800/800/44 799/799/44 798/798/44 797/797/44 796/796/44 795/795/44 794/794/44 793/793/44 792/792/44 791/791/44 790/790/44 789/789/44 788/788/44 848/848/44 847/847/44 846/846/44 845/845/44 844/844/44 843/843/44 842/842/44 841/841/44 840/840/44 839/839/44 838/838/44 837/837/44 996/996/44 997/997/44 998/998/44 999/999/44 1000/1000/44 1001/1001/44 1002/1002/44 1003/1003/44 1004/1004/44 1005/1005/44 1006/1006/44 1007/1007/44 1008/1008/44 1009/1009/44 1010/1010/44 1011/1011/44 1012/1012/44 1013/1013/44 1014/1014/44 1015/1015/44 1016/1016/44 1017/1017/44 1018/1018/44 1019/1019/44 1020/1020/44 1021/1021/44 990/990/44 989/989/44 780/780/44 779/779/44 778/778/44 777/777/44 776/776/44 775/775/44 774/774/44 773/773/44 772/772/44 771/771/44 770/770/44 769/769/44 

usemtl Teddy_HairLight
v -26.7705 162.474 65.8139
vt 4.55252 63.966
vn -0.200106 -4.6595e-15 0.979774
v -27.5848 165.77 65.6476
vt 4.22531 65.2639
v -27.3511 164.684 65.6953
vt 4.31921 64.8363
v -26.7705 164.239 65.8139
vt 4.55252 64.6609
f 1022/1022/45 1006/1006/45 1005/1005/45 1004/1004/45 1003/1003/45 1002/1002/45 1001/1001/45 1000/1000/45 999/999/45 998/998/45 997/997/45 996/996/45 837/837/45 836/836/45 835/835/45 834/834/45 833/833/45 832/832/45 831/831/45 830/830/45 829/829/45 828/828/45 827/827/45 826/826/45 825/825/45 824/824/45 855/855/45 886/886/45 885/885/45 884/884/45 899/899/45 898/898/45 1023/1023/45 1024/1024/45 1025/1025/45 

usemtl Teddy_Glasses
v -27.2191 162.702 65.7223
vt 4.37226 64.056
vn -0.200106 7.17858e-15 0.979774
f 1026/1026/46 1006/1006/46 1022/1022/46

v -28.4242 161.778 65.4762
vt 3.88801 63.692
f 1027/1027/46 1006/1006/46 1026/1026/46

f 1008/1008/46 1006/1006/46 1027/1027/46

f 1006/1006/46 1008/1008/46 1007/1007/46

f 1008/1008/46 1027/1027/46 1009/1009/46

v -30.1285 161.778 65.1281
vt 3.20317 63.692
f 1028/1028/46 1009/1009/46 1027/1027/46

f 1009/1009/46 1028/1028/46 1010/1010/46

v -31.3336 162.702 64.8819
vt 2.71891 64.056
f 1010/1010/46 1028/1028/46 1029/1029/46

usemtl Teddy_Skin_
vn -0.200106 0 0.979774
v -27.2191 164.01 65.7223
vt 4.37226 64.5709
v -28.4242 164.935 65.4762
vt 3.88801 64.9349
v -30.1285 164.935 65.1281
vt 3.20317 64.9349
v -31.3336 164.01 64.8819
vt 2.71891 64.5709
f 1026/1026/47 1030/1030/47 1031/1031/47 1032/1032/47 1033/1033/47 1029/1029/47 1028/1028/47 1027/1027/47 

usemtl Teddy_Glasses
f 1026/1026/46 1025/1025/46 1030/1030/46

f 1026/1026/46 1022/1022/46 1025/1025/46

f 1030/1030/46 1025/1025/46 1031/1031/46

f 1031/1031/46 1025/1025/46 1024/1024/46

v -28.2744 165.393 65.5068
vt 3.94821 65.1152
f 1031/1031/46 1024/1024/46 1034/1034/46

usemtl Teddy_Skin_
vn -0.200106 3.64411e-14 0.979774
v -39.0084 164.122 63.3145
vt -0.365033 64.6148
v -39.0084 164.266 63.3145
vt -0.365033 64.6716
v -37.9123 165.089 63.5383
vt 0.0754363 64.9958
v -35.2949 165.184 64.0729
vt 1.12718 65.0332
v -33.8758 164.147 64.3627
vt 1.69741 64.625
v -33.7817 164.079 64.382
vt 1.73521 64.5979
v -31.7822 164.079 64.7903
vt 2.53865 64.5979
v -31.7822 164.239 64.7903
vt 2.53865 64.6609
v -31.6046 164.375 64.8266
vt 2.61002 64.7145
v -30.7335 165.043 65.0045
vt 2.96005 64.9777
v -30.2783 165.393 65.0975
vt 3.14297 65.1152
v -31.1511 168.362 64.9192
vt 2.79227 66.2844
v -33.0432 168.241 64.5328
vt 2.03197 66.2366
v -35.5717 167.084 64.0164
vt 1.01593 65.7812
v -38.0015 166.07 63.5201
vt 0.0395657 65.3821
f 992/992/48 991/991/48 1035/1035/48 1036/1036/48 1037/1037/48 1038/1038/48 1039/1039/48 1040/1040/48 1041/1041/48 1042/1042/48 1043/1043/48 1044/1044/48 1045/1045/48 1034/1034/48 1024/1024/48 1023/1023/48 898/898/48 933/933/48 1046/1046/48 1047/1047/48 1048/1048/48 1049/1049/48 994/994/48 993/993/48 

usemtl Teddy_Glasses
vn -0.200106 1.45739e-13 0.979774
f 991/991/49 990/990/49 1021/1021/49 1035/1035/49 

vn -0.200106 1.57485e-14 0.979774
v -38.5598 164.034 63.4061
vt -0.184773 64.5805
f 1021/1021/50 1050/1050/50 1035/1035/50

v -38.5598 162.596 63.4061
vt -0.184773 64.0142
f 1021/1021/50 1051/1051/50 1050/1050/50

f 1020/1020/50 1051/1051/50 1021/1021/50

v -37.4669 161.425 63.6293
vt 0.254383 63.5531
f 1020/1020/50 1052/1052/50 1051/1051/50

f 1019/1019/50 1052/1052/50 1020/1020/50

f 1052/1052/50 1019/1019/50 1018/1018/50

v -35.4324 161.488 64.0448
vt 1.07191 63.578
f 1018/1018/50 1053/1053/50 1052/1052/50

f 1053/1053/50 1018/1018/50 1017/1017/50

v -34.1363 162.435 64.3095
vt 1.59274 63.9509
f 1053/1053/50 1017/1017/50 1054/1054/50

f 1054/1054/50 1017/1017/50 1016/1016/50

v -34.1363 163.775 64.3095
vt 1.59274 64.4782
f 1054/1054/50 1016/1016/50 1055/1055/50

v -33.6877 164.01 64.4012
vt 1.77301 64.5709
f 1055/1055/50 1016/1016/50 1056/1056/50

vn -0.200106 3.06518e-14 0.979774
f 1056/1056/51 1016/1016/51 1015/1015/51 1014/1014/51 1013/1013/51 1041/1041/51 1040/1040/51 

f 1013/1013/46 1033/1033/46 1041/1041/46

f 1012/1012/46 1033/1033/46 1013/1013/46

f 1012/1012/46 1029/1029/46 1033/1033/46

f 1011/1011/46 1029/1029/46 1012/1012/46

f 1010/1010/46 1029/1029/46 1011/1011/46

f 1041/1041/46 1033/1033/46 1032/1032/46

f 1041/1041/46 1032/1032/46 1042/1042/46

f 1042/1042/46 1032/1032/46 1043/1043/46

f 1043/1043/46 1032/1032/46 1044/1044/46

f 1032/1032/46 1034/1034/46 1044/1044/46

f 1031/1031/46 1034/1034/46 1032/1032/46

f 1044/1044/46 1034/1034/46 1045/1045/46

v -35.4324 164.722 64.0448
vt 1.07191 64.8511
f 1057/1057/50 1056/1056/50 1040/1040/50

f 1055/1055/50 1056/1056/50 1057/1057/50

usemtl Teddy_Skin_
v -37.7586 164.636 63.5697
vt 0.137183 64.8174
f 1050/1050/47 1051/1051/47 1052/1052/47 1053/1053/47 1054/1054/47 1055/1055/47 1057/1057/47 1058/1058/47 

usemtl Teddy_Glasses
f 1037/1037/50 1058/1058/50 1057/1057/50

f 1036/1036/50 1058/1058/50 1037/1037/50

f 1035/1035/50 1058/1058/50 1036/1036/50

f 1035/1035/50 1050/1050/50 1058/1058/50

f 1057/1057/50 1038/1038/50 1037/1037/50

f 1057/1057/50 1039/1039/50 1038/1038/50

f 1057/1057/50 1040/1040/50 1039/1039/50

usemtl Teddy_SkinShadow_
vn -0.200106 -1.67013e-14 0.979774
f 929/929/52 995/995/52 994/994/52 1049/1049/52 1048/1048/52 1047/1047/52 1046/1046/52 933/933/52 932/932/52 931/931/52 930/930/52 

usemtl Teddy_Dress
vn -0.200106 4.98536e-15 0.979774
v -55.7334 142.047 59.8986
vt -7.08558 55.9239
v -57.2569 138.377 59.5875
vt -7.69777 54.4792
v -57.6404 136.976 59.5091
vt -7.8519 53.9277
v -59.1811 131.35 59.1945
vt -8.471 51.7125
v -60.7634 120.134 58.8713
vt -9.10678 47.2969
v -60.5723 116.512 58.9103
vt -9.02999 45.871
v -59.5506 111.209 59.119
vt -8.61946 43.7832
v -57.6598 106.952 59.5052
vt -7.85968 42.1072
v -53.7054 115.57 60.3128
vt -6.27069 45.5001
v -53.4105 118.806 60.373
vt -6.15219 46.7742
v -52.8513 120.225 60.4872
vt -5.92751 47.3325
v -50.1631 133.358 61.0363
vt -4.84731 52.5031
v -49.3649 136.976 61.1993
vt -4.52655 53.9277
v -49.4304 137.386 61.1859
vt -4.55288 54.0892
f 657/657/53 1059/1059/53 1060/1060/53 1061/1061/53 1062/1062/53 1063/1063/53 1064/1064/53 1065/1065/53 1066/1066/53 93/93/53 92/92/53 91/91/53 90/90/53 89/89/53 88/88/53 87/87/53 86/86/53 85/85/53 84/84/53 83/83/53 82/82/53 32/32/53 31/31/53 30/30/53 1067/1067/53 1068/1068/53 1069/1069/53 475/475/53 483/483/53 491/491/53 1070/1070/53 1071/1071/53 1072/1072/53 659/659/53 658/658/53 

f 491/491/4 495/495/4 1070/1070/4

f 491/491/4 492/492/4 495/495/4

f 1070/1070/4 495/495/4 571/571/4

v -31.8961 133.114 64.7671
vt 2.49291 52.4071
f 1070/1070/4 571/571/4 1073/1073/4

usemtl Teddy_Skin_
vn -0.200106 5.601e-14 0.979774
v -32.0381 133.226 64.7381
vt 2.43583 52.4511
f 594/594/54 593/593/54 627/627/54 626/626/54 625/625/54 624/624/54 665/665/54 664/664/54 1074/1074/54 1073/1073/54 571/571/54 572/572/54 573/573/54 574/574/54 575/575/54 602/602/54 601/601/54 600/600/54 599/599/54 598/598/54 597/597/54 596/596/54 595/595/54 

usemtl Teddy_Dress
f 663/663/4 1074/1074/4 664/664/4

f 1070/1070/4 1074/1074/4 663/663/4

f 1070/1070/4 1073/1073/4 1074/1074/4

f 662/662/4 1070/1070/4 663/663/4

f 661/661/4 1070/1070/4 662/662/4

f 1070/1070/4 661/661/4 1071/1071/4

f 1071/1071/4 661/661/4 660/660/4

f 1071/1071/4 660/660/4 659/659/4

f 1071/1071/4 659/659/4 1072/1072/4

usemtl Teddy_BookJacket
v -36.8918 92.5697 63.7468
vt 0.485506 36.4448
vn -0.200106 -9.78776e-16 0.979774
v -42.1959 93.6673 62.6635
vt -1.64585 36.8769
v -32.8066 107.153 64.5811
vt 2.12703 42.1862
v -35.9727 92.9679 63.9345
vt 0.854795 36.6015
f 1075/1075/55 1076/1076/55 79/79/55 78/78/55 77/77/55 76/76/55 75/75/55 361/361/55 363/363/55 20/20/55 19/19/55 1077/1077/55 1078/1078/55 

usemtl Teddy_Paper
vn -0.200106 -2.36586e-15 0.979774
f 1077/1077/56 19/19/56 18/18/56 17/17/56 16/16/56 15/15/56 14/14/56 81/81/56 80/80/56 79/79/56 1076/1076/56 1075/1075/56 1078/1078/56 

usemtl Teddy_Dress
f 74/74/4 361/361/4 75/75/4

f 358/358/4 73/73/4 72/72/4

usemtl Teddy_DressShadow
vn -0.200106 5.21683e-13 0.979774
f 62/62/57 61/61/57 60/60/57 108/108/57 355/355/57 356/356/57 358/358/57 72/72/57 71/71/57 70/70/57 69/69/57 68/68/57 67/67/57 66/66/57 65/65/57 64/64/57 63/63/57 

usemtl Teddy_Dress
f 59/59/4 108/108/4 60/60/4

usemtl Teddy_Paper
vn -0.200106 -2.24126e-12 0.979774
v -55.2596 97.2721 59.9954
vt -6.89521 38.2961
f 49/49/58 97/97/58 1079/1079/58 103/103/58 102/102/58 

usemtl Teddy_BookJacket
vn -0.200106 1.5694e-12 0.979774
v -55.6338 97.459 59.9189
vt -7.04559 38.3697
v -55.706 97.5884 59.9042
vt -7.07458 38.4206
v -55.7099 97.7028 59.9034
vt -7.07614 38.4657
v -55.7476 97.5377 59.8957
vt -7.0913 38.4007
v -55.7131 97.4404 59.9028
vt -7.07742 38.3624
v -55.5678 97.3418 59.9324
vt -7.01905 38.3235
f 97/97/59 96/96/59 1080/1080/59 1081/1081/59 1082/1082/59 1083/1083/59 1084/1084/59 1085/1085/59 1079/1079/59 

usemtl Teddy_BookCover
v -55.1958 99.9526 60.0084
vt -6.86957 39.3514
vn -0.200106 6.01776e-15 0.979774
f 1086/1086/60 1082/1082/60 1081/1081/60 1080/1080/60 96/96/60 95/95/60 

g Mesh2 Model

usemtl ____Magenta___
v 72.7 0 -0
vt 0 0
vn 0 -1 -0
v 0 0 -0
vt 1.03441 0
v 0 0 -72.9
vt 1.03441 1.0318
v 72.7 0 -72.9
vt 0 1.0318
f 1087/1087/61 1088/1088/61 1089/1089/61 1090/1090/61 

usemtl ____Yellow___
vn 0 0 1
vt 1 0
v 72.7 70.1 -0
vt 1 0.959162
v 0 70.1 -0
vt 0 0.959162
f 1088/1087/62 1087/1091/62 1091/1092/62 1092/1093/62 

usemtl ________1
vn 1 0 -0
vt 1.03057 0
v 72.7 70.1 -72.9
vt 1.03057 0.990984
vt 0 0.990984
f 1087/1087/63 1090/1094/63 1093/1095/63 1091/1096/63 

usemtl ________
vn 0 0 -1
vt 1.04512 0
v 0 70.1 -72.9
vt 1.04512 1.00774
vt 0 1.00774
f 1090/1087/64 1089/1097/64 1094/1098/64 1093/1099/64 

usemtl ____Cyan___
vn -1 0 -0
vt 1.07134 0
vt 1.07134 1.02477
vt 0 1.02477
f 1089/1087/65 1088/1100/65 1092/1101/65 1094/1102/65 

usemtl _________
vt 0 -1
vn 0 1 -0
vt 0.997257 -1
vt 0.997257 0
f 1092/1103/66 1091/1104/66 1093/1105/66 1094/1087/66 

