# Alias OBJ Model File
# Exported from SketchUp, (c) 2000-2012 Trimble Navigation Limited
# File units = centimeters

mtllib 三次色骰子.mtl

g Mesh1 Teddy1 Model

usemtl Teddy_BookCover
v -38.6844 94.2216 63.4965
vt -0.230083 37.0951
vn -0.00605028 -1.4054e-14 0.999982
v -38.8392 94.1281 63.4955
vt -0.291032 37.0583
v -39.1413 94.0997 63.4937
vt -0.409974 37.0471
v -39.3552 94.1109 63.4924
vt -0.494197 37.0515
v -39.5674 94.1407 63.4911
vt -0.577711 37.0633
v -39.7761 94.189 63.4899
vt -0.659876 37.0823
v -39.9797 94.2555 63.4886
vt -0.740057 37.1084
v -40.1768 94.3395 63.4874
vt -0.81764 37.1415
v -40.3657 94.4404 63.4863
vt -0.892027 37.1813
v -40.5451 94.5575 63.4852
vt -0.962647 37.2274
v -42.131 95.0456 63.4756
vt -1.58704 37.4195
v -42.4515 94.9521 63.4737
vt -1.71323 37.3827
v -42.7291 94.8444 63.472
vt -1.8225 37.3403
v -42.8859 94.5523 63.471
vt -1.88424 37.2253
v -42.4661 94.4593 63.4736
vt -1.71895 37.1887
v -38.2685 93.5289 63.499
vt -0.066354 36.8224
v -37.6255 93.9035 63.5029
vt 0.186816 36.9699
v -34.2978 108.259 63.523
vt 1.49697 42.6215
v -33.1042 107.69 63.5302
vt 1.96691 42.3978
v -31.9169 107.126 63.5374
vt 2.43432 42.1754
v -31.7643 107.826 63.5383
vt 2.4944 42.4513
v -32.1825 108.442 63.5358
vt 2.32978 42.6937
v -34.9886 109.577 63.5188
vt 1.22498 43.1405
v -51.1615 111.473 63.421
vt -5.14241 43.8871
v -51.8412 111.553 63.4169
vt -5.41001 43.9184
v -52.0719 111.58 63.4155
vt -5.50086 43.9291
v -52.1922 111.568 63.4147
vt -5.54822 43.9243
v -52.2961 111.506 63.4141
vt -5.58912 43.8999
v -52.3642 111.406 63.4137
vt -5.61593 43.8606
v -52.4437 111.207 63.4132
vt -5.64724 43.7823
v -52.1983 110.531 63.4147
vt -5.55063 43.5161
v -51.8116 109.252 63.417
vt -5.39837 43.0125
v -51.0395 106.698 63.4217
vt -5.09437 42.0069
v -48.3684 101.407 63.4379
vt -4.04277 39.924
v -46.473 99.4522 63.4493
vt -3.29652 39.1544
v -45.1125 98.3636 63.4576
vt -2.76089 38.7258
v -44.1396 98.0458 63.4635
vt -2.37785 38.6007
v -43.1839 97.6795 63.4692
vt -2.00159 38.4565
v -42.2479 97.2655 63.4749
vt -1.63306 38.2935
v -41.3339 96.805 63.4804
vt -1.27321 38.1122
v -40.4442 96.2991 63.4858
vt -0.922929 37.913
v -39.5811 95.749 63.491
vt -0.583118 37.6965
v -38.7468 95.1562 63.4961
vt -0.254633 37.4631
v -38.6111 95.0366 63.4969
vt -0.201229 37.416
v -38.5188 94.8811 63.4975
vt -0.164896 37.3548
v -38.4788 94.7047 63.4977
vt -0.149155 37.2853
v -38.495 94.5246 63.4976
vt -0.155532 37.2144
v -38.5659 94.3581 63.4972
vt -0.183409 37.1489
f 1/1/1 2/2/1 3/3/1 4/4/1 5/5/1 6/6/1 7/7/1 8/8/1 9/9/1 10/10/1 11/11/1 12/12/1 13/13/1 14/14/1 15/15/1 16/16/1 17/17/1 18/18/1 19/19/1 20/20/1 21/21/1 22/22/1 23/23/1 24/24/1 25/25/1 26/26/1 27/27/1 28/28/1 29/29/1 30/30/1 31/31/1 32/32/1 33/33/1 34/34/1 35/35/1 36/36/1 37/37/1 38/38/1 39/39/1 40/40/1 41/41/1 42/42/1 43/43/1 44/44/1 45/45/1 46/46/1 47/47/1 48/48/1 

usemtl Teddy_Skin_
v -50.35 95.4482 63.4259
vt -4.82291 37.578
vn -0.00605028 -8.0373e-15 0.999982
v -50.1945 95.2117 63.4268
vt -4.76169 37.4849
v -49.5195 94.1851 63.4309
vt -4.49597 37.0807
v -48.0479 92.0213 63.4398
vt -3.91656 36.2288
v -47.7391 91.6325 63.4417
vt -3.795 36.0758
v -47.3764 91.2934 63.4439
vt -3.65221 35.9423
v -46.9678 91.0114 63.4463
vt -3.49132 35.8313
v -46.5221 90.7927 63.449
vt -3.31583 35.7452
v -46.049 90.6421 63.4519
vt -3.12957 35.6859
v -45.5589 90.5627 63.4549
vt -2.93661 35.6546
v -45.0624 90.5565 63.4579
vt -2.74116 35.6521
v -44.8416 90.5865 63.4592
vt -2.65423 35.664
v -44.5704 90.6234 63.4609
vt -2.54747 35.6785
v -44.3512 90.6699 63.4622
vt -2.46114 35.6968
v -43.9236 91.1166 63.4648
vt -2.29279 35.8727
v -43.7034 91.0265 63.4661
vt -2.20612 35.8372
v -43.4716 90.9731 63.4675
vt -2.11486 35.8162
v -43.2343 90.9577 63.4689
vt -2.02141 35.8101
v -42.9975 90.9807 63.4704
vt -1.9282 35.8192
v -42.7676 91.0416 63.4718
vt -1.83767 35.8432
v -42.5505 91.1388 63.4731
vt -1.75218 35.8814
v -42.3518 91.2696 63.4743
vt -1.67398 35.9329
v -42.1769 91.4308 63.4753
vt -1.6051 35.9964
v -40.8578 91.2984 63.4833
vt -1.08576 35.9442
v -39.9659 91.2064 63.4887
vt -0.734622 35.908
v -38.684 91.7861 63.4965
vt -0.229927 36.1362
v -38.2994 92.5654 63.4988
vt -0.0784943 36.4431
v -39.6406 92.8074 63.4907
vt -0.606543 36.5383
v -41.9816 93.3407 63.4765
vt -1.52822 36.7483
v -42.2778 93.4684 63.4747
vt -1.64482 36.7986
v -42.5238 93.7166 63.4732
vt -1.74167 36.8963
v -42.6969 93.8913 63.4722
vt -1.80982 36.9651
v -42.8913 94.2933 63.471
vt -1.88637 37.1233
v -52.3921 109.376 63.4135
vt -5.62693 43.0615
v -52.9841 109.423 63.4099
vt -5.85999 43.0798
v -53.577 109.39 63.4064
vt -6.0934 43.0669
v -54.1602 109.278 63.4028
vt -6.32302 43.023
v -54.7234 109.091 63.3994
vt -6.54478 42.949
v -55.2567 108.829 63.3962
vt -6.75472 42.8462
v -55.7505 108.5 63.3932
vt -6.94913 42.7164
v -56.196 108.107 63.3905
vt -7.12454 42.5618
v -56.5854 107.659 63.3882
vt -7.27786 42.3854
v -56.9117 107.163 63.3862
vt -7.40634 42.1901
v -57.1692 106.628 63.3846
vt -7.50771 41.9794
v -57.3533 106.063 63.3835
vt -7.58016 41.7572
v -57.2147 105.89 63.3843
vt -7.52563 41.6889
v -54.9626 102.464 63.398
vt -6.63895 40.3402
v -50.9337 96.3361 63.4224
vt -5.05275 37.9276
v -50.8558 96.2175 63.4228
vt -5.02205 37.8809
f 49/49/2 50/50/2 51/51/2 52/52/2 53/53/2 54/54/2 55/55/2 56/56/2 57/57/2 58/58/2 59/59/2 60/60/2 61/61/2 62/62/2 63/63/2 64/64/2 65/65/2 66/66/2 67/67/2 68/68/2 69/69/2 70/70/2 71/71/2 72/72/2 73/73/2 74/74/2 75/75/2 76/76/2 77/77/2 78/78/2 79/79/2 80/80/2 81/81/2 14/14/2 13/13/2 12/12/2 11/11/2 10/10/2 9/9/2 8/8/2 7/7/2 6/6/2 5/5/2 4/4/2 3/3/2 2/2/2 1/1/2 48/48/2 47/47/2 46/46/2 45/45/2 44/44/2 43/43/2 42/42/2 41/41/2 40/40/2 39/39/2 38/38/2 37/37/2 36/36/2 35/35/2 34/34/2 33/33/2 32/32/2 82/82/2 83/83/2 84/84/2 85/85/2 86/86/2 87/87/2 88/88/2 89/89/2 90/90/2 91/91/2 92/92/2 93/93/2 94/94/2 95/95/2 96/96/2 97/97/2 

usemtl Teddy_BookJacket
v -55.5535 96.7176 63.3944
vt -6.87158 38.0778
vn -0.00605028 -7.88721e-13 0.999982
v -55.5535 96.5564 63.3944
vt -6.87158 38.0143
v -55.4326 96.405 63.3951
vt -6.824 37.9547
v -53.7934 96.0315 63.405
vt -6.17861 37.8077
v -55.2003 96.6315 63.3965
vt -6.73253 38.0439
v -55.445 97.0109 63.3951
vt -6.82888 38.1933
f 98/98/3 99/99/3 100/100/3 101/101/3 50/50/3 49/49/3 102/102/3 103/103/3 

usemtl Teddy_Dress
vn -0.00605028 -4.32363e-16 0.999982
f 101/101/4 51/51/4 50/50/4

v -53.5952 92.6552 63.4062
vt -6.10057 36.4784
f 104/104/4 51/51/4 101/101/4

f 104/104/4 52/52/4 51/51/4

v -53.6252 91.902 63.4061
vt -6.11239 36.1819
f 105/105/4 52/52/4 104/104/4

f 105/105/4 53/53/4 52/52/4

f 105/105/4 54/54/4 53/53/4

v -53.647 91.0693 63.4059
vt -6.12099 35.8541
f 106/106/4 54/54/4 105/105/4

f 106/106/4 55/55/4 54/54/4

f 106/106/4 56/56/4 55/55/4

f 106/106/4 57/57/4 56/56/4

f 106/106/4 58/58/4 57/57/4

v -53.6598 90.2364 63.4059
vt -6.12602 35.5262
f 107/107/4 58/58/4 106/106/4

f 58/58/4 107/107/4 59/59/4

v -44.5744 90.1319 63.4608
vt -2.54904 35.485
f 107/107/4 108/108/4 59/59/4

v -16.1525 89.803 63.6328
vt 8.6409 35.3555
f 107/107/4 109/109/4 108/108/4

v -53.6635 89.4035 63.4058
vt -6.12747 35.1982
f 110/110/4 109/109/4 107/107/4

v -16.203 89.3203 63.6325
vt 8.62101 35.1655
f 110/110/4 111/111/4 109/109/4

v -16.2553 88.6731 63.6322
vt 8.60042 34.9107
f 110/110/4 112/112/4 111/111/4

v -53.6581 88.5705 63.4059
vt -6.12534 34.8703
f 113/113/4 112/112/4 110/110/4

v -16.3304 88.0104 63.6317
vt 8.57086 34.6498
f 113/113/4 114/114/4 112/112/4

v -53.6476 87.9692 63.4059
vt -6.12123 34.6336
f 115/115/4 114/114/4 113/113/4

v -53.6436 87.7377 63.406
vt -6.11964 34.5424
f 116/116/4 114/114/4 115/115/4

v -16.3783 87.3614 63.6314
vt 8.552 34.3943
f 116/116/4 117/117/4 114/114/4

v -53.62 86.9051 63.4061
vt -6.11037 34.2146
f 118/118/4 117/117/4 116/116/4

v -16.4257 86.7516 63.6311
vt 8.53336 34.1542
f 118/118/4 119/119/4 117/117/4

v -16.4777 86.1979 63.6308
vt 8.51286 33.9362
f 118/118/4 120/120/4 119/119/4

v -53.5874 86.0727 63.4063
vt -6.09752 33.8869
f 121/121/4 120/120/4 118/118/4

v -16.5323 85.6468 63.6305
vt 8.49138 33.7192
f 121/121/4 122/122/4 120/120/4

v -53.5457 85.2408 63.4065
vt -6.0811 33.5594
f 123/123/4 122/122/4 121/121/4

v -16.5695 85.0939 63.6303
vt 8.47675 33.5016
f 123/123/4 124/124/4 122/122/4

v -16.6661 84.5445 63.6297
vt 8.43868 33.2852
f 123/123/4 125/125/4 124/124/4

v -53.4949 84.4094 63.4069
vt -6.0611 33.232
f 126/126/4 125/125/4 123/123/4

v -16.7632 84.0207 63.6291
vt 8.40047 33.079
f 126/126/4 127/127/4 125/125/4

v -53.4351 83.5786 63.4072
vt -6.03754 32.905
f 128/128/4 127/127/4 126/126/4

v -16.8444 83.4473 63.6286
vt 8.36851 32.8533
f 128/128/4 129/129/4 127/127/4

v -16.9805 82.9061 63.6278
vt 8.31492 32.6402
f 128/128/4 130/130/4 129/129/4

v -53.3662 82.7485 63.4076
vt -6.01042 32.5781
f 131/131/4 130/130/4 128/128/4

v -17.0972 82.4108 63.6271
vt 8.26896 32.4452
f 131/131/4 132/132/4 130/130/4

v -53.2882 81.9191 63.4081
vt -5.97973 32.2516
f 133/133/4 132/132/4 131/131/4

v -17.2423 81.8642 63.6262
vt 8.21183 32.23
f 133/133/4 134/134/4 132/132/4

v -17.392 81.3213 63.6253
vt 8.15292 32.0163
f 133/133/4 135/135/4 134/134/4

v -53.2013 81.0907 63.4086
vt -5.94549 31.9255
f 136/136/4 135/135/4 133/133/4

v -17.564 80.782 63.6243
vt 8.08517 31.8039
f 136/136/4 137/137/4 135/135/4

v -17.7109 80.2729 63.6234
vt 8.02735 31.6035
f 136/136/4 138/138/4 137/137/4

v -53.1053 80.2633 63.4092
vt -5.90769 31.5997
f 139/139/4 138/138/4 136/136/4

v -17.8829 79.7641 63.6223
vt 7.95962 31.4032
f 139/139/4 140/140/4 138/138/4

v -53.0002 79.437 63.4098
vt -5.86634 31.2744
f 141/141/4 140/140/4 139/139/4

v -18.0273 79.2301 63.6214
vt 7.90276 31.193
f 141/141/4 142/142/4 140/140/4

v -18.1744 78.7448 63.6206
vt 7.84485 31.0019
f 141/141/4 143/143/4 142/142/4

v -52.8862 78.6119 63.4105
vt -5.82145 30.9496
f 144/144/4 143/143/4 141/141/4

v -18.348 78.265 63.6195
vt 7.77651 30.813
f 144/144/4 145/145/4 143/143/4

v -52.7632 77.788 63.4113
vt -5.77301 30.6252
f 146/146/4 145/145/4 144/144/4

v -18.4914 77.708 63.6186
vt 7.72005 30.5937
f 146/146/4 147/147/4 145/145/4

v -18.859 77.4963 63.6164
vt 7.57533 30.5103
f 146/146/4 148/148/4 147/147/4

v -52.6312 76.9656 63.4121
vt -5.72105 30.3014
f 149/149/4 148/148/4 146/146/4

v -52.4902 76.1446 63.4129
vt -5.66555 29.9782
f 150/150/4 148/148/4 149/149/4

v -52.3404 75.3253 63.4138
vt -5.60654 29.6556
f 151/151/4 148/148/4 150/150/4

v -52.1815 74.5076 63.4148
vt -5.54401 29.3337
f 152/152/4 148/148/4 151/151/4

v -52.0138 73.6917 63.4158
vt -5.47798 29.0125
f 153/153/4 148/148/4 152/152/4

v -51.8372 72.8776 63.4169
vt -5.40844 28.692
f 154/154/4 148/148/4 153/153/4

v -23.9296 69.3666 63.5857
vt 5.57902 27.3097
f 154/154/4 155/155/4 148/148/4

v -22.2409 68.79 63.596
vt 6.24387 27.0827
f 154/154/4 156/156/4 155/155/4

v -25.5739 65.1821 63.5758
vt 4.93161 25.6622
f 154/154/4 157/157/4 156/156/4

v -28.099 62.4489 63.5605
vt 3.93748 24.5862
f 154/154/4 158/158/4 157/157/4

v -27.9895 60.9644 63.5612
vt 3.98057 24.0017
f 154/154/4 159/159/4 158/158/4

v -49.1323 60.7302 63.4333
vt -4.34349 23.9095
f 160/160/4 159/159/4 154/154/4

v -26.5952 59.6228 63.5696
vt 4.52953 23.4736
f 160/160/4 161/161/4 159/159/4

v -21.3416 58.8922 63.6014
vt 6.5979 23.1859
f 160/160/4 162/162/4 161/161/4

v -21.4111 58.5636 63.601
vt 6.57057 23.0565
f 160/160/4 163/163/4 162/162/4

v -48.7942 57.8539 63.4353
vt -4.21041 22.7771
f 164/164/4 163/163/4 160/160/4

v -21.5036 57.314 63.6004
vt 6.53412 22.5646
f 164/164/4 165/165/4 163/163/4

v -21.4573 56.157 63.6007
vt 6.55235 22.109
f 164/164/4 166/166/4 165/165/4

v -21.4083 55.1114 63.601
vt 6.57166 21.6974
f 164/164/4 167/167/4 166/166/4

v -21.5305 54.8982 63.6003
vt 6.52356 21.6135
f 164/164/4 168/168/4 167/167/4

v -26.6288 54.1582 63.5694
vt 4.5163 21.3221
f 164/164/4 169/169/4 168/168/4

v -49.0493 53.8845 63.4338
vt -4.31083 21.2144
f 170/170/4 169/169/4 164/164/4

v -49.4534 53.2418 63.4313
vt -4.46991 20.9613
f 171/171/4 169/169/4 170/170/4

v -33.8752 53.1065 63.5256
vt 1.66333 20.9081
f 171/171/4 172/172/4 169/169/4

v -35.1122 52.9269 63.5181
vt 1.17633 20.8374
f 171/171/4 173/173/4 172/172/4

v -35.3475 52.9039 63.5167
vt 1.08369 20.8283
f 171/171/4 174/174/4 173/173/4

v -48.7889 52.2449 63.4353
vt -4.2083 20.5689
f 175/175/4 174/174/4 171/171/4

v -46.9734 52.1798 63.4463
vt -3.49354 20.5432
f 176/176/4 174/174/4 175/175/4

v -43.8705 52.0685 63.4651
vt -2.2719 20.4994
f 174/174/4 176/176/4 177/177/4

usemtl Teddy_Skin_
v -49.2877 44.6902 63.4323
vt -4.40468 17.5946
vn -0.00605028 -1.74896e-15 0.999982
v -49.2693 44.1284 63.4324
vt -4.39744 17.3734
v -49.223 43.5683 63.4327
vt -4.37921 17.1529
v -49.1489 43.0111 63.4331
vt -4.35006 16.9335
v -49.0473 42.4582 63.4338
vt -4.31004 16.7158
v -48.9183 41.9112 63.4345
vt -4.25926 16.5005
v -48.7623 41.3711 63.4355
vt -4.19784 16.2879
v -48.3379 39.5682 63.4381
vt -4.03076 15.578
v -47.1291 33.2113 63.4454
vt -3.55485 13.0753
v -45.9204 26.8543 63.4527
vt -3.07894 10.5726
v -45.9096 20.4428 63.4527
vt -3.07471 8.04835
v -46.5646 13.4359 63.4488
vt -3.33257 5.28973
v -46.7323 9.94191 63.4478
vt -3.39861 3.91414
v -46.7733 9.08877 63.4475
vt -3.41473 3.57826
v -46.7853 7.78602 63.4475
vt -3.41948 3.06536
v -46.7083 7.29284 63.4479
vt -3.38916 2.8712
v -46.5585 6.81493 63.4488
vt -3.33016 2.68304
v -46.3388 6.36187 63.4502
vt -3.24367 2.50467
v -46.0537 5.94277 63.4519
vt -3.13143 2.33967
v -45.7089 5.56604 63.454
vt -2.99568 2.19135
v -45.3279 5.205 63.4563
vt -2.84568 2.04921
v -44.0099 4.62118 63.4642
vt -2.32676 1.81936
v -42.5606 4.49834 63.473
vt -1.75616 1.771
v -41.154 4.85123 63.4815
vt -1.20238 1.90993
v -39.959 5.63749 63.4888
vt -0.731911 2.21948
v -39.3677 6.42972 63.4923
vt -0.499092 2.53139
v -39.1191 6.76272 63.4938
vt -0.401234 2.66249
v -38.9999 7.03636 63.4946
vt -0.354297 2.77022
v -39.3205 9.25085 63.4926
vt -0.480509 3.64207
v -39.2966 14.1032 63.4928
vt -0.471122 5.55244
v -39.8689 18.7238 63.4893
vt -0.696428 7.37156
v -40.4081 23.0776 63.486
vt -0.90873 9.08568
v -40.5474 27.8157 63.4852
vt -0.963561 10.9511
v -39.9268 31.2652 63.4889
vt -0.719231 12.3091
v -37.992 36.356 63.5007
vt 0.0425127 14.3134
v -37.8379 36.8258 63.5016
vt 0.103201 14.4984
v -37.6945 37.299 63.5025
vt 0.159663 14.6847
v -37.5619 37.7754 63.5033
vt 0.211871 14.8722
v -37.4401 38.2546 63.504
vt 0.259798 15.0609
v -37.3293 38.7365 63.5047
vt 0.303418 15.2506
v -37.2295 39.2208 63.5053
vt 0.342709 15.4413
v -37.1408 39.7072 63.5058
vt 0.37765 15.6328
v -37.0631 40.1956 63.5063
vt 0.408225 15.825
v -36.9966 40.6855 63.5067
vt 0.434416 16.0179
v -36.9412 41.1769 63.507
vt 0.45621 16.2114
v -36.8971 41.6694 63.5073
vt 0.473596 16.4053
v -36.8641 42.1627 63.5075
vt 0.486565 16.5995
v -36.5277 48.2425 63.5095
vt 0.619039 18.9931
v -35.7893 52.0404 63.514
vt 0.909728 20.4883
v -35.63 52.3518 63.5149
vt 0.972459 20.6109
v -48.5994 48.3331 63.4365
vt -4.1337 19.0288
v -49.1755 46.3713 63.433
vt -4.3605 18.2564
v -49.2407 45.8131 63.4326
vt -4.38619 18.0366
v -49.2782 45.2522 63.4324
vt -4.40093 17.8158
f 178/178/5 179/179/5 180/180/5 181/181/5 182/182/5 183/183/5 184/184/5 185/185/5 186/186/5 187/187/5 188/188/5 189/189/5 190/190/5 191/191/5 192/192/5 193/193/5 194/194/5 195/195/5 196/196/5 197/197/5 198/198/5 199/199/5 200/200/5 201/201/5 202/202/5 203/203/5 204/204/5 205/205/5 206/206/5 207/207/5 208/208/5 209/209/5 210/210/5 211/211/5 212/212/5 213/213/5 214/214/5 215/215/5 216/216/5 217/217/5 218/218/5 219/219/5 220/220/5 221/221/5 222/222/5 223/223/5 224/224/5 225/225/5 226/226/5 227/227/5 174/174/5 177/177/5 176/176/5 228/228/5 229/229/5 230/230/5 231/231/5 

usemtl Teddy_Shoes
v -47.5146 9.88061 63.443
vt -3.70662 3.89
vn -0.00605028 -3.57574e-14 0.999982
v -47.5697 9.13378 63.4427
vt -3.72831 3.59598
v -47.5856 8.38528 63.4426
vt -3.73454 3.30129
v -47.5384 6.97827 63.4429
vt -3.71597 2.74735
v -47.4115 5.5757 63.4437
vt -3.666 2.19516
v -47.2748 4.70433 63.4445
vt -3.61218 1.8521
v -47.2317 4.48361 63.4447
vt -3.59524 1.7652
v -47.2086 4.36483 63.4449
vt -3.58612 1.71844
v -47.0804 4.0661 63.4457
vt -3.53566 1.60083
v -46.794 3.39845 63.4474
vt -3.42288 1.33797
v -46.6631 3.09353 63.4482
vt -3.37137 1.21793
v -45.8578 1.95277 63.4531
vt -3.05429 0.768807
v -44.8257 0.989562 63.4593
vt -2.64795 0.389591
v -44.2175 0.616588 63.463
vt -2.40853 0.242751
v -43.7078 0.351051 63.4661
vt -2.20783 0.138209
v -43.1631 0.157374 63.4694
vt -1.99338 0.0619581
v -42.5948 0.0395472 63.4728
vt -1.76962 0.0155697
v -42.0145 0 63.4763
vt -1.54115 -2.847e-27
v -41.4342 0.0395472 63.4798
vt -1.31268 0.0155697
v -40.8658 0.157374 63.4833
vt -1.08892 0.0619581
v -40.4635 0.300419 63.4857
vt -0.93054 0.118275
v -40.3211 0.351051 63.4866
vt -0.874479 0.138209
v -39.8114 0.616588 63.4896
vt -0.673777 0.242751
v -39.4632 0.955262 63.4918
vt -0.536708 0.376087
v -38.847 1.86165 63.4955
vt -0.294119 0.732934
v -38.6491 2.34208 63.4967
vt -0.216188 0.92208
v -38.4333 2.86589 63.498
vt -0.131221 1.1283
v -38.2385 3.92795 63.4992
vt -0.0545093 1.54644
v -38.251 4.35386 63.4991
vt -0.0594622 1.71412
v -38.3617 4.65511 63.4984
vt -0.10305 1.83272
v -38.5152 5.24414 63.4975
vt -0.163464 2.06462
v -38.6102 5.84412 63.4969
vt -0.200866 2.30083
v -38.8248 6.43445 63.4956
vt -0.285362 2.53325
v -46.9058 12.8145 63.4467
vt -3.46691 5.04507
v -47.1156 12.0927 63.4455
vt -3.54952 4.7609
v -47.2873 11.3619 63.4444
vt -3.61712 4.47318
v -47.4204 10.6239 63.4436
vt -3.66953 4.18265
f 232/232/6 233/233/6 234/234/6 235/235/6 236/236/6 237/237/6 238/238/6 239/239/6 240/240/6 241/241/6 242/242/6 243/243/6 244/244/6 245/245/6 246/246/6 247/247/6 248/248/6 249/249/6 250/250/6 251/251/6 252/252/6 253/253/6 254/254/6 255/255/6 256/256/6 257/257/6 258/258/6 259/259/6 260/260/6 261/261/6 262/262/6 263/263/6 264/264/6 205/205/6 204/204/6 203/203/6 202/202/6 201/201/6 200/200/6 199/199/6 198/198/6 197/197/6 196/196/6 195/195/6 194/194/6 193/193/6 192/192/6 191/191/6 190/190/6 189/189/6 265/265/6 266/266/6 267/267/6 268/268/6 

v -30.4647 6.90916 63.5462
vt 3.00606 2.72014
vn -0.00605028 -5.46912e-15 0.999982
v -30.6378 7.26471 63.5451
vt 2.93793 2.86012
v -31.0242 6.68665 63.5428
vt 2.78581 2.63254
v -32.1946 5.94207 63.5357
vt 2.32501 2.3394
v -33.5207 5.48812 63.5277
vt 1.80292 2.16068
v -34.9235 5.35184 63.5192
vt 1.25062 2.10702
v -36.3195 5.54133 63.5108
vt 0.700998 2.18163
v -37.6256 6.04532 63.5029
vt 0.186765 2.38005
v -37.9013 6.23623 63.5012
vt 0.0782395 2.45521
v -38.7721 6.83517 63.4959
vt -0.264599 2.69101
v -37.9531 1.84278 63.5009
vt 0.0578164 0.725504
v -37.1928 1.44831 63.5055
vt 0.357152 0.570201
v -36.3839 1.16681 63.5104
vt 0.675646 0.459376
v -35.543 1.00409 63.5155
vt 1.00673 0.395312
v -34.6874 0.963505 63.5206
vt 1.34358 0.379333
v -33.8348 1.04589 63.5258
vt 1.67924 0.411766
v -33.0028 1.24954 63.5308
vt 2.00679 0.491943
v -32.2086 1.57026 63.5356
vt 2.31949 0.618211
v -31.4685 2.00143 63.5401
vt 2.61087 0.787966
v -30.7978 2.53418 63.5442
vt 2.87493 0.997707
v -30.2103 3.1575 63.5477
vt 3.10623 1.24311
v -29.9642 3.50802 63.5492
vt 3.20311 1.38111
v -29.679 4.21684 63.551
vt 3.31543 1.66017
v -29.7586 4.66328 63.5505
vt 3.28409 1.83594
v -29.8357 5.04791 63.55
vt 3.25374 1.98737
v -29.8633 5.16068 63.5498
vt 3.24284 2.03176
v -29.9292 5.42925 63.5494
vt 3.21689 2.1375
v -30.0391 5.80667 63.5488
vt 3.17363 2.28609
v -30.1652 6.17953 63.548
vt 3.12401 2.43289
v -30.3071 6.54724 63.5472
vt 3.06813 2.57765
f 269/269/7 270/270/7 271/271/7 272/272/7 273/273/7 274/274/7 275/275/7 276/276/7 277/277/7 278/278/7 205/205/7 264/264/7 263/263/7 262/262/7 261/261/7 260/260/7 259/259/7 258/258/7 257/257/7 279/279/7 280/280/7 281/281/7 282/282/7 283/283/7 284/284/7 285/285/7 286/286/7 287/287/7 288/288/7 289/289/7 290/290/7 291/291/7 292/292/7 293/293/7 294/294/7 295/295/7 296/296/7 297/297/7 298/298/7 

usemtl Teddy_Skin_
vn -0.00605028 -1.02626e-14 0.999982
v -35.217 52.2987 63.5174
vt 1.13508 20.59
v -35.8125 48.9275 63.5138
vt 0.900588 19.2628
v -36.0938 45.8144 63.5121
vt 0.789871 18.0372
v -36.4697 42.7113 63.5099
vt 0.64187 16.8155
v -37.8173 33.5109 63.5017
vt 0.111286 13.1932
v -37.8944 32.375 63.5012
vt 0.0809494 12.7461
v -38.214 27.6644 63.4993
vt -0.0448714 10.8915
v -39.7574 20.2311 63.49
vt -0.652515 7.96499
v -30.826 7.61329 63.544
vt 2.86383 2.99736
v -31.029 7.95433 63.5428
vt 2.7839 3.13163
v -31.2465 8.28726 63.5415
vt 2.69826 3.2627
v -31.4782 8.61153 63.5401
vt 2.60706 3.39037
v -31.7236 8.9266 63.5386
vt 2.51044 3.51441
v -33.1365 13.3556 63.53
vt 1.95418 5.2581
v -33.4519 19.4979 63.5281
vt 1.82997 7.67634
v -32.3534 24.4501 63.5348
vt 2.26249 9.62602
v -28.975 34.1496 63.5552
vt 3.5926 13.4447
v -27.3006 40.6733 63.5653
vt 4.25182 16.0131
v -26.5236 45.8913 63.57
vt 4.55771 18.0674
v -26.3936 48.3331 63.5708
vt 4.60891 19.0288
v -26.6179 53.7487 63.5695
vt 4.52059 21.1609
f 172/172/8 173/173/8 299/299/8 300/300/8 301/301/8 302/302/8 218/218/8 217/217/8 216/216/8 215/215/8 214/214/8 213/213/8 212/212/8 303/303/8 304/304/8 305/305/8 306/306/8 208/208/8 207/207/8 206/206/8 205/205/8 278/278/8 277/277/8 276/276/8 275/275/8 274/274/8 273/273/8 272/272/8 271/271/8 270/270/8 307/307/8 308/308/8 309/309/8 310/310/8 311/311/8 312/312/8 313/313/8 314/314/8 315/315/8 316/316/8 317/317/8 318/318/8 319/319/8 169/169/8 

usemtl Teddy_SkinShadow_
vn -0.00605028 -1.01631e-15 0.999982
f 219/219/9 218/218/9 302/302/9 301/301/9 300/300/9 299/299/9 173/173/9 174/174/9 227/227/9 226/226/9 225/225/9 224/224/9 223/223/9 222/222/9 221/221/9 220/220/9 

usemtl Teddy_Dress
v -21.0635 61.564 63.6031
vt 6.70741 24.2378
f 320/320/4 161/161/4 162/162/4

v -25.2054 61.3701 63.578
vt 5.07672 24.1615
f 161/161/4 320/320/4 321/321/4

v -23.8001 63.9944 63.5865
vt 5.63 25.1947
f 321/321/4 320/320/4 322/322/4

v -21.0125 62.0777 63.6034
vt 6.72747 24.44
f 322/322/4 320/320/4 323/323/4

v -20.9895 62.5932 63.6035
vt 6.73654 24.643
f 322/322/4 323/323/4 324/324/4

v -20.9467 63.1588 63.6038
vt 6.75339 24.8657
f 322/322/4 324/324/4 325/325/4

v -20.903 63.6803 63.604
vt 6.77061 25.071
f 322/322/4 325/325/4 326/326/4

v -20.8599 64.2537 63.6043
vt 6.78758 25.2967
f 322/322/4 326/326/4 327/327/4

v -22.584 66.0421 63.5939
vt 6.10876 26.0008
f 322/322/4 327/327/4 328/328/4

v -20.8148 64.8103 63.6046
vt 6.80531 25.5159
f 328/328/4 327/327/4 329/329/4

v -20.7694 65.3643 63.6049
vt 6.82321 25.734
f 328/328/4 329/329/4 330/330/4

v -20.7237 65.8936 63.6051
vt 6.84119 25.9424
f 328/328/4 330/330/4 331/331/4

v -20.6777 66.5548 63.6054
vt 6.85928 26.2027
f 328/328/4 331/331/4 332/332/4

v -21.1946 67.9763 63.6023
vt 6.65578 26.7623
f 328/328/4 332/332/4 333/333/4

v -20.6039 67.1008 63.6059
vt 6.88835 26.4176
f 333/333/4 332/332/4 334/334/4

v -20.5522 67.6345 63.6062
vt 6.90871 26.6278
f 333/333/4 334/334/4 335/335/4

v -20.5021 68.1952 63.6065
vt 6.92843 26.8485
f 333/333/4 335/335/4 336/336/4

v -20.3704 69.4241 63.6073
vt 6.98027 27.3323
f 333/333/4 336/336/4 337/337/4

v -20.424 68.8041 63.6069
vt 6.95918 27.0882
f 337/337/4 336/336/4 338/338/4

v -20.1212 71.1838 63.6088
vt 7.07841 28.0251
f 333/333/4 337/337/4 339/339/4

v -20.2914 69.9427 63.6077
vt 7.0114 27.5365
f 339/339/4 337/337/4 340/340/4

v -20.2069 70.5581 63.6083
vt 7.04467 27.7788
f 339/339/4 340/340/4 341/341/4

v -20.0321 71.7278 63.6093
vt 7.11347 28.2393
f 333/333/4 339/339/4 342/342/4

v -19.9418 72.2661 63.6099
vt 7.14904 28.4512
f 333/333/4 342/342/4 343/343/4

usemtl Teddy_DressDepth
vn -0.00605028 2.02092e-14 0.999982
f 333/333/10 343/343/10 156/156/10 157/157/10 158/158/10 159/159/10 161/161/10 321/321/10 322/322/10 328/328/10 

usemtl Teddy_Dress
f 343/343/4 155/155/4 156/156/4

v -20.5558 73.0018 63.6061
vt 6.9073 28.7409
f 155/155/4 343/343/4 344/344/4

v -19.8229 72.7684 63.6106
vt 7.19584 28.649
f 344/344/4 343/343/4 345/345/4

v -19.6979 73.2826 63.6113
vt 7.24506 28.8514
f 344/344/4 345/345/4 346/346/4

f 344/344/4 346/346/4 148/148/4

v -19.5409 73.8227 63.6123
vt 7.30687 29.0641
f 148/148/4 346/346/4 347/347/4

v -19.4018 74.3934 63.6131
vt 7.36163 29.2887
f 148/148/4 347/347/4 348/348/4

v -19.2347 74.9462 63.6141
vt 7.42741 29.5064
f 148/148/4 348/348/4 349/349/4

v -19.0884 75.501 63.615
vt 7.48502 29.7248
f 148/148/4 349/349/4 350/350/4

v -18.9452 76.0298 63.6159
vt 7.5414 29.933
f 148/148/4 350/350/4 351/351/4

v -18.8297 76.524 63.6166
vt 7.58688 30.1276
f 148/148/4 351/351/4 352/352/4

v -18.6388 77.1477 63.6177
vt 7.66203 30.3731
f 148/148/4 352/352/4 353/353/4

f 148/148/4 353/353/4 147/147/4

usemtl Teddy_DressDepth
vn -0.00605028 3.75026e-14 0.999982
f 148/148/11 155/155/11 344/344/11

usemtl Teddy_Dress
v -16.1297 90.3638 63.6329
vt 8.64989 35.5763
f 354/354/4 108/108/4 109/109/4

v -42.7895 90.1974 63.4716
vt -1.8463 35.5108
f 108/108/4 354/354/4 355/355/4

v -42.4048 90.6517 63.474
vt -1.69482 35.6897
f 355/355/4 354/354/4 356/356/4

v -16.1148 90.9222 63.633
vt 8.65574 35.7961
f 356/356/4 354/354/4 357/357/4

v -41.512 90.6727 63.4794
vt -1.34332 35.6979
f 356/356/4 357/357/4 358/358/4

f 358/358/4 357/357/4 73/73/4

v -16.1045 91.527 63.6331
vt 8.6598 36.0342
f 359/359/4 73/73/4 357/357/4

f 73/73/4 359/359/4 74/74/4

v -16.0987 92.1208 63.6331
vt 8.66209 36.268
f 74/74/4 359/359/4 360/360/4

v -36.177 92.2037 63.5116
vt 0.757084 36.3007
f 74/74/4 360/360/4 361/361/4

v -16.095 92.6891 63.6331
vt 8.66354 36.4918
f 362/362/4 361/361/4 360/360/4

v -35.1809 92.5024 63.5177
vt 1.14926 36.4183
f 361/361/4 362/362/4 363/363/4

f 363/363/4 362/362/4 20/20/4

v -16.1204 93.2836 63.633
vt 8.65354 36.7258
f 20/20/4 362/362/4 364/364/4

v -16.1246 93.852 63.633
vt 8.65191 36.9496
f 20/20/4 364/364/4 365/365/4

v -16.1553 94.3874 63.6328
vt 8.6398 37.1604
f 20/20/4 365/365/4 366/366/4

v -16.1922 95.0273 63.6326
vt 8.62528 37.4123
f 20/20/4 366/366/4 367/367/4

v -16.2308 95.5711 63.6323
vt 8.61007 37.6264
f 20/20/4 367/367/4 368/368/4

v -16.2453 96.1028 63.6322
vt 8.60436 37.8358
f 20/20/4 368/368/4 369/369/4

v -16.2558 96.7441 63.6322
vt 8.60025 38.0882
f 20/20/4 369/369/4 370/370/4

v -16.2632 97.2576 63.6321
vt 8.59733 38.2904
f 20/20/4 370/370/4 371/371/4

v -16.2671 97.783 63.6321
vt 8.59577 38.4972
f 20/20/4 371/371/4 372/372/4

v -16.2975 98.3646 63.6319
vt 8.58382 38.7262
f 20/20/4 372/372/4 373/373/4

v -16.3047 98.9458 63.6319
vt 8.58098 38.955
f 20/20/4 373/373/4 374/374/4

v -16.8409 102.132 63.6286
vt 8.3699 40.2096
f 20/20/4 374/374/4 375/375/4

v -16.9169 102.521 63.6282
vt 8.33996 40.3628
f 20/20/4 375/375/4 376/376/4

v -17.4757 105.337 63.6248
vt 8.11996 41.4711
f 20/20/4 376/376/4 377/377/4

v -17.581 105.392 63.6241
vt 8.07848 41.4929
f 20/20/4 377/377/4 378/378/4

usemtl Teddy_Skin_
v -19.9614 111.36 63.6097
vt 7.14133 43.8424
vn -0.00605028 -1.07191e-15 0.999982
v -19.8391 111.22 63.6105
vt 7.18945 43.7872
v -19.5744 109.734 63.6121
vt 7.29369 43.2025
v -19.5434 109.573 63.6123
vt 7.3059 43.1391
v -19.66 109.487 63.6116
vt 7.25996 43.1052
v -20.1407 109.495 63.6087
vt 7.0707 43.1081
v -21.2225 109.493 63.6021
vt 6.64482 43.1077
v -22.5445 109.5 63.5941
vt 6.12431 43.1104
v -22.7826 109.467 63.5927
vt 6.03059 43.0973
v -23.0644 109.242 63.591
vt 5.91962 43.0088
v -23.0182 108.885 63.5913
vt 5.93781 42.868
v -22.7815 108.613 63.5927
vt 6.03102 42.7609
v -22.353 108.395 63.5953
vt 6.1997 42.675
v -21.9946 108.355 63.5974
vt 6.34082 42.6596
v -21.6362 108.316 63.5996
vt 6.48193 42.6441
v -20.5548 108.291 63.6062
vt 6.90769 42.6341
v -19.8451 108.163 63.6104
vt 7.1871 42.5837
v -19.3326 107.655 63.6136
vt 7.38888 42.3839
v -18.9775 107.331 63.6157
vt 7.52867 42.2563
v -18.636 106.696 63.6178
vt 7.66313 42.0063
v -18.3793 106.153 63.6193
vt 7.76421 41.7923
v -17.8916 105.575 63.6223
vt 7.9562 41.565
v -17.2619 105.224 63.6261
vt 8.20414 41.4268
v -17.0339 105.148 63.6275
vt 8.2939 41.3968
v -16.5536 105.127 63.6304
vt 8.483 41.3886
v -16.0756 105.179 63.6333
vt 8.67117 41.4091
v -15.3911 105.406 63.6374
vt 8.94069 41.4984
v -16.0831 108.359 63.6332
vt 8.66824 42.6609
v -16.2675 108.765 63.6321
vt 8.59563 42.821
v -16.7032 109.369 63.6295
vt 8.42408 43.0585
v -17.3702 110.66 63.6254
vt 8.16149 43.5669
v -18.3108 112.152 63.6197
vt 7.79115 44.1544
v -18.8572 112.908 63.6164
vt 7.57606 44.4522
v -19.4139 113.631 63.6131
vt 7.35685 44.7365
v -19.6687 113.967 63.6115
vt 7.25656 44.8687
v -19.8173 114.125 63.6106
vt 7.19804 44.9309
v -20.402 114.504 63.6071
vt 6.96786 45.0803
v -21.2105 114.841 63.6022
vt 6.64954 45.2128
v -21.6865 114.908 63.5993
vt 6.46212 45.2393
v -22.7563 115.068 63.5928
vt 6.04093 45.3023
v -23.1117 115.007 63.5907
vt 5.90103 45.2782
v -23.4387 114.654 63.5887
vt 5.77227 45.1394
v -23.4325 114.231 63.5887
vt 5.77472 44.9729
v -23.2706 114.052 63.5897
vt 5.83844 44.9023
v -22.9682 113.855 63.5916
vt 5.95749 44.825
v -22.3763 113.752 63.5951
vt 6.19054 44.7841
v -21.4441 113.587 63.6008
vt 6.55758 44.7191
v -21.0904 113.501 63.6029
vt 6.69681 44.6855
v -20.2733 113.258 63.6079
vt 7.01852 44.5898
v -19.9102 112.902 63.6101
vt 7.16145 44.4497
f 379/379/12 380/380/12 381/381/12 382/382/12 383/383/12 384/384/12 385/385/12 386/386/12 387/387/12 388/388/12 389/389/12 390/390/12 391/391/12 392/392/12 393/393/12 394/394/12 395/395/12 396/396/12 397/397/12 398/398/12 399/399/12 400/400/12 378/378/12 377/377/12 401/401/12 402/402/12 403/403/12 404/404/12 405/405/12 406/406/12 407/407/12 408/408/12 409/409/12 410/410/12 411/411/12 412/412/12 413/413/12 414/414/12 415/415/12 416/416/12 417/417/12 418/418/12 419/419/12 420/420/12 421/421/12 422/422/12 423/423/12 424/424/12 425/425/12 426/426/12 427/427/12 428/428/12 

usemtl Teddy_SkinShadow_
vn -0.00605028 1.34684e-13 0.999982
vn -0.00605028 6.81939e-14 0.999982
v -20.3784 111.599 63.6072
vt 6.97714 43.9366
v -21.0724 111.795 63.603
vt 6.70389 44.0137
v -21.5473 111.87 63.6002
vt 6.51692 44.0432
v -22.2683 111.887 63.5958
vt 6.23308 44.0499
v -21.5345 111.763 63.6002
vt 6.52199 44.0011
v -20.9523 111.638 63.6038
vt 6.75119 43.952
v -20.5251 111.508 63.6063
vt 6.91939 43.9009
f 380/380/13 379/379/14 429/429/14 430/430/14 431/431/14 432/432/14 433/433/13 434/434/13 435/435/13 

usemtl Teddy_Skin_
vn -0.00605028 1.70371e-15 0.999982
v -20.2122 113.122 63.6082
vt 7.04259 44.5364
v -20.816 113.266 63.6046
vt 6.80486 44.5929
v -21.7746 113.269 63.5988
vt 6.42746 44.5942
v -22.6398 113.271 63.5935
vt 6.08682 44.5951
v -23.6894 113.204 63.5872
vt 5.67355 44.5685
v -24.4089 113.155 63.5828
vt 5.39029 44.5491
v -24.8692 113.016 63.5801
vt 5.20908 44.4945
v -25.0496 112.704 63.579
vt 5.13803 44.3716
v -25.0313 112.344 63.5791
vt 5.14525 44.2298
v -24.7717 112.093 63.5806
vt 5.24747 44.1313
v -24.4283 111.983 63.5827
vt 5.38266 44.088
v -24.0077 111.979 63.5853
vt 5.54827 44.0861
v -23.4382 111.974 63.5887
vt 5.77247 44.0842
v -22.9865 111.952 63.5914
vt 5.95032 44.0755
f 429/429/14 379/379/14 428/428/15 436/436/15 437/437/15 438/438/15 439/439/15 440/440/15 441/441/15 442/442/15 443/443/15 444/444/15 445/445/15 446/446/15 447/447/15 448/448/15 449/449/15 432/432/14 431/431/14 430/430/14 

usemtl Teddy_SkinShadow_
vn -0.00605028 -1.05863e-13 0.999982
f 437/437/16 436/436/16 428/428/16 427/427/16 426/426/16 

usemtl Teddy_Dress
f 426/426/4 438/438/4 437/437/4

f 438/438/4 426/426/4 439/439/4

v -51.6587 114.977 63.418
vt -5.33816 45.2667
f 450/450/4 439/439/4 426/426/4

f 450/450/4 440/440/4 439/439/4

f 450/450/4 441/441/4 440/440/4

f 450/450/4 442/442/4 441/441/4

f 450/450/4 443/443/4 442/442/4

f 450/450/4 444/444/4 443/443/4

f 450/450/4 445/445/4 444/444/4

f 450/450/4 446/446/4 445/445/4

v -24.4825 111.903 63.5824
vt 5.36132 44.0564
f 450/450/4 451/451/4 446/446/4

v -24.6755 111.76 63.5812
vt 5.28534 44
f 450/450/4 452/452/4 451/451/4

f 25/25/4 452/452/4 450/450/4

f 24/24/4 452/452/4 25/25/4

v -24.7377 111.405 63.5808
vt 5.26085 43.8602
f 24/24/4 453/453/4 452/452/4

v -24.6076 111.069 63.5816
vt 5.31205 43.7278
f 24/24/4 454/454/4 453/453/4

v -24.1246 110.753 63.5846
vt 5.50224 43.6036
f 24/24/4 455/455/4 454/454/4

v -23.4273 110.636 63.5888
vt 5.77677 43.5575
f 24/24/4 456/456/4 455/455/4

v -22.2661 110.463 63.5958
vt 6.23395 43.4894
f 24/24/4 457/457/4 456/456/4

v -21.368 110.315 63.6012
vt 6.58752 43.431
f 24/24/4 458/458/4 457/457/4

v -20.8256 110.154 63.6045
vt 6.80107 43.3677
f 24/24/4 459/459/4 458/458/4

v -20.1427 109.948 63.6086
vt 7.06995 43.2868
f 24/24/4 460/460/4 459/459/4

v -19.9716 109.891 63.6097
vt 7.1373 43.2644
f 24/24/4 461/461/4 460/460/4

v -20.0178 109.663 63.6094
vt 7.11911 43.1744
f 24/24/4 462/462/4 461/461/4

f 23/23/4 462/462/4 24/24/4

f 386/386/4 462/462/4 23/23/4

f 386/386/4 384/384/4 462/462/4

f 384/384/4 386/386/4 385/385/4

usemtl Teddy_DressShadow
vn -0.00605028 6.31873e-14 0.999982
f 462/462/17 384/384/17 383/383/17 382/382/17 381/381/17 461/461/17 

usemtl Teddy_Skin_
vn -0.00605028 -8.09068e-15 0.999982
f 380/380/18 435/435/18 434/434/18 433/433/18 432/432/18 449/449/18 448/448/18 447/447/18 451/451/18 452/452/18 453/453/18 454/454/18 455/455/18 456/456/18 457/457/18 458/458/18 459/459/18 460/460/18 461/461/18 381/381/18 

usemtl Teddy_Dress
f 446/446/4 451/451/4 447/447/4

f 23/23/4 387/387/4 386/386/4

f 23/23/4 388/388/4 387/387/4

f 23/23/4 389/389/4 388/388/4

f 23/23/4 390/390/4 389/389/4

f 22/22/4 390/390/4 23/23/4

f 22/22/4 391/391/4 390/390/4

f 22/22/4 392/392/4 391/391/4

v -21.5332 108.235 63.6002
vt 6.52246 42.6123
f 22/22/4 463/463/4 392/392/4

v -20.7 108.119 63.6053
vt 6.85052 42.5665
f 22/22/4 464/464/4 463/463/4

f 21/21/4 464/464/4 22/22/4

v -19.9845 107.731 63.6096
vt 7.13221 42.4138
f 21/21/4 465/465/4 464/464/4

v -19.6522 107.384 63.6116
vt 7.26305 42.277
f 21/21/4 466/466/4 465/465/4

f 20/20/4 466/466/4 21/21/4

v -19.2993 107.057 63.6138
vt 7.40197 42.1485
f 20/20/4 467/467/4 466/466/4

v -18.8478 106.506 63.6165
vt 7.57975 41.9314
f 20/20/4 468/468/4 467/467/4

v -18.5404 106.136 63.6183
vt 7.70076 41.7859
f 20/20/4 469/469/4 468/468/4

v -18.2926 105.874 63.6198
vt 7.79834 41.6828
f 20/20/4 470/470/4 469/469/4

f 20/20/4 400/400/4 470/470/4

f 20/20/4 378/378/4 400/400/4

usemtl Teddy_DressShadow
vn -0.00605028 2.3386e-14 0.999982
f 392/392/19 463/463/19 464/464/19 465/465/19 466/466/19 467/467/19 468/468/19 469/469/19 470/470/19 400/400/19 399/399/19 398/398/19 397/397/19 396/396/19 395/395/19 394/394/19 393/393/19 

usemtl Teddy_Dress
f 450/450/4 426/426/4 425/425/4

f 450/450/4 425/425/4 424/424/4

f 450/450/4 424/424/4 423/423/4

f 450/450/4 423/423/4 422/422/4

f 450/450/4 422/422/4 421/421/4

f 450/450/4 421/421/4 420/420/4

f 450/450/4 420/420/4 419/419/4

v -51.6101 115.889 63.4183
vt -5.31904 45.6254
f 450/450/4 419/419/4 471/471/4

f 471/471/4 419/419/4 418/418/4

v -19.8715 117.086 63.6103
vt 7.17672 46.0968
f 418/418/4 472/472/4 471/471/4

f 417/417/4 472/472/4 418/418/4

f 416/416/4 472/472/4 417/417/4

f 415/415/4 472/472/4 416/416/4

f 472/472/4 415/415/4 414/414/4

v -51.341 120.938 63.4199
vt -5.21309 47.6135
f 471/471/4 472/472/4 473/473/4

v -19.0874 121.845 63.615
vt 7.4854 47.9705
f 473/473/4 472/472/4 474/474/4

v -51.6223 124.31 63.4182
vt -5.32385 48.9408
f 473/473/4 474/474/4 475/475/4

v -18.5072 122.891 63.6185
vt 7.71384 48.3823
f 475/475/4 474/474/4 476/476/4

usemtl FrontColor
vn -0.00605028 6.9458e-12 0.999982
v -18.8328 122.264 63.6166
vt 7.58564 48.1353
v -18.6002 122.695 63.618
vt 7.67722 48.3051
f 474/474/20 477/477/20 478/478/20 476/476/20 

usemtl Teddy_Dress
v -18.3902 123.138 63.6193
vt 7.7599 48.4794
f 475/475/4 476/476/4 479/479/4

v -18.2034 123.591 63.6204
vt 7.83344 48.6577
f 475/475/4 479/479/4 480/480/4

v -18.0403 124.053 63.6214
vt 7.89766 48.8396
f 475/475/4 480/480/4 481/481/4

v -17.9013 124.522 63.6222
vt 7.95238 49.0246
f 475/475/4 481/481/4 482/482/4

v -50.6467 127.763 63.4241
vt -4.93974 50.3004
f 475/475/4 482/482/4 483/483/4

v -17.7868 124.999 63.6229
vt 7.99745 49.2121
f 483/483/4 482/482/4 484/484/4

v -17.6972 125.48 63.6234
vt 8.03276 49.4018
f 483/483/4 484/484/4 485/485/4

v -17.6325 125.966 63.6238
vt 8.05821 49.593
f 483/483/4 485/485/4 486/486/4

v -17.5931 126.455 63.6241
vt 8.07373 49.7853
f 483/483/4 486/486/4 487/487/4

v -17.579 126.944 63.6242
vt 8.07928 49.9781
f 483/483/4 487/487/4 488/488/4

v -17.5903 127.434 63.6241
vt 8.07485 50.1709
f 483/483/4 488/488/4 489/489/4

v -17.4869 127.893 63.6247
vt 8.11555 50.3516
f 483/483/4 489/489/4 490/490/4

v -50.3496 130.068 63.4259
vt -4.82278 51.2077
f 483/483/4 490/490/4 491/491/4

v -17.2632 128.886 63.6261
vt 8.20363 50.7426
f 491/491/4 490/490/4 492/492/4

usemtl Teddy_DressShadow
vn -0.00605028 2.14589e-13 0.999982
v -15.2285 125.184 63.6384
vt 9.00469 49.2849
v -16.1545 127.378 63.6328
vt 8.64012 50.1487
v -16.6784 130.255 63.6296
vt 8.43385 51.2815
f 492/492/21 490/490/21 493/493/21 494/494/21 495/495/21 

usemtl Teddy_Dress
v -4.20113 125.851 63.7051
vt 13.3463 49.5477
f 493/493/4 496/496/4 494/494/4

v -13.7097 123.793 63.6476
vt 9.60267 48.7375
f 497/497/4 496/496/4 493/493/4

v -11.9363 122.004 63.6583
vt 10.3009 48.033
f 498/498/4 496/496/4 497/497/4

v -9.24294 120.176 63.6746
vt 11.3613 47.3135
f 498/498/4 499/499/4 496/496/4

v -10.5154 118.928 63.6669
vt 10.8603 46.822
f 499/499/4 498/498/4 500/500/4

v -2.24477 121.5 63.7169
vt 14.1165 47.8346
f 500/500/4 501/501/4 499/499/4

v -10.3959 118.174 63.6676
vt 10.9073 46.5251
f 502/502/4 501/501/4 500/500/4

v -2.89401 117.932 63.713
vt 13.8609 46.4301
f 502/502/4 503/503/4 501/501/4

v -10.3136 117.655 63.6681
vt 10.9397 46.3208
f 504/504/4 503/503/4 502/502/4

v -11.1231 116.145 63.6632
vt 10.621 45.7266
f 505/505/4 503/503/4 504/504/4

v -11.8858 114.902 63.6586
vt 10.3207 45.2369
f 506/506/4 503/503/4 505/505/4

v -12.2477 114.251 63.6564
vt 10.1782 44.9809
f 507/507/4 503/503/4 506/506/4

v -11.7037 114.04 63.6597
vt 10.3924 44.8976
f 508/508/4 503/503/4 507/507/4

v -10.9875 114.01 63.664
vt 10.6744 44.8857
f 509/509/4 503/503/4 508/508/4

v -10.2678 113.874 63.6684
vt 10.9578 44.8323
f 510/510/4 503/503/4 509/509/4

v -4.78932 113.651 63.7015
vt 13.1147 44.7445
f 510/510/4 511/511/4 503/503/4

v -9.57503 113.636 63.6726
vt 11.2305 44.7387
f 512/512/4 511/511/4 510/510/4

v -8.92361 113.302 63.6765
vt 11.487 44.607
f 513/513/4 511/511/4 512/512/4

v -8.327 112.877 63.6801
vt 11.7219 44.4398
f 514/514/4 511/511/4 513/513/4

v -7.79759 112.371 63.6833
vt 11.9303 44.2405
f 515/515/4 511/511/4 514/514/4

v -5.32617 112.299 63.6983
vt 12.9033 44.2122
f 515/515/4 516/516/4 511/511/4

v -7.34636 111.794 63.6861
vt 12.108 44.0134
f 517/517/4 516/516/4 515/515/4

v -7.21237 111.56 63.6869
vt 12.1607 43.9212
f 518/518/4 516/516/4 517/517/4

v -7.07838 111.326 63.6877
vt 12.2135 43.829
f 519/519/4 516/516/4 518/518/4

v -6.98266 111.158 63.6883
vt 12.2511 43.7632
f 520/520/4 516/516/4 519/519/4

v -6.71404 110.477 63.6899
vt 12.3569 43.4949
f 521/521/4 516/516/4 520/520/4

v -6.54606 109.764 63.6909
vt 12.423 43.2143
f 522/522/4 516/516/4 521/521/4

v -6.48222 109.035 63.6913
vt 12.4482 42.927
f 516/516/4 522/522/4 523/523/4

usemtl Teddy_DressShadow
v -7.96084 110.634 63.6824
vt 11.866 43.5566
vn -0.00605028 -1.2992e-14 0.999982
v -8.56766 109.933 63.6787
vt 11.6271 43.2808
v -7.12685 108.96 63.6874
vt 12.1944 42.8978
f 524/524/22 525/525/22 526/526/22 523/523/22 522/522/22 521/521/22 520/520/22 519/519/22 518/518/22 

usemtl Teddy_Skin_
vn -0.00605028 5.08915e-15 0.999982
v -12.487 112.602 63.655
vt 10.084 44.3315
v -13.32 111.467 63.6499
vt 9.7561 43.8845
v -13.062 111.476 63.6515
vt 9.85766 43.8882
v -12.5391 111.435 63.6547
vt 10.0635 43.8719
v -12.0243 111.333 63.6578
vt 10.2662 43.8321
v -11.5245 111.174 63.6608
vt 10.463 43.7694
v -11.0462 110.959 63.6637
vt 10.6513 43.6845
v -10.5958 110.69 63.6664
vt 10.8286 43.5787
v -10.179 110.371 63.6689
vt 10.9927 43.4532
v -9.80152 110.007 63.6712
vt 11.1413 43.3098
v -9.4682 109.602 63.6732
vt 11.2726 43.1504
v -9.27994 109.311 63.6744
vt 11.3467 43.0357
f 509/509/23 508/508/23 527/527/23 528/528/23 529/529/23 530/530/23 531/531/23 532/532/23 533/533/23 534/534/23 535/535/23 536/536/23 537/537/23 538/538/23 525/525/23 524/524/23 518/518/23 517/517/23 515/515/23 514/514/23 513/513/23 512/512/23 510/510/23 

usemtl Teddy_Bracelet
v -11.182 107.648 63.6629
vt 10.5978 42.3813
vn -0.00605028 -5.74085e-16 0.999982
v -10.9573 107.466 63.6642
vt 10.6863 42.3094
v -10.2144 107.509 63.6687
vt 10.9788 42.3264
v -9.66455 107.737 63.672
vt 11.1953 42.4163
v -9.36188 108.066 63.6739
vt 11.3144 42.5456
v -9.18846 108.46 63.6749
vt 11.3827 42.7007
v -9.10899 108.876 63.6754
vt 11.414 42.8644
v -9.18345 109.161 63.675
vt 11.3847 42.9769
v -13.5862 111.457 63.6483
vt 9.65127 43.8808
v -13.7647 111.415 63.6472
vt 9.58101 43.8643
v -14.3 111.14 63.644
vt 9.37023 43.756
v -14.6305 110.885 63.642
vt 9.24011 43.6556
v -15.5109 110.083 63.6367
vt 8.89351 43.3399
v -15.7902 109.692 63.635
vt 8.78354 43.1857
v -15.7074 109.459 63.6355
vt 8.81614 43.0942
v -15.5085 109.238 63.6367
vt 8.89447 43.007
v -15.2258 109.207 63.6384
vt 9.00576 42.9948
v -13.8065 108.919 63.647
vt 9.56454 42.8815
v -12.6566 108.519 63.6539
vt 10.0173 42.7242
v -12.1936 108.307 63.6567
vt 10.1995 42.6405
v -11.7307 108.094 63.6595
vt 10.3818 42.5568
f 539/539/24 540/540/24 541/541/24 542/542/24 543/543/24 544/544/24 545/545/24 546/546/24 538/538/24 537/537/24 536/536/24 535/535/24 534/534/24 533/533/24 532/532/24 531/531/24 530/530/24 529/529/24 528/528/24 547/547/24 548/548/24 549/549/24 550/550/24 551/551/24 552/552/24 553/553/24 554/554/24 555/555/24 556/556/24 557/557/24 558/558/24 559/559/24 

usemtl Teddy_Skin_
v -16.0433 109.201 63.6335
vt 8.6839 42.9924
vn -0.00605028 -5.43733e-15 0.999982
v -14.935 105.558 63.6402
vt 9.12026 41.5582
v -14.2505 105.785 63.6443
vt 9.38976 41.6476
v -13.9091 105.901 63.6464
vt 9.52417 41.6933
v -12.1224 106.984 63.6572
vt 10.2276 42.1197
v -11.6272 107.334 63.6602
vt 10.4226 42.2574
v -12.1814 107.763 63.6568
vt 10.2044 42.4265
f 560/560/25 408/408/25 407/407/25 406/406/25 405/405/25 561/561/25 562/562/25 563/563/25 564/564/25 565/565/25 566/566/25 557/557/25 556/556/25 555/555/25 554/554/25 

usemtl Teddy_BraceletShadow_
vn -0.00605028 4.83803e-15 0.999982
f 559/559/26 558/558/26 557/557/26 566/566/26 565/565/26 539/539/26 

usemtl Teddy_Dress
v -12.0835 114.003 63.6574
vt 10.2429 44.8832
f 507/507/4 567/567/4 508/508/4

v -5.65175 121.151 63.6963
vt 12.7751 47.6971
f 499/499/4 501/501/4 568/568/4

v -3.44885 121.514 63.7097
vt 13.6424 47.8401
f 568/568/4 501/501/4 569/569/4

usemtl Teddy_DressDepth
vn -0.00605028 2.84277e-14 0.999982
f 501/501/27 496/496/27 499/499/27 568/568/27 569/569/27 

usemtl Teddy_Dress
v -10.2383 134.064 63.6686
vt 10.9694 52.781
f 494/494/4 496/496/4 570/570/4

f 494/494/4 570/570/4 495/495/4

v -31.5973 133.082 63.5393
vt 2.56015 52.3943
f 495/495/4 570/570/4 571/571/4

v -31.4542 133.122 63.5402
vt 2.61649 52.4103
f 571/571/4 570/570/4 572/572/4

v -31.3394 133.19 63.5409
vt 2.6617 52.4369
f 572/572/4 570/570/4 573/573/4

v -31.2221 133.303 63.5416
vt 2.70788 52.4814
f 573/573/4 570/570/4 574/574/4

v -31.0346 133.56 63.5427
vt 2.7817 52.5828
f 574/574/4 570/570/4 575/575/4

v -28.6828 133.935 63.557
vt 3.70764 52.7303
f 575/575/4 570/570/4 576/576/4

v -25.1764 134.618 63.5782
vt 5.08811 52.9991
f 576/576/4 570/570/4 577/577/4

v -10.3981 134.281 63.6676
vt 10.9065 52.8666
f 577/577/4 570/570/4 578/578/4

v -12.4719 137.102 63.6551
vt 10.09 53.9773
f 577/577/4 578/578/4 579/579/4

v -22.0152 135.472 63.5973
vt 6.33272 53.3353
f 577/577/4 579/579/4 580/580/4

v -18.9269 136.56 63.616
vt 7.54862 53.7638
f 580/580/4 579/579/4 581/581/4

v -16.6166 137.917 63.63
vt 8.45817 54.298
f 581/581/4 579/579/4 582/582/4

v -13.1602 138.039 63.6509
vt 9.81898 54.3459
f 582/582/4 579/579/4 583/583/4

v -14.9709 139.195 63.6399
vt 9.1061 54.8013
f 582/582/4 583/583/4 584/584/4

v -13.8486 138.975 63.6467
vt 9.54799 54.7145
f 584/584/4 583/583/4 585/585/4

v -14.0366 139.178 63.6456
vt 9.47396 54.7947
f 584/584/4 585/585/4 586/586/4

v -14.6182 139.808 63.6421
vt 9.24496 55.0425
f 584/584/4 586/586/4 587/587/4

usemtl Teddy_DressDepth
v -30.1722 141.181 63.548
vt 3.12124 55.5831
vn -0.00605028 -1.39788e-14 0.999982
v -30.1894 141.036 63.5479
vt 3.11448 55.5258
v -30.2065 140.89 63.5478
vt 3.10773 55.4685
v -30.3962 140.419 63.5466
vt 3.03303 55.2832
v -30.5346 140.34 63.5458
vt 2.97856 55.2522
v -30.6405 140.355 63.5451
vt 2.93685 55.2578
v -30.6998 140.142 63.5448
vt 2.91351 55.1739
v -30.7229 139.941 63.5446
vt 2.90442 55.0949
v -30.6902 139.044 63.5448
vt 2.91729 54.7417
v -30.5849 135.187 63.5455
vt 2.95874 53.2231
v -30.5854 135.035 63.5455
vt 2.95856 53.1634
v -30.5952 134.844 63.5454
vt 2.95468 53.0884
v -30.6464 134.506 63.5451
vt 2.93455 52.9551
v -30.7376 134.176 63.5445
vt 2.89862 52.8252
v -30.8677 133.859 63.5438
vt 2.84743 52.7005
v -17.4898 142.916 63.6247
vt 8.1144 56.2662
v -18.3516 143.431 63.6195
vt 7.7751 56.4688
v -18.6207 143.592 63.6179
vt 7.66918 56.5321
v -19.4597 144.093 63.6128
vt 7.33882 56.7294
v -21.1244 144.477 63.6027
vt 6.68341 56.8808
v -21.4312 144.548 63.6009
vt 6.56265 56.9087
v -22.811 143.629 63.5925
vt 6.0194 56.547
v -23.5104 143.058 63.5883
vt 5.74405 56.3221
v -24.2655 142.563 63.5837
vt 5.44675 56.1271
v -25.0682 142.149 63.5788
vt 5.13073 55.9642
v -25.9096 141.821 63.5738
vt 4.79945 55.8351
v -26.7807 141.583 63.5685
vt 4.4565 55.7413
v -27.6718 141.437 63.5631
vt 4.10565 55.6837
v -28.5734 141.384 63.5576
vt 3.7507 55.6631
v -29.4755 141.426 63.5522
vt 3.39553 55.6795
v -29.7325 141.427 63.5506
vt 3.29434 55.68
v -29.8924 141.389 63.5497
vt 3.23139 55.6649
v -30.0368 141.31 63.5488
vt 3.17453 55.6339
f 588/588/28 589/589/28 590/590/28 591/591/28 592/592/28 593/593/28 594/594/28 595/595/28 596/596/28 597/597/28 598/598/28 599/599/28 600/600/28 601/601/28 602/602/28 575/575/28 576/576/28 577/577/28 580/580/28 581/581/28 582/582/28 584/584/28 587/587/28 603/603/28 604/604/28 605/605/28 606/606/28 607/607/28 608/608/28 609/609/28 610/610/28 611/611/28 612/612/28 613/613/28 614/614/28 615/615/28 616/616/28 617/617/28 618/618/28 619/619/28 620/620/28 

usemtl Teddy_Bracelet
v -34.032 140.897 63.5246
vt 1.60162 55.4714
vn -0.00605028 -1.17372e-13 0.999982
v -34.0196 140.792 63.5247
vt 1.60648 55.4298
v -33.8389 140.686 63.5258
vt 1.67763 55.3883
v -33.7357 140.68 63.5264
vt 1.71828 55.3858
v -33.0659 140.638 63.5305
vt 1.98196 55.3692
v -32.1145 140.545 63.5362
vt 2.35653 55.3327
v -31.1661 140.426 63.542
vt 2.72993 55.2858
v -30.5067 141.252 63.5459
vt 2.98955 55.6111
v -31.2573 141.372 63.5414
vt 2.69402 55.6582
v -32.8416 141.539 63.5318
vt 2.07027 55.7242
v -33.7554 141.504 63.5263
vt 1.71052 55.7102
v -33.9452 141.463 63.5251
vt 1.63576 55.694
v -34.0035 141.278 63.5248
vt 1.61283 55.6212
v -34.0391 141.016 63.5246
vt 1.59881 55.518
f 621/621/29 622/622/29 623/623/29 624/624/29 625/625/29 626/626/29 627/627/29 593/593/29 592/592/29 591/591/29 590/590/29 589/589/29 588/588/29 628/628/29 629/629/29 630/630/29 631/631/29 632/632/29 633/633/29 634/634/29 

usemtl Teddy_DressDepth
vn -0.00605028 1.46795e-14 0.999982
v -34.0848 141.62 63.5243
vt 1.58083 55.7558
v -34.2201 141.732 63.5235
vt 1.52755 55.7999
v -34.3711 141.821 63.5226
vt 1.46809 55.8352
v -34.5342 141.887 63.5216
vt 1.40389 55.8609
v -35.2467 142.109 63.5173
vt 1.12338 55.9485
v -36.0441 142.381 63.5124
vt 0.809424 56.0556
v -36.8262 142.695 63.5077
vt 0.501513 56.1791
v -37.5908 143.049 63.5031
vt 0.200495 56.3186
v -38.3357 143.443 63.4986
vt -0.0928015 56.4736
v -39.059 143.875 63.4942
vt -0.377571 56.6438
v -39.1477 143.935 63.4937
vt -0.412506 56.6672
v -39.7587 144.345 63.49
vt -0.653032 56.8287
v -40.4328 144.85 63.4859
vt -0.918426 57.0277
v -41.0794 145.391 63.482
vt -1.17302 57.2404
v -41.5606 145.753 63.4791
vt -1.36245 57.3832
v -44.0924 147.17 63.4637
vt -2.35927 57.941
v -44.8959 147.527 63.4589
vt -2.67559 58.0817
v -47.1705 147.754 63.4451
vt -3.57113 58.1709
v -48.8428 147.832 63.435
vt -4.22951 58.2017
v -50.4348 147.442 63.4254
vt -4.85629 58.0481
v -52.0267 147.052 63.4157
vt -5.48307 57.8944
v -53.8919 145.634 63.4045
vt -6.21738 57.3362
v -55.7885 142.775 63.393
vt -6.9641 56.2106
v -52.9545 140.363 63.4101
vt -5.84833 55.2612
v -49.4454 138.115 63.4314
vt -4.46679 54.376
v -45.8481 136.323 63.4531
vt -3.05049 53.6706
v -40.6569 134.485 63.4845
vt -1.00669 52.9467
v -36.7312 133.625 63.5083
vt 0.538888 52.6082
v -33.1656 133.409 63.5299
vt 1.94273 52.5232
v -32.0244 133.439 63.5368
vt 2.39201 52.5351
v -33.6355 136.867 63.527
vt 1.75769 53.8845
f 623/623/30 622/622/30 621/621/30 634/634/30 633/633/30 632/632/30 635/635/30 636/636/30 637/637/30 638/638/30 639/639/30 640/640/30 641/641/30 642/642/30 643/643/30 644/644/30 645/645/30 646/646/30 647/647/30 648/648/30 649/649/30 650/650/30 651/651/30 652/652/30 653/653/30 654/654/30 655/655/30 656/656/30 657/657/30 658/658/30 659/659/30 660/660/30 661/661/30 662/662/30 663/663/30 664/664/30 665/665/30 624/624/30 

usemtl Teddy_Skin_
v -40.2563 145.624 63.487
vt -0.848941 57.3322
vn -0.00605028 2.03204e-14 0.999982
v -25.4264 142.822 63.5767
vt 4.98971 56.229
v -26.1726 142.5 63.5722
vt 4.69592 56.1025
v -26.9629 142.312 63.5674
vt 4.38477 56.0284
v -27.7738 142.263 63.5625
vt 4.06551 56.009
v -28.5811 142.354 63.5576
vt 3.74766 56.0447
v -29.3608 142.582 63.5529
vt 3.44069 56.1346
v -30.0896 142.941 63.5485
vt 3.15374 56.2759
v -30.7459 143.42 63.5445
vt 2.89537 56.4644
v -31.0311 143.715 63.5428
vt 2.78308 56.5808
v -31.1365 143.811 63.5421
vt 2.74159 56.6185
v -31.31 144.004 63.5411
vt 2.67327 56.6946
v -31.4631 144.214 63.5402
vt 2.61299 56.7772
v -31.5943 144.438 63.5394
vt 2.56136 56.8654
v -31.7021 144.674 63.5387
vt 2.5189 56.9584
v -31.7855 144.92 63.5382
vt 2.48605 57.0552
v -31.8437 145.173 63.5379
vt 2.46316 57.1549
v -31.876 145.431 63.5377
vt 2.45044 57.2563
v -31.8808 145.749 63.5376
vt 2.44856 57.3813
v -31.8776 145.9 63.5376
vt 2.44982 57.4409
v -31.8539 146.142 63.5378
vt 2.45912 57.5361
v -31.8119 146.381 63.538
vt 2.47567 57.6303
v -31.7518 146.616 63.5384
vt 2.49935 57.723
v -31.6738 146.846 63.5389
vt 2.53004 57.8135
v -31.5786 147.07 63.5395
vt 2.56754 57.9015
v -31.4665 147.285 63.5401
vt 2.61165 57.9864
v -31.3451 147.499 63.5409
vt 2.65945 58.0703
v -30.7473 148.549 63.5445
vt 2.89482 58.4837
v -30.6033 148.816 63.5454
vt 2.95152 58.5891
v -30.4723 149.091 63.5462
vt 3.00309 58.6971
v -30.3546 149.371 63.5469
vt 3.04941 58.8075
v -30.2506 149.657 63.5475
vt 3.09038 58.9199
v -30.1603 149.947 63.548
vt 3.12591 59.0342
v -30.0841 150.241 63.5485
vt 3.15591 59.15
v -30.0222 150.539 63.5489
vt 3.18031 59.2672
v -29.9746 150.839 63.5492
vt 3.19905 59.3854
v -29.9539 150.993 63.5493
vt 3.20717 59.446
v -30.5097 150.63 63.5459
vt 2.98835 59.3033
v -31.4319 150.357 63.5403
vt 2.62528 59.1956
v -31.9334 150.291 63.5373
vt 2.42783 59.1698
v -32.4375 150.25 63.5343
vt 2.22938 59.1534
v -32.943 150.232 63.5312
vt 2.03037 59.1465
v -33.4487 150.239 63.5281
vt 1.83126 59.149
v -33.9535 150.269 63.5251
vt 1.63249 59.1611
v -34.4564 150.324 63.522
vt 1.43452 59.1825
v -34.9561 150.402 63.519
vt 1.2378 59.2133
vn -0.00605028 3.60524e-14 0.999982
v -35.1158 150.445 63.5181
vt 1.17492 59.2304
v -35.2729 150.497 63.5171
vt 1.11304 59.2508
v -35.4272 150.557 63.5162
vt 1.05232 59.2744
v -35.578 150.625 63.5153
vt 0.992936 59.3012
v -35.725 150.701 63.5144
vt 0.93505 59.3312
v -35.8678 150.785 63.5135
vt 0.878827 59.3641
v -36.006 150.876 63.5127
vt 0.824422 59.3999
v -36.1392 150.974 63.5119
vt 0.771989 59.4386
v -36.267 151.079 63.5111
vt 0.721672 59.48
v -36.3891 151.191 63.5104
vt 0.673614 59.524
v -36.505 151.309 63.5097
vt 0.627948 59.5705
v -36.6146 151.433 63.509
vt 0.584803 59.6193
v -37.6665 152.511 63.5026
vt 0.170681 60.0437
v -38.9116 153.499 63.4951
vt -0.319545 60.4327
v -39.0404 153.635 63.4943
vt -0.370237 60.4862
v -39.1072 153.721 63.4939
vt -0.39655 60.52
v -39.1681 153.811 63.4935
vt -0.420536 60.5554
v -39.2229 153.905 63.4932
vt -0.442085 60.5924
v -39.2712 154.002 63.4929
vt -0.461101 60.6307
v -39.3128 154.102 63.4927
vt -0.477498 60.6702
v -39.3476 154.205 63.4925
vt -0.491201 60.7107
v -39.4996 154.71 63.4915
vt -0.551051 60.9096
v -39.5423 154.473 63.4913
vt -0.567838 60.8163
v -39.5998 154.083 63.4909
vt -0.5905 60.6627
v -39.6328 153.69 63.4907
vt -0.603468 60.508
v -39.641 153.296 63.4907
vt -0.606693 60.3528
v -39.6244 152.902 63.4908
vt -0.600161 60.1977
v -39.5831 152.51 63.491
vt -0.583897 60.0433
v -39.5172 152.121 63.4914
vt -0.557967 59.8903
v -39.4271 151.738 63.492
vt -0.522472 59.7392
v -39.313 151.36 63.4927
vt -0.477553 59.5906
v -38.975 150.357 63.4947
vt -0.344497 59.1957
v -38.8902 150.086 63.4952
vt -0.311121 59.0891
v -38.8173 149.812 63.4957
vt -0.282408 58.9811
v -38.7564 149.535 63.496
vt -0.258411 58.8719
v -38.7075 149.255 63.4963
vt -0.239175 58.7618
v -38.6708 148.974 63.4965
vt -0.224736 58.651
v -38.6464 148.691 63.4967
vt -0.215123 58.5397
v -38.6343 148.407 63.4968
vt -0.210352 58.428
v -38.6345 148.123 63.4968
vt -0.210434 58.3163
v -38.642 147.889 63.4967
vt -0.213402 58.2239
v -38.6656 147.655 63.4966
vt -0.222677 58.1319
v -38.7051 147.424 63.4963
vt -0.238215 58.0408
v -38.7602 147.195 63.496
vt -0.259944 57.951
v -38.8309 146.972 63.4956
vt -0.287761 57.8628
v -38.9167 146.753 63.4951
vt -0.321538 57.7768
v -39.0172 146.541 63.4945
vt -0.361116 57.6932
v -39.1183 146.37 63.4938
vt -0.400932 57.6258
v -39.2383 146.211 63.4931
vt -0.448148 57.5634
v -39.3754 146.067 63.4923
vt -0.502155 57.5067
v -39.5281 145.94 63.4914
vt -0.562251 57.4565
v -39.6942 145.83 63.4904
vt -0.627658 57.4135
v -39.8717 145.741 63.4893
vt -0.69753 57.3782
v -40.1146 145.661 63.4878
vt -0.793165 57.3468
f 666/666/31 648/648/31 647/647/31 646/646/31 645/645/31 644/644/31 643/643/31 642/642/31 641/641/31 640/640/31 639/639/31 638/638/31 637/637/31 636/636/31 635/635/31 632/632/31 631/631/31 630/630/31 629/629/31 628/628/31 588/588/31 620/620/31 619/619/31 618/618/31 617/617/31 616/616/31 615/615/31 614/614/31 613/613/31 612/612/31 611/611/31 610/610/31 609/609/31 667/667/31 668/668/31 669/669/31 670/670/31 671/671/31 672/672/31 673/673/31 674/674/31 675/675/31 676/676/31 677/677/31 678/678/31 679/679/31 680/680/31 681/681/31 682/682/31 683/683/31 684/684/31 685/685/31 686/686/31 687/687/31 688/688/31 689/689/31 690/690/31 691/691/31 692/692/31 693/693/31 694/694/31 695/695/31 696/696/31 697/697/31 698/698/31 699/699/31 700/700/31 701/701/31 702/702/31 703/703/31 704/704/31 705/705/31 706/706/31 707/707/31 708/708/31 709/709/31 710/710/31 711/711/32 712/712/32 713/713/32 714/714/32 715/715/32 716/716/32 717/717/32 718/718/32 719/719/32 720/720/32 721/721/32 722/722/32 723/723/32 724/724/31 725/725/31 726/726/32 727/727/32 728/728/32 729/729/32 730/730/32 731/731/32 732/732/32 733/733/31 734/734/31 735/735/31 736/736/31 737/737/31 738/738/31 739/739/31 740/740/31 741/741/31 742/742/31 743/743/31 744/744/31 745/745/31 746/746/31 747/747/31 748/748/31 749/749/31 750/750/31 751/751/31 752/752/31 753/753/31 754/754/31 755/755/31 756/756/31 757/757/31 758/758/31 759/759/31 760/760/31 761/761/31 762/762/31 763/763/31 764/764/31 765/765/31 

usemtl Teddy_Hair
vn -0.00605028 -2.02591e-14 0.999982
v -39.4575 154.913 63.4918
vt -0.534464 60.9892
v -39.6162 155.151 63.4908
vt -0.596957 61.083
v -39.7591 155.449 63.49
vt -0.653213 61.2003
v -39.9399 155.869 63.4889
vt -0.724371 61.3658
v -40.1296 156.395 63.4877
vt -0.799082 61.5729
v -40.2876 156.931 63.4868
vt -0.861286 61.784
v -40.4133 157.476 63.486
vt -0.910762 61.9985
v -40.5062 158.028 63.4854
vt -0.947333 62.2156
v -40.566 158.584 63.4851
vt -0.970869 62.4345
v -40.5924 159.142 63.4849
vt -0.981285 62.6544
v -40.5855 159.701 63.485
vt -0.978544 62.8745
v -40.5451 160.259 63.4852
vt -0.962656 63.0941
v -40.4715 160.813 63.4857
vt -0.933678 63.3123
v -40.3649 161.362 63.4863
vt -0.891712 63.5284
v -40.3294 162.16 63.4865
vt -0.877734 63.8427
v -42.2101 159.957 63.4751
vt -1.61818 62.9752
v -42.3437 156.983 63.4743
vt -1.67077 61.8044
v -42.3457 155.048 63.4743
vt -1.67155 61.0426
v -41.74 151.679 63.478
vt -1.43309 59.716
v -43.0976 149.681 63.4698
vt -1.96761 58.9296
v -45.4433 148.797 63.4556
vt -2.8911 58.5815
vn -0.00605028 -1.18979e-14 0.999982
f 765/765/33 764/764/33 763/763/33 762/762/33 761/761/33 760/760/33 759/759/33 758/758/33 757/757/33 756/756/33 755/755/33 754/754/33 753/753/33 752/752/33 751/751/33 750/750/33 749/749/33 748/748/33 747/747/33 746/746/33 745/745/33 744/744/33 743/743/33 742/742/33 741/741/33 740/740/33 739/739/33 738/738/33 737/737/33 736/736/33 735/735/33 734/734/33 733/733/33 766/766/33 767/767/33 768/768/33 769/769/33 770/770/33 771/771/33 772/772/33 773/773/33 774/774/33 775/775/33 776/776/33 777/777/33 778/778/33 779/779/33 780/780/33 781/781/33 782/782/33 783/783/33 784/784/33 785/785/33 786/786/34 652/652/34 651/651/33 650/650/33 649/649/33 648/648/33 666/666/33 

usemtl Teddy_SkinShadow_
vn -0.00605028 5.17843e-14 0.999982
v -29.8434 151.502 63.55
vt 3.2507 59.6466
v -29.7967 151.717 63.5502
vt 3.26909 59.7313
v -30.123 151.446 63.5483
vt 3.14062 59.6245
v -30.7001 151.156 63.5448
vt 2.91342 59.5104
v -31.3278 151.005 63.541
vt 2.66629 59.4508
v -31.8341 150.915 63.5379
vt 2.46695 59.4152
v -32.8619 150.875 63.5317
vt 2.06228 59.3994
v -33.8855 150.976 63.5255
vt 1.65929 59.4394
v -34.0935 151.002 63.5242
vt 1.57738 59.4495
v -34.2997 151.04 63.523
vt 1.49621 59.4644
v -34.5033 151.09 63.5218
vt 1.41606 59.4841
v -34.7035 151.151 63.5206
vt 1.33722 59.5084
v -34.8998 151.225 63.5194
vt 1.25996 59.5374
v -35.0913 151.31 63.5182
vt 1.18455 59.571
v -35.2775 151.407 63.5171
vt 1.11125 59.6089
v -35.4576 151.514 63.516
vt 1.04032 59.651
v -35.6312 151.631 63.5149
vt 0.972005 59.6973
v -35.7974 151.759 63.5139
vt 0.906552 59.7476
v -36.7192 152.513 63.5084
vt 0.543617 60.0443
v -37.4033 153.087 63.5042
vt 0.274284 60.2704
v -38.2166 153.738 63.4993
vt -0.0459141 60.5268
v -39.0288 154.391 63.4944
vt -0.36566 60.7837
f 705/705/35 704/704/35 703/703/35 702/702/35 787/787/35 788/788/35 789/789/35 790/790/35 791/791/35 792/792/35 793/793/35 794/794/35 795/795/35 796/796/35 797/797/35 798/798/35 799/799/35 800/800/35 801/801/35 802/802/35 803/803/35 804/804/35 805/805/35 806/806/35 807/807/35 808/808/35 766/766/35 733/733/35 732/732/32 731/731/32 730/730/32 729/729/32 728/728/32 727/727/32 726/726/32 725/725/35 724/724/35 723/723/32 722/722/32 721/721/32 720/720/32 719/719/32 718/718/32 717/717/32 716/716/32 715/715/32 714/714/32 713/713/32 712/712/32 711/711/32 710/710/35 709/709/35 708/708/35 707/707/35 706/706/35 

usemtl Teddy_Hair
v -21.4638 145.573 63.6007
vt 6.5498 57.3122
vn -0.00605028 2.14059e-14 0.999982
v -23.2711 148.459 63.5897
vt 5.83827 58.4486
v -23.6702 149.447 63.5873
vt 5.68114 58.8375
v -23.8341 150.012 63.5863
vt 5.6166 59.0597
v -23.7921 150.327 63.5866
vt 5.63313 59.184
v -23.5072 150.901 63.5883
vt 5.74531 59.4099
v -22.7658 152.146 63.5928
vt 6.03721 59.9001
v -22.3019 152.925 63.5956
vt 6.21982 60.2069
v -22.1739 153.141 63.5964
vt 6.27025 60.2916
v -21.9636 153.494 63.5976
vt 6.35303 60.4306
v -21.2713 155.608 63.6018
vt 6.62561 61.2631
v -21.1605 158.203 63.6025
vt 6.6692 62.2848
v -21.6262 159.909 63.5997
vt 6.48587 62.9563
v -22.6278 161.572 63.5936
vt 6.09153 63.6109
v -24.2053 164.191 63.5841
vt 5.47045 64.642
v -24.3432 164.42 63.5832
vt 5.41616 64.7322
v -24.632 160.282 63.5815
vt 5.30247 63.103
v -26.5698 157.741 63.5698
vt 4.53955 62.1028
v -26.3361 154.615 63.5712
vt 4.63153 60.8719
v -25.4127 152.641 63.5768
vt 4.99511 60.095
v -25.0325 152.407 63.5791
vt 5.14477 60.0028
v -24.4427 150.564 63.5826
vt 5.37698 59.2772
v -24.4427 149.993 63.5826
vt 5.37698 59.0525
v -25.3564 148.635 63.5771
vt 5.01727 58.5176
v -26.448 147.858 63.5705
vt 4.58748 58.212
v -27.317 148.672 63.5652
vt 4.24537 58.5325
v -27.7244 150.564 63.5628
vt 4.08495 59.2772
v -27.7244 152.499 63.5628
vt 4.08495 60.039
v -27.8702 155.314 63.5619
vt 4.02755 61.1471
v -27.9182 155.175 63.5616
vt 4.00865 61.0925
v -28.0452 154.833 63.5608
vt 3.95865 60.9579
v -28.1798 154.494 63.56
vt 3.90565 60.8244
v -28.322 154.158 63.5592
vt 3.84968 60.6921
v -28.4716 153.825 63.5583
vt 3.79077 60.5611
v -28.6287 153.496 63.5573
vt 3.72894 60.4315
v -28.793 153.17 63.5563
vt 3.66423 60.3033
v -28.9646 152.848 63.5553
vt 3.59666 60.1766
v -29.1434 152.53 63.5542
vt 3.52628 60.0514
v -29.2363 152.374 63.5536
vt 3.4897 59.9896
v -29.6265 151.859 63.5513
vt 3.3361 59.787
v -21.4312 144.683 63.6009
vt 6.56265 56.962
v -21.342 145.05 63.6014
vt 6.59775 57.1064
f 809/809/36 810/810/36 811/811/36 812/812/36 813/813/36 814/814/36 815/815/36 816/816/36 817/817/36 818/818/36 819/819/36 820/820/36 821/821/36 822/822/36 823/823/36 824/824/36 825/825/36 826/826/36 827/827/36 828/828/36 829/829/36 830/830/36 831/831/36 832/832/36 833/833/36 834/834/36 835/835/36 836/836/36 837/837/36 838/838/36 839/839/36 840/840/36 841/841/36 842/842/36 843/843/36 844/844/36 845/845/36 846/846/36 847/847/36 848/848/36 788/788/36 787/787/36 702/702/36 701/701/36 700/700/36 699/699/36 698/698/36 697/697/36 696/696/36 695/695/36 694/694/36 693/693/36 692/692/36 691/691/36 690/690/36 689/689/36 688/688/36 687/687/36 686/686/36 685/685/36 684/684/36 683/683/36 682/682/36 681/681/36 680/680/36 679/679/36 678/678/36 677/677/36 676/676/36 675/675/36 674/674/36 673/673/36 672/672/36 671/671/36 670/670/36 669/669/36 668/668/36 667/667/36 609/609/36 608/608/36 849/849/36 850/850/36 

usemtl Teddy_Brim
v -16.5807 162.426 63.6302
vt 8.47234 63.9473
vn -0.00605028 6.30015e-15 0.999982
v -16.6861 163.55 63.6296
vt 8.43081 64.3899
v -18.6576 164.257 63.6176
vt 7.65463 64.6681
v -21.1763 164.499 63.6024
vt 6.66298 64.7633
v -24.6239 164.886 63.5815
vt 5.30564 64.9156
v -22.2476 152.459 63.5959
vt 6.24121 60.0232
v -21.6279 152.853 63.5997
vt 6.48519 60.1782
v -21.027 153.274 63.6033
vt 6.72179 60.3442
v -20.446 153.723 63.6068
vt 6.95051 60.5209
v -19.8864 154.198 63.6102
vt 7.17086 60.7079
v -19.3491 154.698 63.6135
vt 7.38237 60.9049
v -18.8354 155.223 63.6166
vt 7.58461 61.1114
v -17.9478 156.531 63.6219
vt 7.93408 61.6263
v -17.7416 156.96 63.6232
vt 8.01526 61.7952
v -17.2903 157.995 63.6259
vt 8.19293 62.2027
v -16.9457 159.07 63.628
vt 8.32863 62.626
v -16.7111 160.175 63.6294
vt 8.42099 63.0608
v -16.589 161.297 63.6301
vt 8.46905 63.5028
f 851/851/37 852/852/37 853/853/37 854/854/37 855/855/37 824/824/37 823/823/37 822/822/37 821/821/37 820/820/37 819/819/37 818/818/37 817/817/37 816/816/37 815/815/37 856/856/37 857/857/37 858/858/37 859/859/37 860/860/37 861/861/37 862/862/37 863/863/37 864/864/37 865/865/37 866/866/37 867/867/37 868/868/37 

usemtl Teddy_Brim2
v -16.8178 164.317 63.6288
vt 8.37898 64.6916
vn -0.00605028 -1.33163e-13 0.999982
v -16.8767 164.454 63.6284
vt 8.35578 64.7456
v -16.9523 164.582 63.628
vt 8.32603 64.7962
v -17.2154 164.972 63.6264
vt 8.22244 64.9498
v -17.7416 165.752 63.6232
vt 8.01526 65.2568
v -17.8502 165.899 63.6225
vt 7.9725 65.3147
v -17.9721 166.036 63.6218
vt 7.92453 65.3684
v -18.1061 166.16 63.621
vt 7.87176 65.4174
v -18.2511 166.271 63.6201
vt 7.81466 65.4612
v -18.4059 166.369 63.6192
vt 7.75371 65.4995
v -18.5691 166.451 63.6182
vt 7.68946 65.532
v -19.0793 166.68 63.6151
vt 7.48862 65.6219
v -19.679 166.984 63.6115
vt 7.25249 65.7418
v -20.0779 167.213 63.609
vt 7.09544 65.8318
v -21.9296 166.799 63.5978
vt 6.36641 65.6688
v -26.5346 167.089 63.57
vt 4.5534 65.7831
v -25.3412 165.817 63.5772
vt 5.02324 65.2823
v -24.9046 165.352 63.5798
vt 5.19513 65.0991
v -16.7529 164.011 63.6292
vt 8.40453 64.5711
v -16.7764 164.173 63.629
vt 8.39526 64.6351
f 869/869/38 870/870/38 871/871/38 872/872/38 873/873/38 874/874/38 875/875/38 876/876/38 877/877/38 878/878/38 879/879/38 880/880/38 881/881/38 882/882/38 883/883/38 884/884/38 885/885/38 886/886/38 855/855/38 854/854/38 853/853/38 852/852/38 887/887/38 888/888/38 

usemtl Teddy_Brim
vn -0.00605028 -7.74815e-14 0.999982
v -20.6974 167.599 63.6053
vt 6.85154 65.9839
v -21.0146 167.797 63.6034
vt 6.72666 66.0618
v -21.9207 168.452 63.5979
vt 6.36994 66.3197
v -22.7799 169.167 63.5927
vt 6.03163 66.6012
v -23.5885 169.939 63.5878
vt 5.71331 66.9052
v -24.0796 170.401 63.5848
vt 5.51994 67.0869
v -24.6079 170.819 63.5816
vt 5.31194 67.2517
v -25.1697 171.192 63.5782
vt 5.09078 67.3983
v -25.7212 169.917 63.5749
vt 4.87365 66.8963
v -28.3157 168.173 63.5592
vt 3.85214 66.21
v -26.9361 167.517 63.5675
vt 4.39532 65.9516
f 882/882/39 889/889/39 890/890/39 891/891/39 892/892/39 893/893/39 894/894/39 895/895/39 896/896/39 897/897/39 898/898/39 899/899/39 884/884/39 883/883/39 

usemtl Teddy_Brim2
vn -0.00605028 -4.52646e-14 0.999982
v -25.7608 171.515 63.5747
vt 4.85805 67.5257
v -26.3771 171.788 63.5709
vt 4.6154 67.6331
v -27.0142 172.008 63.5671
vt 4.36456 67.7196
v -27.6719 172.204 63.5631
vt 4.10562 67.7969
v -30.0355 172.02 63.5488
vt 3.17507 67.7245
v -30.7708 171.941 63.5443
vt 2.88555 67.6933
v -31.5001 171.818 63.5399
vt 2.59843 67.6447
v -32.2207 171.651 63.5356
vt 2.31472 67.5791
v -32.9301 171.441 63.5313
vt 2.03544 67.4966
v -33.6256 171.19 63.5271
vt 1.76161 67.3975
v -34.3048 170.897 63.523
vt 1.49419 67.2823
v -34.8429 170.662 63.5197
vt 1.28234 67.1899
v -35.3923 170.456 63.5164
vt 1.06603 67.1086
v -35.9517 170.278 63.513
vt 0.845819 67.0384
v -36.5194 170.128 63.5096
vt 0.622295 66.9797
v -37.0941 170.009 63.5061
vt 0.396048 66.9325
v -37.6741 169.919 63.5026
vt 0.167677 66.8971
v -38.3957 169.825 63.4982
vt -0.1164 66.8604
v -40.872 169.671 63.4832
vt -1.09135 66.7998
v -41.5299 169.629 63.4792
vt -1.35039 66.7832
v -43.7353 169.316 63.4659
vt -2.21867 66.6598
v -44.3227 169.313 63.4624
vt -2.44991 66.6587
v -44.9083 169.268 63.4588
vt -2.68048 66.641
v -45.3467 169.203 63.4562
vt -2.85309 66.6152
v -45.4892 169.181 63.4553
vt -2.90918 66.6068
v -45.9636 169.075 63.4524
vt -3.09595 66.5649
v -43.7416 166.834 63.4659
vt -2.22114 65.6826
v -41.5513 166.266 63.4791
vt -1.3588 65.459
v -39.6021 167.418 63.4909
vt -0.591393 65.9124
v -38.0066 168.106 63.5006
vt 0.0367854 66.1834
v -36.411 168.794 63.5102
vt 0.664963 66.4544
v -33.6374 169.289 63.527
vt 1.75696 66.6491
v -30.3138 169.124 63.5471
vt 3.06547 66.5843
v -29.0929 168.543 63.5545
vt 3.54617 66.3556
f 898/898/40 897/897/40 896/896/40 900/900/40 901/901/40 902/902/40 903/903/40 904/904/40 905/905/40 906/906/40 907/907/40 908/908/40 909/909/40 910/910/40 911/911/40 912/912/40 913/913/40 914/914/40 915/915/40 916/916/40 917/917/40 918/918/40 919/919/40 920/920/40 921/921/40 922/922/40 923/923/40 924/924/40 925/925/40 926/926/40 927/927/40 928/928/40 929/929/40 930/930/40 931/931/40 932/932/40 933/933/40 

usemtl Teddy_Hat
vn -0.00605028 8.70971e-14 0.999982
v -28.0055 173.227 63.5611
vt 3.97427 68.1998
v -28.5662 174.146 63.5577
vt 3.75352 68.5615
v -29.3237 174.911 63.5531
vt 3.45528 68.8625
v -30.2372 175.48 63.5476
vt 3.09564 69.0866
v -31.2037 175.722 63.5417
vt 2.71511 69.1821
v -32.1909 175.859 63.5358
vt 2.32648 69.2357
v -33.1869 175.887 63.5297
vt 1.93432 69.2469
v -34.1802 175.807 63.5237
vt 1.54326 69.2155
v -35.159 175.62 63.5178
vt 1.15791 69.1418
v -36.2248 175.274 63.5113
vt 0.73827 69.0055
v -37.2346 174.788 63.5052
vt 0.340723 68.8142
v -38.1699 174.171 63.4996
vt -0.0275385 68.5712
v -39.014 173.434 63.4945
vt -0.359848 68.2809
v -39.3827 173.012 63.4922
vt -0.505019 68.1148
v -39.766 172.526 63.4899
vt -0.655914 67.9237
v -40.0991 172.005 63.4879
vt -0.78706 67.7186
v -40.3787 171.454 63.4862
vt -0.897158 67.5014
v -40.6022 170.877 63.4849
vt -0.985117 67.2744
v -40.7671 170.281 63.4839
vt -1.05006 67.0397
f 911/911/41 910/910/41 909/909/41 908/908/41 907/907/41 906/906/41 905/905/41 904/904/41 903/903/41 934/934/41 935/935/41 936/936/41 937/937/41 938/938/41 939/939/41 940/940/41 941/941/41 942/942/41 943/943/41 944/944/41 945/945/41 946/946/41 947/947/41 948/948/41 949/949/41 950/950/41 951/951/41 952/952/41 918/918/41 917/917/41 916/916/41 915/915/41 914/914/41 913/913/41 912/912/41 

usemtl Teddy_Brim
vn -0.00605028 -2.36142e-14 0.999982
v -46.5154 168.91 63.4491
vt -3.31322 66.4998
v -47.0539 168.705 63.4458
vt -3.52524 66.4193
v -48.2128 167.844 63.4388
vt -3.98149 66.0802
v -49.7312 165.756 63.4296
vt -4.5793 65.2581
v -50.1834 164.776 63.4269
vt -4.75734 64.8725
v -50.5284 163.754 63.4248
vt -4.89316 64.4701
v -50.572 163.558 63.4245
vt -4.91032 64.3927
v -50.7622 162.701 63.4234
vt -4.9852 64.0554
v -50.8577 161.847 63.4228
vt -5.02282 63.7192
v -50.8821 161.629 63.4227
vt -5.03243 63.6333
v -50.8868 160.55 63.4226
vt -5.03428 63.2086
v -50.8316 160.013 63.423
vt -5.01252 62.9973
v -50.718 159.322 63.4237
vt -4.96781 62.7253
v -50.5876 158.529 63.4244
vt -4.91648 62.4131
v -50.1671 157.085 63.427
vt -4.75092 61.8446
v -49.5761 155.702 63.4306
vt -4.51824 61.3001
v -48.9268 154.58 63.4345
vt -4.26261 60.8581
v -48.8232 154.4 63.4351
vt -4.2218 60.7875
v -48.5134 153.988 63.437
vt -4.09982 60.6253
v -47.9192 153.198 63.4406
vt -3.86591 60.3143
v -46.8774 152.114 63.4469
vt -3.45573 59.8873
v -46.5659 151.812 63.4488
vt -3.33309 59.7684
v -46.2371 151.529 63.4508
vt -3.20364 59.657
v -45.8922 151.266 63.4529
vt -3.06784 59.5534
v -45.5323 151.023 63.455
vt -2.92616 59.458
v -45.1588 150.803 63.4573
vt -2.7791 59.3712
v -45.5509 155.111 63.4549
vt -2.93348 61.0674
v -44.3959 161.034 63.4619
vt -2.47874 63.3991
v -43.0624 164.67 63.47
vt -1.95375 64.8306
f 926/926/42 925/925/42 953/953/42 954/954/42 955/955/42 956/956/42 957/957/42 958/958/42 959/959/42 960/960/42 961/961/42 962/962/42 963/963/42 964/964/42 965/965/42 966/966/42 967/967/42 968/968/42 969/969/42 970/970/42 971/971/42 972/972/42 973/973/42 974/974/42 975/975/42 976/976/42 977/977/42 978/978/42 979/979/42 980/980/42 981/981/42 927/927/42 

usemtl Teddy_HairLight
vn -0.00605028 -3.53666e-15 0.999982
v -45.2361 150.335 63.4568
vt -2.80952 59.187
v -45.3687 149.88 63.456
vt -2.86176 59.0077
v -45.5549 149.443 63.4549
vt -2.93506 58.836
v -45.792 149.033 63.4535
vt -3.02838 58.6742
v -46.0764 148.653 63.4517
vt -3.14038 58.5248
v -46.4042 148.31 63.4498
vt -3.26944 58.3899
v -46.7707 148.009 63.4475
vt -3.41371 58.2714
v -40.3029 162.757 63.4867
vt -0.867289 64.0775
v -40.2939 162.959 63.4867
vt -0.863755 64.1569
v -40.2449 164.059 63.487
vt -0.844483 64.5902
v -40.2356 164.269 63.4871
vt -0.840811 64.6727
v -40.2209 164.599 63.4872
vt -0.83502 64.8029
v -40.1773 165.579 63.4874
vt -0.817867 65.1885
v -39.8554 166.516 63.4894
vt -0.691111 65.5575
f 979/979/43 978/978/43 982/982/43 983/983/43 984/984/43 985/985/43 986/986/43 987/987/43 988/988/43 652/652/34 786/786/34 785/785/43 784/784/43 783/783/43 782/782/43 781/781/43 780/780/43 989/989/43 990/990/43 991/991/43 992/992/43 993/993/43 994/994/43 995/995/43 929/929/43 928/928/43 927/927/43 981/981/43 980/980/43 

usemtl Teddy_Skin_
vn -0.00605028 -2.17089e-14 0.999982
v -27.7989 155.52 63.5623
vt 4.05563 61.2282
v -27.6873 155.867 63.563
vt 4.09956 61.365
v -27.5835 156.217 63.5636
vt 4.14042 61.5027
v -27.5392 156.373 63.5639
vt 4.15789 61.564
v -27.4832 156.561 63.5642
vt 4.17993 61.6383
v -27.435 156.724 63.5645
vt 4.1989 61.7022
v -27.3516 157.08 63.565
vt 4.23174 61.8426
v -27.2892 157.441 63.5654
vt 4.2563 61.9847
v -27.2481 157.805 63.5657
vt 4.27249 62.128
v -26.907 161.893 63.5677
vt 4.40676 63.7373
v -26.8902 162.208 63.5678
vt 4.4134 63.8614
v -28.0717 161.32 63.5607
vt 3.94821 63.5117
v -28.3939 161.32 63.5587
vt 3.82138 63.5117
v -30.117 161.32 63.5483
vt 3.14297 63.5117
v -31.4008 162.285 63.5405
vt 2.63751 63.8917
v -31.6519 162.474 63.539
vt 2.53865 63.966
v -31.6519 162.796 63.539
vt 2.53865 64.093
v -31.6519 163.201 63.539
vt 2.53865 64.2522
v -32.1386 163.376 63.5361
vt 2.34703 64.3213
v -33.0317 163.376 63.5307
vt 1.99543 64.3213
v -33.5966 163.188 63.5272
vt 1.77301 64.2474
v -33.5966 162.2 63.5272
vt 1.77301 63.8583
v -35.2249 161.034 63.5174
vt 1.13193 63.3993
v -37.6451 160.962 63.5028
vt 0.179104 63.3708
v -39.0272 162.413 63.4944
vt -0.365033 63.9421
v -39.0272 162.869 63.4944
vt -0.365033 64.1217
f 768/768/44 767/767/44 766/766/44 808/808/44 807/807/44 806/806/44 805/805/44 804/804/44 803/803/44 802/802/44 801/801/44 800/800/44 799/799/44 798/798/44 797/797/44 796/796/44 795/795/44 794/794/44 793/793/44 792/792/44 791/791/44 790/790/44 789/789/44 788/788/44 848/848/44 847/847/44 846/846/44 845/845/44 844/844/44 843/843/44 842/842/44 841/841/44 840/840/44 839/839/44 838/838/44 837/837/44 996/996/44 997/997/44 998/998/44 999/999/44 1000/1000/44 1001/1001/44 1002/1002/44 1003/1003/44 1004/1004/44 1005/1005/44 1006/1006/44 1007/1007/44 1008/1008/44 1009/1009/44 1010/1010/44 1011/1011/44 1012/1012/44 1013/1013/44 1014/1014/44 1015/1015/44 1016/1016/44 1017/1017/44 1018/1018/44 1019/1019/44 1020/1020/44 1021/1021/44 990/990/44 989/989/44 780/780/44 779/779/44 778/778/44 777/777/44 776/776/44 775/775/44 774/774/44 773/773/44 772/772/44 771/771/44 770/770/44 769/769/44 

usemtl Teddy_HairLight
v -26.5368 162.474 63.57
vt 4.55252 63.966
vn -0.00605028 -4.6595e-15 0.999982
v -27.3679 165.77 63.5649
vt 4.22531 65.2639
v -27.1294 164.684 63.5664
vt 4.31921 64.8363
v -26.5368 164.239 63.57
vt 4.55252 64.6609
f 1022/1022/45 1006/1006/45 1005/1005/45 1004/1004/45 1003/1003/45 1002/1002/45 1001/1001/45 1000/1000/45 999/999/45 998/998/45 997/997/45 996/996/45 837/837/45 836/836/45 835/835/45 834/834/45 833/833/45 832/832/45 831/831/45 830/830/45 829/829/45 828/828/45 827/827/45 826/826/45 825/825/45 824/824/45 855/855/45 886/886/45 885/885/45 884/884/45 899/899/45 898/898/45 1023/1023/45 1024/1024/45 1025/1025/45 

usemtl Teddy_Glasses
v -26.9947 162.702 63.5672
vt 4.37226 64.056
vn -0.00605028 7.17858e-15 0.999982
f 1026/1026/46 1006/1006/46 1022/1022/46

v -28.2246 161.778 63.5597
vt 3.88801 63.692
f 1027/1027/46 1006/1006/46 1026/1026/46

f 1008/1008/46 1006/1006/46 1027/1027/46

f 1006/1006/46 1008/1008/46 1007/1007/46

f 1008/1008/46 1027/1027/46 1009/1009/46

v -29.9641 161.778 63.5492
vt 3.20317 63.692
f 1028/1028/46 1009/1009/46 1027/1027/46

f 1009/1009/46 1028/1028/46 1010/1010/46

v -31.1941 162.702 63.5418
vt 2.71891 64.056
f 1010/1010/46 1028/1028/46 1029/1029/46

usemtl Teddy_Skin_
vn -0.00605028 0 0.999982
v -26.9947 164.01 63.5672
vt 4.37226 64.5709
v -28.2246 164.935 63.5597
vt 3.88801 64.9349
v -29.9641 164.935 63.5492
vt 3.20317 64.9349
v -31.1941 164.01 63.5418
vt 2.71891 64.5709
f 1026/1026/47 1030/1030/47 1031/1031/47 1032/1032/47 1033/1033/47 1029/1029/47 1028/1028/47 1027/1027/47 

usemtl Teddy_Glasses
f 1026/1026/46 1025/1025/46 1030/1030/46

f 1026/1026/46 1022/1022/46 1025/1025/46

f 1030/1030/46 1025/1025/46 1031/1031/46

f 1031/1031/46 1025/1025/46 1024/1024/46

v -28.0717 165.393 63.5607
vt 3.94821 65.1152
f 1031/1031/46 1024/1024/46 1034/1034/46

usemtl Teddy_Skin_
vn -0.00605028 3.64411e-14 0.999982
v -39.0272 164.122 63.4944
vt -0.365033 64.6148
v -39.0272 164.266 63.4944
vt -0.365033 64.6716
v -37.9084 165.089 63.5012
vt 0.0754363 64.9958
v -35.237 165.184 63.5173
vt 1.12718 65.0332
v -33.7887 164.147 63.5261
vt 1.69741 64.625
v -33.6927 164.079 63.5267
vt 1.73521 64.5979
v -31.6519 164.079 63.539
vt 2.53865 64.5979
v -31.6519 164.239 63.539
vt 2.53865 64.6609
v -31.4707 164.375 63.5401
vt 2.61002 64.7145
v -30.5816 165.043 63.5455
vt 2.96005 64.9777
v -30.117 165.393 63.5483
vt 3.14297 65.1152
v -31.0078 168.362 63.5429
vt 2.79227 66.2844
v -32.9389 168.241 63.5312
vt 2.03197 66.2366
v -35.5196 167.084 63.5156
vt 1.01593 65.7812
v -37.9995 166.07 63.5006
vt 0.0395657 65.3821
f 992/992/48 991/991/48 1035/1035/48 1036/1036/48 1037/1037/48 1038/1038/48 1039/1039/48 1040/1040/48 1041/1041/48 1042/1042/48 1043/1043/48 1044/1044/48 1045/1045/48 1034/1034/48 1024/1024/48 1023/1023/48 898/898/48 933/933/48 1046/1046/48 1047/1047/48 1048/1048/48 1049/1049/48 994/994/48 993/993/48 

usemtl Teddy_Glasses
vn -0.00605028 1.45739e-13 0.999982
f 991/991/49 990/990/49 1021/1021/49 1035/1035/49 

vn -0.00605028 1.57485e-14 0.999982
v -38.5693 164.034 63.4972
vt -0.184773 64.5805
f 1021/1021/50 1050/1050/50 1035/1035/50

v -38.5693 162.596 63.4972
vt -0.184773 64.0142
f 1021/1021/50 1051/1051/50 1050/1050/50

f 1020/1020/50 1051/1051/50 1021/1021/50

v -37.4539 161.425 63.5039
vt 0.254383 63.5531
f 1020/1020/50 1052/1052/50 1051/1051/50

f 1019/1019/50 1052/1052/50 1020/1020/50

f 1052/1052/50 1019/1019/50 1018/1018/50

v -35.3774 161.488 63.5165
vt 1.07191 63.578
f 1018/1018/50 1053/1053/50 1052/1052/50

f 1053/1053/50 1018/1018/50 1017/1017/50

v -34.0545 162.435 63.5245
vt 1.59274 63.9509
f 1053/1053/50 1017/1017/50 1054/1054/50

f 1054/1054/50 1017/1017/50 1016/1016/50

v -34.0545 163.775 63.5245
vt 1.59274 64.4782
f 1054/1054/50 1016/1016/50 1055/1055/50

v -33.5966 164.01 63.5272
vt 1.77301 64.5709
f 1055/1055/50 1016/1016/50 1056/1056/50

vn -0.00605028 3.06518e-14 0.999982
f 1056/1056/51 1016/1016/51 1015/1015/51 1014/1014/51 1013/1013/51 1041/1041/51 1040/1040/51 

f 1013/1013/46 1033/1033/46 1041/1041/46

f 1012/1012/46 1033/1033/46 1013/1013/46

f 1012/1012/46 1029/1029/46 1033/1033/46

f 1011/1011/46 1029/1029/46 1012/1012/46

f 1010/1010/46 1029/1029/46 1011/1011/46

f 1041/1041/46 1033/1033/46 1032/1032/46

f 1041/1041/46 1032/1032/46 1042/1042/46

f 1042/1042/46 1032/1032/46 1043/1043/46

f 1043/1043/46 1032/1032/46 1044/1044/46

f 1032/1032/46 1034/1034/46 1044/1044/46

f 1031/1031/46 1034/1034/46 1032/1032/46

f 1044/1044/46 1034/1034/46 1045/1045/46

v -35.3774 164.722 63.5165
vt 1.07191 64.8511
f 1057/1057/50 1056/1056/50 1040/1040/50

f 1055/1055/50 1056/1056/50 1057/1057/50

usemtl Teddy_Skin_
v -37.7516 164.636 63.5021
vt 0.137183 64.8174
f 1050/1050/47 1051/1051/47 1052/1052/47 1053/1053/47 1054/1054/47 1055/1055/47 1057/1057/47 1058/1058/47 

usemtl Teddy_Glasses
f 1037/1037/50 1058/1058/50 1057/1057/50

f 1036/1036/50 1058/1058/50 1037/1037/50

f 1035/1035/50 1058/1058/50 1036/1036/50

f 1035/1035/50 1050/1050/50 1058/1058/50

f 1057/1057/50 1038/1038/50 1037/1037/50

f 1057/1057/50 1039/1039/50 1038/1038/50

f 1057/1057/50 1040/1040/50 1039/1039/50

usemtl Teddy_SkinShadow_
vn -0.00605028 -1.67013e-14 0.999982
f 929/929/52 995/995/52 994/994/52 1049/1049/52 1048/1048/52 1047/1047/52 1046/1046/52 933/933/52 932/932/52 931/931/52 930/930/52 

usemtl Teddy_Dress
vn -0.00605028 4.98536e-15 0.999982
v -56.097 142.047 63.3911
vt -7.08558 55.9239
v -57.652 138.377 63.3817
vt -7.69777 54.4792
v -58.0434 136.976 63.3793
vt -7.8519 53.9277
v -59.6159 131.35 63.3698
vt -8.471 51.7125
v -61.2308 120.134 63.36
vt -9.10678 47.2969
v -61.0358 116.512 63.3612
vt -9.02999 45.871
v -59.993 111.209 63.3675
vt -8.61946 43.7832
v -58.0632 106.952 63.3792
vt -7.85968 42.1072
v -54.0273 115.57 63.4036
vt -6.27069 45.5001
v -53.7263 118.806 63.4055
vt -6.15219 46.7742
v -53.1556 120.225 63.4089
vt -5.92751 47.3325
v -50.4119 133.358 63.4255
vt -4.84731 52.5031
v -49.5972 136.976 63.4304
vt -4.52655 53.9277
v -49.6641 137.386 63.43
vt -4.55288 54.0892
f 657/657/53 1059/1059/53 1060/1060/53 1061/1061/53 1062/1062/53 1063/1063/53 1064/1064/53 1065/1065/53 1066/1066/53 93/93/53 92/92/53 91/91/53 90/90/53 89/89/53 88/88/53 87/87/53 86/86/53 85/85/53 84/84/53 83/83/53 82/82/53 32/32/53 31/31/53 30/30/53 1067/1067/53 1068/1068/53 1069/1069/53 475/475/53 483/483/53 491/491/53 1070/1070/53 1071/1071/53 1072/1072/53 659/659/53 658/658/53 

f 491/491/4 495/495/4 1070/1070/4

f 491/491/4 492/492/4 495/495/4

f 1070/1070/4 495/495/4 571/571/4

v -31.7681 133.114 63.5383
vt 2.49291 52.4071
f 1070/1070/4 571/571/4 1073/1073/4

usemtl Teddy_Skin_
vn -0.00605028 5.601e-14 0.999982
v -31.9131 133.226 63.5374
vt 2.43583 52.4511
f 594/594/54 593/593/54 627/627/54 626/626/54 625/625/54 624/624/54 665/665/54 664/664/54 1074/1074/54 1073/1073/54 571/571/54 572/572/54 573/573/54 574/574/54 575/575/54 602/602/54 601/601/54 600/600/54 599/599/54 598/598/54 597/597/54 596/596/54 595/595/54 

usemtl Teddy_Dress
f 663/663/4 1074/1074/4 664/664/4

f 1070/1070/4 1074/1074/4 663/663/4

f 1070/1070/4 1073/1073/4 1074/1074/4

f 662/662/4 1070/1070/4 663/663/4

f 661/661/4 1070/1070/4 662/662/4

f 1070/1070/4 661/661/4 1071/1071/4

f 1071/1071/4 661/661/4 660/660/4

f 1071/1071/4 660/660/4 659/659/4

f 1071/1071/4 659/659/4 1072/1072/4

usemtl Teddy_BookJacket
v -36.8668 92.5697 63.5075
vt 0.485506 36.4448
vn -0.00605028 -9.78776e-16 0.999982
v -42.2804 93.6673 63.4747
vt -1.64585 36.8769
v -32.6974 107.153 63.5327
vt 2.12703 42.1862
v -35.9289 92.9679 63.5131
vt 0.854795 36.6015
f 1075/1075/55 1076/1076/55 79/79/55 78/78/55 77/77/55 76/76/55 75/75/55 361/361/55 363/363/55 20/20/55 19/19/55 1077/1077/55 1078/1078/55 

usemtl Teddy_Paper
vn -0.00605028 -2.36586e-15 0.999982
f 1077/1077/56 19/19/56 18/18/56 17/17/56 16/16/56 15/15/56 14/14/56 81/81/56 80/80/56 79/79/56 1076/1076/56 1075/1075/56 1078/1078/56 

usemtl Teddy_Dress
f 74/74/4 361/361/4 75/75/4

f 358/358/4 73/73/4 72/72/4

usemtl Teddy_DressShadow
vn -0.00605028 5.21683e-13 0.999982
f 62/62/57 61/61/57 60/60/57 108/108/57 355/355/57 356/356/57 358/358/57 72/72/57 71/71/57 70/70/57 69/69/57 68/68/57 67/67/57 66/66/57 65/65/57 64/64/57 63/63/57 

usemtl Teddy_Dress
f 59/59/4 108/108/4 60/60/4

usemtl Teddy_Paper
vn -0.00605028 -2.24126e-12 0.999982
v -55.6135 97.2721 63.394
vt -6.89521 38.2961
f 49/49/58 97/97/58 1079/1079/58 103/103/58 102/102/58 

usemtl Teddy_BookJacket
vn -0.00605028 1.5694e-12 0.999982
v -55.9955 97.459 63.3917
vt -7.04559 38.3697
v -56.0691 97.5884 63.3913
vt -7.07458 38.4206
v -56.0731 97.7028 63.3913
vt -7.07614 38.4657
v -56.1116 97.5377 63.391
vt -7.0913 38.4007
v -56.0763 97.4404 63.3912
vt -7.07742 38.3624
v -55.9281 97.3418 63.3921
vt -7.01905 38.3235
f 97/97/59 96/96/59 1080/1080/59 1081/1081/59 1082/1082/59 1083/1083/59 1084/1084/59 1085/1085/59 1079/1079/59 

usemtl Teddy_BookCover
v -55.5484 99.9526 63.3944
vt -6.86957 39.3514
vn -0.00605028 6.01776e-15 0.999982
f 1086/1086/60 1082/1082/60 1081/1081/60 1080/1080/60 96/96/60 95/95/60 

g Mesh2 Model

usemtl _________
v 72.7 0 -0
vt 0 0
vn 0 -1 -0
v 0 0 -0
vt 0.981755 0
v 0 0 -72.9
vt 0.981755 1
v 72.7 0 -72.9
vt 0 1
f 1087/1087/61 1088/1088/61 1089/1089/61 1090/1090/61 

usemtl ________
vt -0.0467886 0
vn 0 0 1
vt 1 0
v 72.7 70.1 -0
vt 1 1.01998
v 0 70.1 -0
vt -0.0467886 1.01998
f 1088/1091/62 1087/1092/62 1091/1093/62 1092/1094/62 

usemtl ________1_
vn 1 0 -0
vt 1.03589 0
v 72.7 70.1 -72.9
vt 1.03589 0.996104
vt 0 0.996104
f 1087/1087/63 1090/1095/63 1093/1096/63 1091/1097/63 

usemtl _________1_
vt 0 -0.0164266
vn 0 0 -1
vt 1.07124 -0.0164266
v 0 70.1 -72.9
vt 1.07124 1.02194
vt 0 1.02194
f 1090/1098/64 1089/1099/64 1094/1100/64 1093/1101/64 

usemtl _________1
vn -1 0 -0
vt 1.07431 0
vt 1.07431 1.03305
vt 0 1.03305
f 1089/1087/65 1088/1102/65 1092/1103/65 1094/1104/65 

usemtl __________2
vn 0 1 -0
vt 0.986868 0
vt 0.986868 1
f 1092/1087/66 1091/1105/66 1093/1106/66 1094/1090/66 

